<svg width="18" height="16" viewBox="0 0 18 16" fill="none" xmlns="http://www.w3.org/2000/svg">
    <g clip-path="url(#clip0_4250_25889)">
        <path d="M11.0438 1.48645H16.9562C17.3508 1.48645 17.6754 1.1633 17.6754 0.747838C17.6754 0.332372 17.3508 0 16.9562 0H11.0438C10.6491 0 10.3421 0.332372 10.3421 0.747838C10.3421 1.1633 10.6491 1.48645 11.0438 1.48645ZM11.0438 6.3243H16.9562C17.3508 6.3243 17.6754 5.99193 17.6754 5.57647C17.6754 5.161 17.3508 4.83786 16.9562 4.83786H11.0438C10.6491 4.83786 10.3421 5.161 10.3421 5.57647C10.3421 5.99193 10.6491 6.3243 11.0438 6.3243ZM0.701753 11.153H16.9562C17.3508 11.153 17.6754 10.8298 17.6754 10.4143C17.6754 9.98962 17.3508 9.66648 16.9562 9.66648H0.701753C0.307017 9.66648 0 9.98962 0 10.4143C0 10.8298 0.307017 11.153 0.701753 11.153ZM0.701753 15.9816H16.9562C17.3508 15.9816 17.6754 15.6584 17.6754 15.2429C17.6754 14.8275 17.3508 14.4951 16.9562 14.4951H0.701753C0.307017 14.4951 0 14.8275 0 15.2429C0 15.6584 0.307017 15.9816 0.701753 15.9816Z" fill="#5B5B5B"/>
        <path d="M1.00905 7.01849C1.48273 7.01849 1.86869 6.61226 1.86869 6.10446V4.50723C1.86869 4.23948 2.00027 4.101 2.25466 4.101H4.70202V5.37509C4.70202 6.00291 5.22833 6.28911 5.71956 5.89211L8.34237 3.78709C8.68447 3.50088 8.68447 2.98386 8.34237 2.69765L5.71956 0.592624C5.22833 0.195624 4.70202 0.481833 4.70202 1.10965V2.28218H2.13185C0.859922 2.28218 0.140625 2.99309 0.140625 4.25795V6.10446C0.140625 6.61226 0.52659 7.01849 1.00905 7.01849Z" fill="#5B5B5B"/>
    </g>
    <defs>
        <clipPath id="clip0_4250_25889">
            <rect width="18" height="16" fill="white"/>
        </clipPath>
    </defs>
</svg>
