<svg width="16" height="18" viewBox="0 0 16 18" fill="none" xmlns="http://www.w3.org/2000/svg">
    <path d="M1.55831 16.8443C2.66627 17.9942 4.10093 18.0089 5.19468 16.881C6.06826 15.9801 6.91343 13.9439 7.55974 12.9259L9.27848 14.7057C9.80408 15.255 10.4433 15.255 10.9404 14.7277L11.5512 14.0977C12.0697 13.5558 12.0626 12.9406 11.5299 12.3912L5.8836 6.56114C5.34383 6.01182 4.74013 6.0045 4.22167 6.53917L3.61087 7.16905C3.09951 7.6964 3.09951 8.33362 3.63218 8.88292L5.35093 10.6554C4.37081 11.3219 2.40348 12.1935 1.52281 13.0943C0.436157 14.2222 0.443259 15.7091 1.55831 16.8443ZM3.45463 15.8922C2.96457 15.8922 2.57394 15.482 2.57394 14.984C2.57394 14.4859 2.96457 14.0831 3.45463 14.0831C3.93758 14.0831 4.3282 14.4859 4.3282 14.984C4.3282 15.482 3.93758 15.8922 3.45463 15.8922ZM12.3751 12.0543L15.1308 9.21254C15.9191 8.39954 15.8978 7.43272 15.0953 6.59044L14.733 6.20957C13.9944 7.19834 11.885 8.35559 11.4802 7.93807C11.4163 7.87214 11.4092 7.74034 11.5015 7.6378C12.3609 6.75157 12.922 5.88731 13.0498 4.48106L9.39921 0.709089C8.72452 0.0132875 7.55263 0.240339 7.23303 1.5587C6.78559 3.4337 6.38076 4.52501 5.94041 5.42588L12.3751 12.0543Z" fill="#5B5B5B"/>
</svg>
