<svg width="15" height="12" viewBox="0 0 15 12" fill="none" xmlns="http://www.w3.org/2000/svg">
    <path d="M4.8548 2.78789L1.98451 5.6648L4.8548 8.54048C5.17542 8.86219 5.17542 9.38411 4.8548 9.70541C4.69368 9.86689 4.48446 9.9468 4.27359 9.9468C4.06273 9.9468 3.85351 9.86689 3.69238 9.70541L0.24087 6.24686C0.0867297 6.0928 0 5.88312 0 5.6648C0 5.44689 0.0867297 5.23681 0.24087 5.08233L3.69238 1.62295C4.0134 1.30165 4.53378 1.30165 4.8548 1.62295C5.17542 1.94467 5.17542 2.46535 4.8548 2.78789ZM14.1591 5.08192L10.708 1.62254C10.387 1.30124 9.86663 1.30124 9.5456 1.62254C9.22458 1.94426 9.22458 2.46576 9.5456 2.78748L12.4155 5.66439L9.5456 8.54048C9.22458 8.86219 9.22458 9.38411 9.5456 9.70541C9.70673 9.86689 9.91636 9.9468 10.1268 9.9468C10.3373 9.9468 10.5473 9.86689 10.708 9.70541L14.1591 6.24686C14.3133 6.09238 14.4 5.88271 14.4 5.66439C14.4 5.44689 14.3133 5.2364 14.1591 5.08192ZM8.63679 0.0263181C8.19451 -0.0877862 7.74853 0.179968 7.63591 0.619908L5.16966 10.2994C5.05786 10.7402 5.32298 11.1892 5.76238 11.302C5.83103 11.3198 5.89967 11.328 5.96667 11.328C6.33414 11.328 6.66791 11.0796 6.76286 10.708L9.2291 1.02854C9.34173 0.587365 9.0762 0.138775 8.63679 0.0263181Z" fill="#B5B5B5"/>
</svg>
