<svg width="61" height="20" viewBox="0 0 61 20" fill="none" xmlns="http://www.w3.org/2000/svg">
    <g clip-path="url(#clip0_1493_29461)">
        <path d="M4.65415 17.4902H9.75364C12.7487 17.4902 14.6378 15.9151 14.6378 13.4986C14.6378 11.5908 13.2577 10.2114 11.2708 10.1038V10.0255C12.8956 9.80049 14.0016 8.57757 14.0016 7.02201C14.0016 4.84032 12.3279 3.5 9.61661 3.5H4.65415C3.60685 3.5 3 4.11635 3 5.19252V15.8075C3 16.8739 3.60685 17.4902 4.65415 17.4902ZM6.23001 15.2303V11.3463H8.68677C10.3996 11.3463 11.3589 12.0115 11.3589 13.2638C11.3589 14.5454 10.4388 15.2303 8.75528 15.2303H6.23001ZM6.23001 9.31132V5.79909H8.63783C10.0081 5.79909 10.8205 6.42523 10.8205 7.5014C10.8205 8.63627 9.92004 9.31132 8.39313 9.31132H6.23001Z" fill="#B5B5B5"/>
    </g>
    <g clip-path="url(#clip1_1493_29461)">
        <path d="M29.4908 19.5011H38.193C38.4676 19.5011 38.6922 19.2743 38.6922 18.966C38.6922 18.6577 38.4676 18.4219 38.193 18.4219H29.4908C29.2246 18.4219 29 18.6577 29 18.966C29 19.2743 29.2246 19.5011 29.4908 19.5011Z" fill="#B5B5B5"/>
        <path d="M33.8419 16.714C36.8369 16.714 38.6922 14.7551 38.6922 11.9074V4.11687C38.6922 3.609 38.3843 3.27344 37.9101 3.27344C37.4442 3.27344 37.1531 3.609 37.1531 4.11687V11.7713C37.1531 13.7937 35.9301 15.1723 33.8419 15.1723C31.7621 15.1723 30.5391 13.7937 30.5391 11.7713V4.11687C30.5391 3.609 30.2313 3.27344 29.7571 3.27344C29.2912 3.27344 29 3.609 29 4.11687V11.9074C29 14.7551 30.8469 16.714 33.8419 16.714Z" fill="#B5B5B5"/>
    </g>
    <g clip-path="url(#clip2_1493_29461)">
        <path d="M17.7456 17.4902H23.6356C24.0736 17.4902 24.3905 17.2065 24.3905 16.7467C24.3905 16.3064 24.083 16.0227 23.6449 16.0227H21.5573L23.822 4.9675H25.9096C26.3476 4.9675 26.6552 4.68379 26.6552 4.22397C26.6552 3.78372 26.357 3.5 25.9189 3.5H20.0009C19.5629 3.5 19.2647 3.78372 19.2647 4.22397C19.2647 4.68379 19.5722 4.9675 20.0103 4.9675H22.0979L19.8332 16.0227H17.7363C17.2982 16.0227 17 16.3064 17 16.7467C17 17.2065 17.3075 17.4902 17.7456 17.4902Z" fill="#B5B5B5"/>
    </g>
    <g clip-path="url(#clip3_1493_29461)">
        <path d="M54.3789 13.7539C54.3789 16.3027 52.2988 17.9727 49.0566 17.9727C46.3711 17.9727 44.3398 16.8008 43.8223 14.9551C43.7734 14.7695 43.7441 14.584 43.7441 14.4082C43.7441 13.9004 44.0664 13.5781 44.5938 13.5781C45.0039 13.5781 45.2188 13.7637 45.3945 14.1836C45.8926 15.5703 47.25 16.4004 49.0566 16.4004C51.0977 16.4004 52.5332 15.375 52.5332 13.9688C52.5332 12.7969 51.6836 12.1328 49.6523 11.6445L47.8555 11.2148C47.5768 11.1493 47.3141 11.0782 47.0706 11H52.9309C53.9276 11.6515 54.3789 12.5286 54.3789 13.7539ZM53.9492 6.50781C53.9883 6.6543 54.0078 6.81055 54.0078 6.95703C54.0078 7.44531 53.6953 7.73828 53.1875 7.73828C52.7969 7.73828 52.5625 7.5625 52.4062 7.19141C51.9277 5.84375 50.7266 5.08203 49.0469 5.08203C47.1816 5.08203 45.834 6.04883 45.834 7.41602C45.834 8.5 46.6738 9.10547 48.6563 9.58398L50.2481 9.96484C50.557 10.0379 50.8472 10.1155 51.1151 10.1992H45.3429C44.4218 9.55843 43.9883 8.69403 43.9883 7.54297C43.9883 5.17969 46.1074 3.5 49.0469 3.5C51.5566 3.5 53.5098 4.73047 53.9492 6.50781Z" fill="#B5B5B5"/>
        <path d="M41.4004 11H56.7227C56.9473 11 57.123 10.8242 57.123 10.5996C57.123 10.375 56.9473 10.1992 56.7227 10.1992H41.4004C41.1758 10.1992 41 10.375 41 10.5996C41 10.8242 41.1758 11 41.4004 11Z" fill="#B5B5B5"/>
    </g>
    <defs>
        <clipPath id="clip0_1493_29461">
            <rect width="12" height="14" fill="white" transform="translate(3 3.5)"/>
        </clipPath>
        <clipPath id="clip1_1493_29461">
            <rect width="10" height="19" fill="white" transform="translate(29 0.5)"/>
        </clipPath>
        <clipPath id="clip2_1493_29461">
            <rect width="10" height="14" fill="white" transform="translate(17 3.5)"/>
        </clipPath>
        <clipPath id="clip3_1493_29461">
            <rect width="17" height="15" fill="white" transform="translate(41 3.5)"/>
        </clipPath>
    </defs>
</svg>
