<svg width="12" height="15" viewBox="0 0 12 15" fill="none" xmlns="http://www.w3.org/2000/svg">
    <g clip-path="url(#clip0_1493_29462)">
        <path d="M1.65415 14.4902H6.75364C9.74874 14.4902 11.6378 12.9151 11.6378 10.4986C11.6378 8.59085 10.2577 7.2114 8.27077 7.10378V7.02551C9.89556 6.80049 11.0016 5.57757 11.0016 4.02201C11.0016 1.84032 9.32786 0.5 6.61661 0.5H1.65415C0.60685 0.5 0 1.11635 0 2.19252V12.8075C0 13.8739 0.60685 14.4902 1.65415 14.4902ZM3.23001 12.2303V8.34627H5.68677C7.39964 8.34627 8.35886 9.01153 8.35886 10.2638C8.35886 11.5454 7.4388 12.2303 5.75528 12.2303H3.23001ZM3.23001 6.31132V2.79909H5.63783C7.00813 2.79909 7.82052 3.42523 7.82052 4.5014C7.82052 5.63627 6.92004 6.31132 5.39313 6.31132H3.23001Z" fill="#B5B5B5"/>
    </g>
    <defs>
        <clipPath id="clip0_1493_29462">
            <rect width="12" height="14" fill="white" transform="translate(0 0.5)"/>
        </clipPath>
    </defs>
</svg>
