<?xml version="1.0" encoding="UTF-8"?>
<!DOCTYPE svg PUBLIC "-//W3C//DTD SVG 1.1//EN" "http://www.w3.org/Graphics/SVG/1.1/DTD/svg11.dtd">
<svg xmlns="http://www.w3.org/2000/svg" version="1.1" viewBox="0 0 1148 1149" width="24px" height="24px" style="shape-rendering:geometricPrecision; text-rendering:geometricPrecision; image-rendering:optimizeQuality; fill-rule:evenodd; clip-rule:evenodd; border-radius:50%" xmlns:xlink="http://www.w3.org/1999/xlink">
<g><path style="opacity:0.999" fill="#ffcc00" d="M 1147.5,163.5 C 1147.5,437.5 1147.5,711.5 1147.5,985.5C 1138.74,1085.92 1084.08,1140.26 983.5,1148.5C 710.167,1148.5 436.833,1148.5 163.5,1148.5C 62.9221,1140.89 8.25547,1086.89 -0.5,986.5C -0.5,712.167 -0.5,437.833 -0.5,163.5C 9.31907,58.8575 66.9857,4.69085 172.5,1C 439.833,0.333333 707.167,0.333333 974.5,1C 1079.83,4.92056 1137.5,59.0872 1147.5,163.5 Z"/></g>
<g><path style="opacity:1" fill="#fffefe" d="M 592.5,491.5 C 591.596,492.209 591.263,493.209 591.5,494.5C 666.833,494.5 742.167,494.5 817.5,494.5C 836.062,498.624 843.229,509.957 839,528.5C 837.21,533.414 834.876,538.081 832,542.5C 712,693.167 592,843.833 472,994.5C 463.211,1005.81 451.711,1010.98 437.5,1010C 421.657,1004.5 414.824,993.333 417,976.5C 457.606,866.181 498.106,755.847 538.5,645.5C 461.499,645.667 384.499,645.5 307.5,645C 291.858,638.427 286.358,626.927 291,610.5C 293.65,603.865 297.316,597.865 302,592.5C 420.574,444.349 538.907,296.016 657,147.5C 665.915,134.792 678.082,129.292 693.5,131C 709.29,136.057 715.79,146.891 713,163.5C 673.104,272.953 632.938,382.287 592.5,491.5 Z"/></g>
<g><path style="opacity:1" fill="#ffda4b" d="M 592.5,491.5 C 667.328,493.166 742.328,494.166 817.5,494.5C 742.167,494.5 666.833,494.5 591.5,494.5C 591.263,493.209 591.596,492.209 592.5,491.5 Z"/></g>
</svg>
