<?xml version="1.0" encoding="UTF-8"?>
<!DOCTYPE svg PUBLIC "-//W3C//DTD SVG 1.1//EN" "http://www.w3.org/Graphics/SVG/1.1/DTD/svg11.dtd">
<svg xmlns="http://www.w3.org/2000/svg" version="1.1" width="18px" height="15px" viewBox="0 0 1548 1305" style="shape-rendering:geometricPrecision; text-rendering:geometricPrecision; image-rendering:optimizeQuality; fill-rule:evenodd; clip-rule:evenodd" xmlns:xlink="http://www.w3.org/1999/xlink">
<g><path style="opacity:0.993" fill="#00000" d="M 393.5,-0.5 C 400.5,-0.5 407.5,-0.5 414.5,-0.5C 426.595,0.195774 437.928,3.69577 448.5,10C 462.791,23.4276 466.958,39.5942 461,58.5C 456.065,70.4318 447.232,77.5985 434.5,80C 413.736,81.8765 393.069,84.5432 372.5,88C 323.814,96.6927 291.981,124.526 277,171.5C 270.887,193.071 267.553,215.071 267,237.5C 266.667,323.167 266.333,408.833 266,494.5C 257.501,590.833 205.001,643.499 108.5,652.5C 140.723,655.218 170.723,664.718 198.5,681C 231.582,703.789 252.416,734.956 261,774.5C 263.567,786.037 265.234,797.704 266,809.5C 266.333,895.167 266.667,980.833 267,1066.5C 267.402,1095.92 273.069,1124.25 284,1151.5C 301.598,1186.58 329.765,1208.08 368.5,1216C 391.758,1219.93 415.091,1223.27 438.5,1226C 455.478,1231.95 463.812,1243.95 463.5,1262C 461.786,1286.55 448.786,1300.71 424.5,1304.5C 409.833,1304.5 395.167,1304.5 380.5,1304.5C 254.341,1297.18 185.841,1230.51 175,1104.5C 174.031,1093.19 173.364,1081.85 173,1070.5C 172.667,994.833 172.333,919.167 172,843.5C 171.121,816.764 164.788,791.431 153,767.5C 135.841,739.726 111.008,722.893 78.5,717C 66.7663,714.989 55.0996,712.656 43.5,710C 20.1004,703.103 5.43372,687.936 -0.5,664.5C -0.5,656.167 -0.5,647.833 -0.5,639.5C 5.57798,615.256 20.9113,600.09 45.5,594C 64.2619,591.448 82.5952,587.115 100.5,581C 129.73,569.436 149.897,548.936 161,519.5C 167.363,500.684 171.03,481.351 172,461.5C 172.333,385.833 172.667,310.167 173,234.5C 172.932,191.236 180.932,149.569 197,109.5C 223.98,52.8842 268.48,18.7175 330.5,7C 351.481,3.0588 372.481,0.558796 393.5,-0.5 Z"/></g>
<g><path style="opacity:0.993" fill="#00000" d="M 1132.5,-0.5 C 1139.5,-0.5 1146.5,-0.5 1153.5,-0.5C 1191.44,0.216393 1228.11,7.71639 1263.5,22C 1312.51,45.3559 1344.68,83.1892 1360,135.5C 1368.45,164.563 1373.12,194.23 1374,224.5C 1374.33,301.5 1374.67,378.5 1375,455.5C 1375.75,477.019 1379.42,498.019 1386,518.5C 1397.17,549.667 1418.33,570.833 1449.5,582C 1467.84,587.735 1486.51,592.068 1505.5,595C 1527.82,601.15 1541.82,615.317 1547.5,637.5C 1547.5,646.833 1547.5,656.167 1547.5,665.5C 1541.32,690.179 1525.65,705.345 1500.5,711C 1478.31,713.547 1456.98,719.214 1436.5,728C 1404.96,745.248 1386.12,771.748 1380,807.5C 1377.28,821.372 1375.61,835.372 1375,849.5C 1374.67,926.5 1374.33,1003.5 1374,1080.5C 1373.03,1117.7 1366.03,1153.7 1353,1188.5C 1330.17,1242.68 1290.34,1277.51 1233.5,1293C 1211.36,1298.8 1189.02,1302.63 1166.5,1304.5C 1151.83,1304.5 1137.17,1304.5 1122.5,1304.5C 1091.22,1297.97 1079.05,1278.97 1086,1247.5C 1090,1236.17 1097.83,1229 1109.5,1226C 1131.17,1223.12 1152.84,1220.12 1174.5,1217C 1224.35,1207.81 1256.52,1178.98 1271,1130.5C 1276.05,1111.83 1279.05,1092.83 1280,1073.5C 1280.04,982.82 1280.71,892.153 1282,801.5C 1289.73,721.446 1332.89,673.279 1411.5,657C 1420.82,655.535 1430.15,654.202 1439.5,653C 1415.06,650.305 1391.39,644.305 1368.5,635C 1325.3,614.144 1298.14,580.311 1287,533.5C 1284.59,523.289 1282.92,512.956 1282,502.5C 1280.7,411.848 1280.04,321.181 1280,230.5C 1279.22,200.266 1272.22,171.599 1259,144.5C 1239.54,113.149 1211.37,94.3156 1174.5,88C 1152.86,84.67 1131.19,81.67 1109.5,79C 1092.14,73.1238 1083.47,60.9571 1083.5,42.5C 1083.74,24.4994 1092.07,11.9994 1108.5,5C 1116.39,2.05895 1124.39,0.225619 1132.5,-0.5 Z"/></g>
<g><path style="opacity:0.993" fill="#00000" d="M 469.5,563.5 C 516.282,561.457 548.116,582.124 565,625.5C 574.523,662.255 565.356,693.421 537.5,719C 499.829,746.332 462.162,746.332 424.5,719C 396.337,693.164 387.17,661.664 397,624.5C 409.785,590.542 433.951,570.209 469.5,563.5 Z"/></g>
<g><path style="opacity:0.993" fill="#00000" d="M 761.5,563.5 C 799.456,561.061 828.623,575.728 849,607.5C 867.088,644.205 863.422,678.538 838,710.5C 805.932,741.261 769.765,747.094 729.5,728C 691.715,703.229 678.215,668.729 689,624.5C 701.785,590.542 725.951,570.209 761.5,563.5 Z"/></g>
<g><path style="opacity:0.993" fill="#00000" d="M 1053.5,563.5 C 1095.46,561.054 1125.96,578.388 1145,615.5C 1160.05,656.794 1151.22,691.961 1118.5,721C 1081.92,745.845 1045.58,745.512 1009.5,720C 978.025,691.266 969.525,656.766 984,616.5C 997.923,586.631 1021.09,568.964 1053.5,563.5 Z"/></g>
</svg>
