<?xml version="1.0" encoding="UTF-8"?>
<!DOCTYPE svg PUBLIC "-//W3C//DTD SVG 1.1//EN" "http://www.w3.org/Graphics/SVG/1.1/DTD/svg11.dtd">
<svg xmlns="http://www.w3.org/2000/svg" version="1.1" viewBox="0 0 1185 1195" width="18px" height="18px" style="shape-rendering:geometricPrecision; text-rendering:geometricPrecision; image-rendering:optimizeQuality; fill-rule:evenodd; clip-rule:evenodd" xmlns:xlink="http://www.w3.org/1999/xlink">
<g><path style="opacity:0.99" fill="#adadad" d="M 1185.5,42.5 C 1185.5,173.167 1185.5,303.833 1185.5,434.5C 1176.18,460.329 1158.18,469.495 1131.5,462C 1119.68,456.846 1112.18,448.013 1109,435.5C 1107.38,395.193 1107.05,354.859 1108,314.5C 1110.76,253.425 1113.42,192.425 1116,131.5C 1085.97,163.199 1056.3,195.199 1027,227.5C 928.806,325.361 830.973,423.527 733.5,522C 719.467,531.359 704.467,533.026 688.5,527C 668.078,515.073 661.911,497.906 670,475.5C 672.171,471.156 674.837,467.156 678,463.5C 776.167,365.333 874.333,267.167 972.5,169C 1004.13,140.368 1035.47,111.368 1066.5,82C 1008.54,84.5379 950.537,87.2045 892.5,90C 849.5,90.6667 806.5,90.6667 763.5,90C 742.826,85.4979 731.826,72.6645 730.5,51.5C 731.814,30.6915 742.481,17.5249 762.5,12C 892.5,11.3333 1022.5,11.3333 1152.5,12C 1171.13,14.1363 1182.13,24.303 1185.5,42.5 Z"/></g>
<g><path style="opacity:0.997" fill="#adadad" d="M 918.5,1194.5 C 900.833,1194.5 883.167,1194.5 865.5,1194.5C 796.701,1187.05 731.034,1168.21 668.5,1138C 597.643,1103.77 531.31,1062.77 469.5,1015C 344.582,918.086 236.082,805.586 144,677.5C 97.7893,612.098 60.1226,541.765 31,466.5C 14.4696,421.724 3.96956,375.724 -0.5,328.5C -0.5,310.833 -0.5,293.167 -0.5,275.5C 7.25316,189.812 44.9198,120.646 112.5,68C 144.625,44.4044 180.625,33.7377 220.5,36C 251.541,40.0758 276.375,54.5758 295,79.5C 339.278,142.778 383.945,205.778 429,268.5C 441.757,286.017 450.757,305.35 456,326.5C 459.718,349.962 455.051,371.629 442,391.5C 436.577,399.345 430.911,407.011 425,414.5C 406.032,435.136 386.699,455.469 367,475.5C 358.223,487.852 357.223,500.852 364,514.5C 371.827,530.833 381.16,546.166 392,560.5C 461.5,650 541,729.5 630.5,799C 645.033,809.853 660.366,819.519 676.5,828C 690.624,834.629 704.291,833.962 717.5,826C 736.528,806.638 755.862,787.638 775.5,769C 787.467,758.042 800.801,749.042 815.5,742C 836.892,732.84 858.559,732.173 880.5,740C 894.899,746.032 908.566,753.365 921.5,762C 988.833,809.667 1056.17,857.333 1123.5,905C 1152.76,931.112 1163.93,963.612 1157,1002.5C 1151.52,1029.78 1140.85,1054.78 1125,1077.5C 1073.9,1147.48 1005.06,1186.48 918.5,1194.5 Z"/></g>
</svg>
