<svg width="27" height="22" viewBox="0 0 27 22" fill="none" xmlns="http://www.w3.org/2000/svg">
    <path d="M21.2381 5.62238V10.6651C21.0104 10.6319 20.7773 10.6171 20.5409 10.6171C20.2954 10.6171 20.0533 10.6331 19.8173 10.6693V8.15507C19.8173 7.3432 19.376 6.91961 18.5906 6.91961H6.28899C5.50359 6.91961 5.07117 7.3432 5.07117 8.15507V16.4768C5.07117 17.2974 5.50359 17.7122 6.28899 17.7122H15.032C15.1543 18.2183 15.3508 18.6954 15.6085 19.133H6.42135C4.57699 19.133 3.65039 18.2241 3.65039 16.3973V5.62238C3.65039 3.79566 4.57699 2.88672 6.42135 2.88672H18.4759C20.3203 2.88672 21.2381 3.80448 21.2381 5.62238Z" fill="#B5B5B5"/>
    <path d="M14.2578 14.9856C14.2578 15.2857 14.0195 15.5151 13.7106 15.5151H7.82451C7.498 15.5151 7.26855 15.2857 7.26855 14.9856C7.26855 14.6767 7.498 14.4297 7.82451 14.4297H13.7106C14.0195 14.4297 14.2578 14.6767 14.2578 14.9856ZM17.1296 11.7753C16.7145 12.0814 16.3462 12.4468 16.0364 12.8588H7.82451C7.498 12.8588 7.26855 12.6294 7.26855 12.3294C7.26855 12.0117 7.498 11.7734 7.82451 11.7734H17.0904C17.1037 11.7734 17.1168 11.7738 17.1296 11.7753ZM17.6376 9.64664C17.6376 9.9555 17.3993 10.2027 17.0904 10.2027H7.82451C7.498 10.2027 7.26855 9.9555 7.26855 9.64664C7.26855 9.34662 7.498 9.11719 7.82451 9.11719H17.0904C17.3993 9.11719 17.6376 9.34662 17.6376 9.64664Z" fill="#B5B5B5"/>
    <path d="M25.0244 16.3072C25.0244 18.7605 22.9683 20.7901 20.5415 20.7901C18.0794 20.7901 16.0586 18.7781 16.0586 16.3072C16.0586 13.8539 18.0794 11.8242 20.5415 11.8242C22.9947 11.8242 25.0244 13.8451 25.0244 16.3072ZM20.0032 14.0392V15.7689H18.2735C17.9559 15.7689 17.7352 15.9806 17.7352 16.3072C17.7352 16.6337 17.9559 16.8455 18.2735 16.8455H20.0032V18.5751C20.0032 18.9017 20.215 19.1134 20.5415 19.1134C20.868 19.1134 21.0798 18.9017 21.0798 18.5751V16.8455H22.8006C23.1271 16.8455 23.3478 16.6337 23.3478 16.3072C23.3478 15.9806 23.1271 15.7689 22.8006 15.7689H21.0798V14.0392C21.0798 13.7215 20.868 13.5009 20.5415 13.5009C20.215 13.5009 20.0032 13.7215 20.0032 14.0392Z" fill="#8BCF16"/>
</svg>
