<svg width="17" height="16" viewBox="0 0 17 16" fill="none" xmlns="http://www.w3.org/2000/svg">
    <path d="M17 3.53156V9.43804C17 11.6973 15.7659 12.9619 13.4674 12.9619H8.25318L5.4687 15.5065C5.10618 15.8458 4.88249 16 4.58168 16C4.14202 16 3.8952 15.6838 3.8952 15.2058V12.9619H3.53268C1.23412 12.9619 0 11.705 0 9.43804V3.53156C0 1.26458 1.23412 0 3.53268 0H13.4674C15.7659 0 17 1.27229 17 3.53156ZM4.65881 5.64433C4.65881 6.5465 5.22188 7.2482 6.12433 7.2482C6.456 7.2482 6.78767 7.19419 6.99593 6.93205H7.05764C6.76453 7.58748 6.15518 8.01157 5.63839 8.15038C5.33758 8.22745 5.25273 8.35086 5.25273 8.5436C5.25273 8.74407 5.42242 8.91376 5.64611 8.91376C6.44829 8.91376 8.06038 7.95756 8.06038 5.93734C8.06038 4.85783 7.36616 4.03277 6.33259 4.03277C5.37614 4.03277 4.65881 4.6959 4.65881 5.64433ZM8.9551 5.64433C8.9551 6.5465 9.51818 7.2482 10.4129 7.2482C10.7523 7.2482 11.084 7.19419 11.2922 6.93205H11.3539C11.0608 7.58748 10.4515 8.01157 9.927 8.15038C9.64155 8.22745 9.54898 8.35086 9.54898 8.5436C9.54898 8.74407 9.71872 8.91376 9.9424 8.91376C10.7446 8.91376 12.3566 7.95756 12.3566 5.93734C12.3566 4.85783 11.6548 4.03277 10.6212 4.03277C9.6647 4.03277 8.9551 4.6959 8.9551 5.64433Z" fill="#B5B5B5"/>
</svg>
