<svg width="18" height="18" viewBox="0 0 18 18" fill="none" xmlns="http://www.w3.org/2000/svg">
    <path d="M17.6692 7.97555C17.6692 11.7971 14.1561 14.9434 8.85691 14.9434C8.76132 14.9434 8.66574 14.9358 8.57024 14.9281C8.46734 14.9281 8.36444 14.9664 8.23949 15.0585C6.99003 15.9947 4.79246 17 3.9105 17C3.34456 17 3.18287 16.5166 3.46951 16.1329C3.7488 15.7492 4.48378 14.905 4.89536 14.1991C4.95416 14.084 4.91741 13.9688 4.80716 13.9075C2.4479 12.5876 1 10.4312 1 7.97555C1 4.11559 4.70427 1 9.33459 1C13.965 1 17.6692 4.11559 17.6692 7.97555ZM8.69517 4.98274V7.37698H6.39471C6.01253 7.37698 5.74793 7.65325 5.74793 8.05997C5.74793 8.44366 6.01253 8.71224 6.39471 8.71224H8.69517V11.1219C8.69517 11.5132 8.95241 11.7971 9.32729 11.7971C9.70947 11.7971 9.97401 11.5132 9.97401 11.1219V8.71224H12.2818C12.6567 8.71224 12.9286 8.44366 12.9286 8.05997C12.9286 7.65325 12.6567 7.37698 12.2818 7.37698H9.97401V4.98274C9.97401 4.57602 9.70947 4.29977 9.32729 4.29977C8.95241 4.29977 8.69517 4.5837 8.69517 4.98274Z" fill="white" fill-opacity="0.85"/>
</svg>
