<svg width="16" height="13" viewBox="0 0 16 13" fill="none" xmlns="http://www.w3.org/2000/svg">
    <path d="M0.541992 6.24656C0.541992 6.59731 0.741556 6.84526 1.15882 6.91176C1.9087 7.0267 2.20502 7.40766 2.20502 8.38131V10.0806C2.20502 11.7254 2.95489 12.4995 4.58768 12.4995C4.68444 12.4995 4.78725 12.4814 4.85982 12.4572C5.04728 12.3786 5.15009 12.2274 5.15009 12.0278C5.15009 11.792 5.04728 11.6711 4.83562 11.6166C4.77515 11.6045 4.71468 11.5924 4.64211 11.5864C3.62615 11.5139 3.25726 11.0784 3.25726 9.95965V7.95192C3.25726 6.92991 2.71904 6.36144 1.77566 6.27078C1.75751 6.27078 1.75751 6.24656 1.77566 6.24656C2.71904 6.15585 3.25726 5.5874 3.25726 4.56539V2.55161C3.25726 1.42681 3.62615 1.00349 4.64211 0.930921C4.73887 0.924871 4.82353 0.912777 4.88401 0.88859C5.05938 0.828113 5.15009 0.695074 5.15009 0.483414C5.15009 0.271756 5.04123 0.126619 4.83562 0.0540504C4.74492 0.0238135 4.64816 0.0117188 4.52721 0.0117188C2.94885 0.0117188 2.20502 0.797876 2.20502 2.43067V4.13603C2.20502 5.09756 1.9087 5.48459 1.15882 5.59949C0.741556 5.66601 0.541992 5.90186 0.541992 6.24656ZM15.739 6.24656C15.739 5.90186 15.5334 5.66601 15.1162 5.59949C14.3723 5.48459 14.07 5.09756 14.07 4.13603V2.43067C14.07 0.797876 13.3261 0.0117188 11.7478 0.0117188C11.6268 0.0117188 11.5361 0.0238135 11.4454 0.0540504C11.2398 0.126619 11.1249 0.271756 11.1249 0.483414C11.1249 0.695074 11.2217 0.828113 11.397 0.88859C11.4575 0.912777 11.5361 0.924871 11.6329 0.930921C12.6488 1.00349 13.0237 1.42681 13.0237 2.55161V4.56539C13.0237 5.5874 13.5559 6.15585 14.4994 6.24656C14.5175 6.24656 14.5175 6.27078 14.4994 6.27078C13.5559 6.36144 13.0237 6.92991 13.0237 7.95192V9.95965C13.0237 11.0784 12.6488 11.5139 11.6329 11.5864C11.5603 11.5924 11.5059 11.6045 11.4454 11.6166C11.2337 11.6711 11.1249 11.792 11.1249 12.0278C11.1249 12.2274 11.2337 12.3786 11.4212 12.4572C11.4938 12.4814 11.5905 12.4995 11.6873 12.4995C13.3201 12.4995 14.07 11.7254 14.07 10.0806V8.38131C14.07 7.40766 14.3723 7.0267 15.1162 6.91176C15.5334 6.84526 15.739 6.59731 15.739 6.24656Z" fill="#5B5B5B"/>
    <path d="M10.956 7.11876C11.4398 7.11876 11.8328 6.72572 11.8328 6.24797C11.8328 5.76417 11.4398 5.37109 10.956 5.37109C10.4722 5.37109 10.0791 5.76417 10.0791 6.24797C10.0791 6.72572 10.4722 7.11876 10.956 7.11876Z" fill="#5B5B5B"/>
    <path d="M8.13159 7.11876C8.61535 7.11876 9.00845 6.72572 9.00845 6.24797C9.00845 5.76417 8.61535 5.37109 8.13159 5.37109C7.65384 5.37109 7.26074 5.76417 7.26074 6.24797C7.26074 6.72572 7.65384 7.11876 8.13159 7.11876Z" fill="#5B5B5B"/>
    <path d="M5.31388 7.11876C5.79767 7.11876 6.19075 6.72572 6.19075 6.24797C6.19075 5.76417 5.79162 5.37109 5.31388 5.37109C4.83009 5.37109 4.43701 5.76417 4.43701 6.24797C4.43701 6.72572 4.83009 7.11876 5.31388 7.11876Z" fill="#5B5B5B"/>
</svg>
