<?xml version="1.0" encoding="UTF-8"?>
<!DOCTYPE svg PUBLIC "-//W3C//DTD SVG 1.1//EN" "http://www.w3.org/Graphics/SVG/1.1/DTD/svg11.dtd">
<svg xmlns="http://www.w3.org/2000/svg" version="1.1" viewBox="0 0 1272 1273" width="24px" height="24px" style="shape-rendering:geometricPrecision; text-rendering:geometricPrecision; image-rendering:optimizeQuality; fill-rule:evenodd; clip-rule:evenodd" xmlns:xlink="http://www.w3.org/1999/xlink">
<g><path style="opacity:0.993" fill="#a9a9a9" d="M 600.5,-0.5 C 623.5,-0.5 646.5,-0.5 669.5,-0.5C 844.265,13.1379 990.765,84.1379 1109,212.5C 1206.78,323.119 1260.95,452.453 1271.5,600.5C 1271.5,623.833 1271.5,647.167 1271.5,670.5C 1255.97,863.748 1172.64,1020.25 1021.5,1140C 908.414,1225.51 780.747,1269.67 638.5,1272.5C 636.5,1272.5 634.5,1272.5 632.5,1272.5C 443.487,1267.26 285.654,1194.93 159,1055.5C 63.2488,945.607 10.0821,817.607 -0.5,671.5C -0.5,647.833 -0.5,624.167 -0.5,600.5C 14.1433,416.706 91.1433,265.206 230.5,146C 337.932,57.8933 461.266,9.05995 600.5,-0.5 Z M 608.5,91.5 C 778.376,87.0596 921.542,146.06 1038,268.5C 1151.54,398.5 1196.54,549.5 1173,721.5C 1143.09,888.638 1056.25,1016.47 912.5,1105C 775.895,1182.22 631.895,1199.88 480.5,1158C 326.71,1109.54 214.21,1013.04 143,868.5C 81.2586,731.064 74.9253,591.064 124,448.5C 177.132,309.369 270.632,207.202 404.5,142C 469.407,112.273 537.407,95.4396 608.5,91.5 Z"/></g>
<g><path style="opacity:0.989" fill="#a9a9a9" d="M 341.5,309.5 C 355.864,307.529 368.198,311.529 378.5,321.5C 435.485,380.985 492.651,440.318 550,499.5C 548.308,460.522 546.808,421.522 545.5,382.5C 545.667,373.5 545.833,364.5 546,355.5C 551.913,333.926 566.08,323.426 588.5,324C 609.343,327.845 620.843,340.345 623,361.5C 623.667,434.833 623.667,508.167 623,581.5C 623.105,605.182 611.605,619.015 588.5,623C 511.167,623.667 433.833,623.667 356.5,623C 330.902,615.655 320.735,598.822 326,572.5C 332.175,556.82 343.675,547.986 360.5,546C 367.333,545.833 374.167,545.667 381,545.5C 419.9,547.056 458.733,548.89 497.5,551C 437.622,492.156 377.455,433.656 317,375.5C 304.225,355.238 306.059,336.404 322.5,319C 328.378,314.727 334.712,311.561 341.5,309.5 Z"/></g>
<g><path style="opacity:0.992" fill="#a9a9a9" d="M 678.5,647.5 C 757.501,647.333 836.501,647.5 915.5,648C 938.708,655.579 948.208,671.412 944,695.5C 939.628,711.205 929.462,720.705 913.5,724C 905.5,724.167 897.5,724.333 889.5,724.5C 850.481,723.078 811.481,721.578 772.5,720C 833.304,778.47 893.804,837.304 954,896.5C 965.143,916.859 962.643,935.359 946.5,952C 930.282,963.822 913.615,964.488 896.5,954C 836.661,893.494 777.495,832.328 719,770.5C 721.093,810.434 722.926,850.434 724.5,890.5C 726.188,904.718 723.688,918.051 717,930.5C 700.266,948.688 681.433,951.188 660.5,938C 653.461,931.627 648.961,923.794 647,914.5C 646.333,837.167 646.333,759.833 647,682.5C 649.017,662.992 659.517,651.325 678.5,647.5 Z"/></g>
</svg>
