<svg width="36" height="36" viewBox="0 0 36 36" fill="none" xmlns="http://www.w3.org/2000/svg">
<path d="M0.5 12C0.5 5.64873 5.64873 0.5 12 0.5H24C30.3513 0.5 35.5 5.64873 35.5 12V24C35.5 30.3513 30.3513 35.5 24 35.5H12C5.64873 35.5 0.5 30.3513 0.5 24V12Z" stroke="#8BCF16"/>
<path d="M20.9579 9.71457L24.7001 13.3803C25.256 13.9305 25.4412 14.4879 25.4412 15.3668V21.1691C25.4412 22.6554 24.6705 23.4129 23.144 23.4129H21.8471V22.2624H23.0773C23.8479 22.2624 24.2481 21.8622 24.2481 21.1477V15.0381H20.78C19.9278 15.0381 19.5128 14.6451 19.5128 13.8162V10.1505H16.2374C15.4667 10.1505 15.0739 10.5578 15.0739 11.2652V12.5657H13.8809V11.2438C13.8809 9.75745 14.6515 9 16.1781 9H19.0163C19.8092 9 20.4317 9.19293 20.9579 9.71457ZM20.5873 13.6447C20.5873 13.8948 20.6911 14.002 20.9504 14.002H23.9369L20.5873 10.715V13.6447Z" fill="#8BCF16"/>
<path d="M10.2861 24.7355C10.2861 26.229 11.0494 26.9793 12.5834 26.9793H19.5492C21.0832 26.9793 21.8465 26.2219 21.8465 24.7355V19.1548C21.8465 18.2401 21.7353 17.8399 21.1424 17.254L17.0593 13.2452C16.4961 12.6879 16.0292 12.5664 15.1993 12.5664H12.5834C11.0568 12.5664 10.2861 13.3167 10.2861 14.8101V24.7355ZM11.4792 24.7141V14.8244C11.4792 14.1242 11.872 13.7169 12.6427 13.7169H15.0733V17.8614C15.0733 18.7617 15.5476 19.2119 16.4665 19.2119H20.6534V24.7141C20.6534 25.4287 20.2532 25.8288 19.4899 25.8288H12.6352C11.872 25.8288 11.4792 25.4287 11.4792 24.7141ZM16.6073 18.1329C16.3108 18.1329 16.1923 18.0186 16.1923 17.7327V13.9813L20.4237 18.1329H16.6073Z" fill="#8BCF16"/>
</svg>
