<svg width="18" height="18" viewBox="0 0 18 18" fill="#B5B5B5" xmlns="http://www.w3.org/2000/svg">
    <path d="M1.61596 8.13099H6.59849C7.51421 8.13099 8.04388 7.59233 8.04388 6.67662V1.70306C8.04388 1.23623 7.69376 0.868149 7.21795 0.868149C6.74213 0.868149 6.40099 1.22725 6.40099 1.70306V2.45717L6.58952 5.59033L4.21944 3.10356L1.46334 0.320518C1.31072 0.158923 1.10424 0.078125 0.888777 0.078125C0.377057 0.078125 0 0.419271 0 0.922015C0 1.15543 0.0897754 1.37987 0.251372 1.54147L3.01646 4.30655L5.50324 6.66764L2.37007 6.4881H1.61596C1.14014 6.4881 0.772069 6.82027 0.772069 7.30505C0.772069 7.78086 1.13117 8.13099 1.61596 8.13099ZM10.2254 17.2432C10.7012 17.2432 11.0424 16.8931 11.0424 16.4083V15.5554L10.8538 12.4312L13.224 14.918L16.0429 17.7549C16.1955 17.9165 16.393 17.9973 16.6175 17.9973C17.1201 17.9973 17.4972 17.6562 17.4972 17.1534C17.4972 16.92 17.4164 16.6956 17.2548 16.534L14.427 13.706L11.9311 11.345L15.0733 11.5245H15.9261C16.402 11.5245 16.7701 11.1923 16.7701 10.7166C16.7701 10.2317 16.411 9.89057 15.9261 9.89057H10.8449C9.92918 9.89057 9.39948 10.4203 9.39948 11.336V16.4083C9.39948 16.8841 9.74063 17.2432 10.2254 17.2432Z"/>
</svg>
