<svg width="16" height="19" viewBox="0 0 16 19" fill="none" xmlns="http://www.w3.org/2000/svg">
    <g clip-path="url(#clip0_1493_29513)">
        <path d="M1.47363 16.4199C1.99121 16.4199 2.24512 16.2246 2.43066 15.6777L3.69043 12.2304H9.45215L10.7119 15.6777C10.8974 16.2246 11.1513 16.4199 11.6592 16.4199C12.1767 16.4199 12.5088 16.1074 12.5088 15.6191C12.5088 15.4531 12.4795 15.2968 12.4013 15.0918L7.82129 2.89453C7.59668 2.29882 7.19629 1.99609 6.57129 1.99609C5.96582 1.99609 5.55566 2.28906 5.34082 2.88476L0.760742 15.1015C0.682617 15.3066 0.65332 15.4629 0.65332 15.6289C0.65332 16.1172 0.96582 16.4199 1.47363 16.4199ZM4.16894 10.7461L6.54199 4.17382H6.59082L8.96387 10.7461H4.16894Z" fill="#B5B5B5"/>
        <path d="M14.4913 8.30468C14.921 8.30468 15.2042 8.02148 15.2042 7.61132V0.931641C15.2042 0.443359 14.9112 0.140625 14.4327 0.140625C14.003 0.140625 13.7882 0.306641 13.505 0.501953L11.9425 1.57617C11.6593 1.76171 11.5518 1.93751 11.5518 2.14258C11.5518 2.47461 11.796 2.71874 12.0987 2.71874C12.294 2.71874 12.4112 2.66016 12.6065 2.52344L13.7491 1.76172H13.7784V7.61132C13.7784 8.02148 14.0714 8.30468 14.4913 8.30468Z" fill="#B5B5B5"/>
    </g>
    <defs>
        <clipPath id="clip0_1493_29513">
            <rect width="16" height="18.2949" fill="white"/>
        </clipPath>
    </defs>
</svg>
