<svg width="36" height="36" viewBox="0 0 36 36" fill="none" xmlns="http://www.w3.org/2000/svg">
<path d="M0.5 12C0.5 5.64873 5.64873 0.5 12 0.5H24C30.3513 0.5 35.5 5.64873 35.5 12V24C35.5 30.3513 30.3513 35.5 24 35.5H12C5.64873 35.5 0.5 30.3513 0.5 24V12Z" stroke="#8BCF16"/>
<g clip-path="url(#clip0_415_11900)">
<path d="M17.8262 9.69709C18.2799 9.69709 18.6563 9.31229 18.6563 8.84855C18.6563 8.38481 18.2799 8 17.8262 8C17.3726 8 16.9961 8.38481 16.9961 8.84855C16.9961 9.31229 17.3726 9.69709 17.8262 9.69709ZM20.5869 10.1608C21.0406 10.1608 21.417 9.77602 21.417 9.31229C21.417 8.84855 21.0406 8.46374 20.5869 8.46374C20.1332 8.46374 19.7567 8.84855 19.7567 9.31229C19.7567 9.77602 20.1332 10.1608 20.5869 10.1608ZM23.0965 11.4534C23.5502 11.4534 23.9266 11.0686 23.9266 10.6048C23.9266 10.1411 23.5502 9.75629 23.0965 9.75629C22.6429 9.75629 22.2664 10.1411 22.2664 10.6048C22.2664 11.0686 22.6429 11.4534 23.0965 11.4534ZM25.0753 13.4859C25.529 13.4859 25.9053 13.1011 25.9053 12.6374C25.9053 12.1737 25.529 11.7889 25.0753 11.7889C24.6216 11.7889 24.2451 12.1737 24.2451 12.6374C24.2451 13.1011 24.6216 13.4859 25.0753 13.4859ZM26.3398 16.0119C26.7934 16.0119 27.1698 15.627 27.1698 15.1633C27.1698 14.6996 26.7934 14.3148 26.3398 14.3148C25.8861 14.3148 25.5096 14.6996 25.5096 15.1633C25.5096 15.627 25.8861 16.0119 26.3398 16.0119ZM26.8127 18.8436C27.2664 18.8436 27.6428 18.4589 27.6428 17.9951C27.6428 17.5313 27.2664 17.1465 26.8127 17.1465C26.359 17.1465 25.9826 17.5313 25.9826 17.9951C25.9826 18.4589 26.359 18.8436 26.8127 18.8436ZM26.3398 21.6754C26.7934 21.6754 27.1698 21.2906 27.1698 20.8268C27.1698 20.3631 26.7934 19.9783 26.3398 19.9783C25.8861 19.9783 25.5096 20.3631 25.5096 20.8268C25.5096 21.2906 25.8861 21.6754 26.3398 21.6754ZM25.0753 24.2111C25.529 24.2111 25.9053 23.8264 25.9053 23.3626C25.9053 22.8989 25.529 22.514 25.0753 22.514C24.6216 22.514 24.2451 22.8989 24.2451 23.3626C24.2451 23.8264 24.6216 24.2111 25.0753 24.2111ZM23.0965 26.2339C23.5502 26.2339 23.9266 25.849 23.9266 25.3853C23.9266 24.9215 23.5502 24.5368 23.0965 24.5368C22.6429 24.5368 22.2664 24.9215 22.2664 25.3853C22.2664 25.849 22.6429 26.2339 23.0965 26.2339ZM20.5869 27.5264C21.0406 27.5264 21.417 27.1416 21.417 26.6778C21.417 26.2141 21.0406 25.8293 20.5869 25.8293C20.1332 25.8293 19.7567 26.2141 19.7567 26.6778C19.7567 27.1416 20.1332 27.5264 20.5869 27.5264ZM17.8262 27.9902C18.2799 27.9902 18.6563 27.6054 18.6563 27.1416C18.6563 26.6778 18.2799 26.2931 17.8262 26.2931C17.3726 26.2931 16.9961 26.6778 16.9961 27.1416C16.9961 27.6054 17.3726 27.9902 17.8262 27.9902ZM15.0656 27.5264C15.5193 27.5264 15.8957 27.1416 15.8957 26.6778C15.8957 26.2141 15.5193 25.8293 15.0656 25.8293C14.6023 25.8293 14.2355 26.2141 14.2355 26.6778C14.2355 27.1416 14.6023 27.5264 15.0656 27.5264ZM12.556 26.2339C13.0096 26.2339 13.3861 25.849 13.3861 25.3853C13.3861 24.9215 13.0096 24.5368 12.556 24.5368C12.0927 24.5368 11.7259 24.9215 11.7259 25.3853C11.7259 25.849 12.0927 26.2339 12.556 26.2339ZM10.5676 24.2111C11.0212 24.2111 11.3977 23.8264 11.3977 23.3626C11.3977 22.8989 11.0212 22.514 10.5676 22.514C10.1139 22.514 9.73745 22.8989 9.73745 23.3626C9.73745 23.8264 10.1139 24.2111 10.5676 24.2111ZM9.30309 21.6754C9.75675 21.6754 10.1332 21.2906 10.1332 20.8268C10.1332 20.3631 9.75675 19.9783 9.30309 19.9783C8.84942 19.9783 8.47297 20.3631 8.47297 20.8268C8.47297 21.2906 8.84942 21.6754 9.30309 21.6754ZM8.83012 18.8436C9.28378 18.8436 9.66023 18.4589 9.66023 17.9951C9.66023 17.5313 9.28378 17.1465 8.83012 17.1465C8.37645 17.1465 8 17.5313 8 17.9951C8 18.4589 8.37645 18.8436 8.83012 18.8436ZM9.30309 16.0119C9.75675 16.0119 10.1332 15.627 10.1332 15.1633C10.1332 14.6996 9.75675 14.3148 9.30309 14.3148C8.84942 14.3148 8.47297 14.6996 8.47297 15.1633C8.47297 15.627 8.84942 16.0119 9.30309 16.0119ZM10.5676 13.4859C11.0212 13.4859 11.3977 13.1011 11.3977 12.6374C11.3977 12.1737 11.0212 11.7889 10.5676 11.7889C10.1139 11.7889 9.73745 12.1737 9.73745 12.6374C9.73745 13.1011 10.1139 13.4859 10.5676 13.4859ZM12.556 11.4534C13.0096 11.4534 13.3861 11.0686 13.3861 10.6048C13.3861 10.1411 13.0096 9.75629 12.556 9.75629C12.0927 9.75629 11.7259 10.1411 11.7259 10.6048C11.7259 11.0686 12.0927 11.4534 12.556 11.4534ZM15.0656 10.1608C15.5193 10.1608 15.8957 9.77602 15.8957 9.31229C15.8957 8.84855 15.5193 8.46374 15.0656 8.46374C14.6023 8.46374 14.2355 8.84855 14.2355 9.31229C14.2355 9.77602 14.6023 10.1608 15.0656 10.1608Z" fill="#8BCF16"/>
<path d="M17.8362 22.9673C18.0293 22.9673 18.1934 22.9081 18.3961 22.7106L21.5718 19.5731C21.7166 19.4251 21.8033 19.2671 21.8033 19.0501C21.8033 18.6456 21.4945 18.3594 21.0988 18.3594C20.9057 18.3594 20.7126 18.4383 20.5775 18.5963L19.1007 20.1946L18.5409 20.8064L18.5988 19.3263V13.7812C18.5988 13.3668 18.2513 13.0215 17.8362 13.0215C17.4212 13.0215 17.064 13.3668 17.064 13.7812V19.3263L17.1219 20.8064L16.5621 20.1946L15.0852 18.5963C14.9501 18.4383 14.7474 18.3594 14.5544 18.3594C14.1586 18.3594 13.8594 18.6456 13.8594 19.0501C13.8594 19.2671 13.9462 19.4251 14.091 19.5731L17.2764 22.7106C17.4694 22.9081 17.6335 22.9673 17.8362 22.9673Z" fill="#8BCF16"/>
</g>
<defs>
<clipPath id="clip0_415_11900">
<rect width="20" height="20" fill="white" transform="translate(8 8)"/>
</clipPath>
</defs>
</svg>
