<?xml version="1.0" encoding="UTF-8"?>
<!DOCTYPE svg PUBLIC "-//W3C//DTD SVG 1.1//EN" "http://www.w3.org/Graphics/SVG/1.1/DTD/svg11.dtd">
<svg xmlns="http://www.w3.org/2000/svg" version="1.1" viewBox="0 0 858 1260" width="16px" height="24px" style="shape-rendering:geometricPrecision; text-rendering:geometricPrecision; image-rendering:optimizeQuality; fill-rule:evenodd; clip-rule:evenodd" xmlns:xlink="http://www.w3.org/1999/xlink">
<g><path style="opacity:0.999" fill="#54bdef" d="M 415.5,-0.5 C 424.167,-0.5 432.833,-0.5 441.5,-0.5C 462.147,5.09274 478.647,16.7594 491,34.5C 544.331,115.154 596.664,196.487 648,278.5C 689.57,345.62 727.57,414.954 762,486.5C 785.714,537.6 806.381,589.934 824,643.5C 841.017,696.092 852.184,749.759 857.5,804.5C 857.5,829.5 857.5,854.5 857.5,879.5C 852.269,958.363 827.436,1030.36 783,1095.5C 724.673,1173.29 647.84,1223.46 552.5,1246C 522.682,1252.71 492.682,1257.21 462.5,1259.5C 439.833,1259.5 417.167,1259.5 394.5,1259.5C 320.865,1255.34 251.865,1235.17 187.5,1199C 84.5504,1134.39 23.7171,1041.56 5,920.5C 2.75873,904.728 0.925399,889.062 -0.5,873.5C -0.5,852.5 -0.5,831.5 -0.5,810.5C 6.55689,735.598 23.7236,662.931 51,592.5C 84.4541,504.594 125.121,420.261 173,339.5C 236.253,233.971 302.253,130.305 371,28.5C 382.883,14.0829 397.716,4.41626 415.5,-0.5 Z"/></g>
</svg>
