<?xml version="1.0" encoding="UTF-8"?>
<!DOCTYPE svg PUBLIC "-//W3C//DTD SVG 1.1//EN" "http://www.w3.org/Graphics/SVG/1.1/DTD/svg11.dtd">
<svg xmlns="http://www.w3.org/2000/svg" version="1.1" width="24px" height="24px" viewBox="0 0 1272 1273" style="shape-rendering:geometricPrecision; text-rendering:geometricPrecision; image-rendering:optimizeQuality; fill-rule:evenodd; clip-rule:evenodd" xmlns:xlink="http://www.w3.org/1999/xlink">
<g><path style="opacity:0.994" fill="#7f7f7f" d="M 600.5,-0.5 C 623.5,-0.5 646.5,-0.5 669.5,-0.5C 844.265,13.1379 990.765,84.1379 1109,212.5C 1206.78,323.119 1260.95,452.453 1271.5,600.5C 1271.5,623.833 1271.5,647.167 1271.5,670.5C 1255.97,863.748 1172.64,1020.25 1021.5,1140C 908.414,1225.51 780.747,1269.67 638.5,1272.5C 636.5,1272.5 634.5,1272.5 632.5,1272.5C 443.487,1267.26 285.654,1194.93 159,1055.5C 63.2488,945.607 10.0821,817.607 -0.5,671.5C -0.5,647.833 -0.5,624.167 -0.5,600.5C 14.1433,416.706 91.1433,265.206 230.5,146C 337.932,57.8933 461.266,9.05995 600.5,-0.5 Z M 953.5,175.5 C 1077.78,263.437 1155.62,382.437 1187,532.5C 1215.97,707.831 1173.97,863.497 1061,999.5C 940.106,1135.33 788.273,1200.83 605.5,1196C 456.162,1185.16 329.996,1126 227,1018.5C 97.7948,875.141 51.1281,708.141 87,517.5C 104.524,439.472 136.857,368.472 184,304.5C 183.636,331.042 188.969,356.376 200,380.5C 213.523,408 230.189,433.333 250,456.5C 263.104,471.606 276.937,486.106 291.5,500C 338.979,541.902 386.646,583.569 434.5,625C 444.338,632.653 450.671,642.486 453.5,654.5C 452.774,658.522 451.941,662.522 451,666.5C 445.467,679.899 439.134,692.899 432,705.5C 420.821,734.911 424.154,762.578 442,788.5C 447.092,795.596 452.926,802.096 459.5,808C 499.5,838 539.5,868 579.5,898C 587.902,904.726 594.402,912.893 599,922.5C 600.51,934.576 599.843,946.576 597,958.5C 590.463,979.779 584.129,1001.11 578,1022.5C 572.75,1045.4 578.083,1065.4 594,1082.5C 608.154,1097.66 625.321,1107.83 645.5,1113C 658.965,1115.96 671.965,1114.63 684.5,1109C 702.552,1099.65 719.219,1088.31 734.5,1075C 762.376,1049.46 788.543,1022.29 813,993.5C 849.692,949.126 882.692,902.126 912,852.5C 928.425,823.983 942.425,794.316 954,763.5C 959.23,748.248 962.396,732.582 963.5,716.5C 961.899,698.964 956.066,682.964 946,668.5C 904.925,610.086 851.425,567.253 785.5,540C 774.131,536.121 762.464,534.454 750.5,535C 742.586,536.527 734.92,538.86 727.5,542C 709.5,551.333 691.5,560.667 673.5,570C 662.625,575.427 651.125,578.594 639,579.5C 627.485,578.217 616.651,574.717 606.5,569C 577.382,552.555 552.548,531.055 532,504.5C 528.159,498.822 524.826,492.822 522,486.5C 518.18,466.329 526.347,453.829 546.5,449C 555.594,447.601 564.261,448.935 572.5,453C 590.16,462.495 607.493,472.495 624.5,483C 639.464,491.818 655.464,497.818 672.5,501C 703.952,504.865 726.452,492.698 740,464.5C 749.285,441.845 748.618,419.511 738,397.5C 731.464,384.922 724.297,372.755 716.5,361C 772.989,334.278 825.989,302.278 875.5,265C 900.782,244.72 922.949,221.553 942,195.5C 946.098,188.969 949.931,182.302 953.5,175.5 Z"/></g>
</svg>
