<?xml version="1.0" encoding="UTF-8"?>
<!DOCTYPE svg PUBLIC "-//W3C//DTD SVG 1.1//EN" "http://www.w3.org/Graphics/SVG/1.1/DTD/svg11.dtd">
<svg xmlns="http://www.w3.org/2000/svg" version="1.1" width="12px" height="16px" viewBox="0 0 773 1104" style="shape-rendering:geometricPrecision; text-rendering:geometricPrecision; image-rendering:optimizeQuality; fill-rule:evenodd; clip-rule:evenodd" xmlns:xlink="http://www.w3.org/1999/xlink">
<g><path style="opacity:0.991" fill="#00000" d="M 772.5,72.5 C 772.5,78.8333 772.5,85.1667 772.5,91.5C 768.453,107.709 758.12,117.209 741.5,120C 734.833,120.667 728.167,120.667 721.5,120C 683.034,113.767 644.368,111.767 605.5,114C 550.299,120.866 512.133,150.033 491,201.5C 480.558,227.932 473.558,255.266 470,283.5C 460.971,348.533 451.805,413.533 442.5,478.5C 537.853,478.024 633.186,478.524 728.5,480C 753.743,487.282 764.909,504.116 762,530.5C 757.483,550.684 744.983,562.184 724.5,565C 626.501,565.5 528.501,565.667 430.5,565.5C 415.808,670.508 400.975,775.508 386,880.5C 377.881,933.91 357.548,981.91 325,1024.5C 291.483,1063.52 249.317,1088.02 198.5,1098C 186.082,1100.26 173.748,1102.09 161.5,1103.5C 142.5,1103.5 123.5,1103.5 104.5,1103.5C 80.7008,1102.14 57.3674,1097.64 34.5,1090C 23.5244,1085.6 14.0244,1079.1 6,1070.5C 3.25995,1066.35 1.09328,1062.02 -0.5,1057.5C -0.5,1051.17 -0.5,1044.83 -0.5,1038.5C 4.11541,1021.06 15.4487,1011.23 33.5,1009C 40.856,1008.56 48.1893,1008.89 55.5,1010C 92.9216,1016.86 130.588,1018.86 168.5,1016C 221.117,1009.05 257.95,981.216 279,932.5C 289.113,908.052 296.113,882.719 300,856.5C 313.467,759.567 327.3,662.734 341.5,566C 258.136,565.984 174.803,565.317 91.5,564C 67.5868,556.69 56.7535,540.523 59,515.5C 64.0286,492.144 78.5286,479.977 102.5,479C 186.166,478.5 269.833,478.333 353.5,478.5C 363.525,406.157 373.692,333.824 384,261.5C 389.648,219.558 402.315,179.891 422,142.5C 465.261,69.4155 529.761,30.9155 615.5,27C 652.292,24.7468 688.625,27.7468 724.5,36C 740.69,39.8404 754.523,47.6737 766,59.5C 768.74,63.6467 770.907,67.98 772.5,72.5 Z"/></g>
</svg>
