<svg width="30" height="30" viewBox="0 0 30 30" fill="none" xmlns="http://www.w3.org/2000/svg">
    <g clip-path="url(#clip0_1493_29519)">
        <path d="M7.38574 21.873C7.90332 21.873 8.15723 21.6777 8.34277 21.1308L9.60254 17.6835H15.3643L16.624 21.1308C16.8095 21.6777 17.0634 21.873 17.5713 21.873C18.0888 21.873 18.4209 21.5605 18.4209 21.0722C18.4209 20.9062 18.3916 20.75 18.3134 20.5449L13.7334 8.34766C13.5088 7.75196 13.1084 7.44922 12.4834 7.44922C11.8779 7.44922 11.4678 7.74219 11.2529 8.33789L6.67285 20.5546C6.59473 20.7597 6.56543 20.916 6.56543 21.082C6.56543 21.5703 6.87793 21.873 7.38574 21.873ZM10.081 16.1992L12.4541 9.62696H12.5029L14.876 16.1992H10.081Z" fill="#B5B5B5"/>
        <path d="M23.206 24.3457C23.6455 24.3457 23.9287 24.0625 23.9287 23.6523V16.9727C23.9287 16.4844 23.6259 16.1914 23.1474 16.1914C22.7177 16.1914 22.5029 16.3477 22.2197 16.5527L20.6572 17.6172C20.3838 17.8125 20.2666 17.9785 20.2666 18.1934C20.2666 18.5156 20.5107 18.7598 20.8134 18.7598C21.0088 18.7598 21.1357 18.7012 21.331 18.5645L22.4638 17.8027H22.4931V23.6523C22.4931 24.0625 22.7861 24.3457 23.206 24.3457Z" fill="#B5B5B5"/>
    </g>
    <defs>
        <clipPath id="clip0_1493_29519">
            <rect width="18.2898" height="19.457" fill="white" transform="translate(6 5)"/>
        </clipPath>
    </defs>
</svg>
