<svg width="22" height="20" viewBox="0 0 22 20" fill="none" xmlns="http://www.w3.org/2000/svg">
<path d="M11.0021 6.45093L7.54117 0.343215C7.65608 0.226218 7.78829 0.149479 7.9205 0.0978994C6.8999 0.433793 6.43161 1.57985 6.43161 1.57985L0.109106 12.7348C0.0201432 13.0845 -0.00457068 13.4003 0.00654963 13.6783H6.90732L11.0021 6.45093Z" fill="#34A853"/>
<path d="M11.0019 6.45093L15.0967 13.6783H21.9974C22.0085 13.4003 21.9838 13.0845 21.8949 12.7348L15.5724 1.57985C15.5724 1.57985 15.1028 0.433793 14.0835 0.0978994C14.2145 0.149479 14.3479 0.226218 14.4628 0.343215L11.0019 6.45093Z" fill="#FBBC05"/>
<path d="M11.0019 6.45118L14.4628 0.343461C14.3479 0.226465 14.2145 0.149725 14.0835 0.0981462C13.9328 0.0490832 13.7709 0.0163745 13.5954 0.00756836H13.4126H8.5913H8.40843C8.23421 0.0151165 8.07111 0.0478251 7.92037 0.0981462C7.7894 0.149725 7.65596 0.226465 7.54105 0.343461L11.0019 6.45118Z" fill="#188038"/>
<path d="M6.90843 13.6783L3.48709 19.7168C3.48709 19.7168 3.37341 19.6615 3.21896 19.547C3.70455 19.9207 4.17655 19.9999 4.17655 19.9999H17.6136C18.3549 19.9999 18.5094 19.7168 18.5094 19.7168C18.5119 19.7156 18.5131 19.7143 18.5156 19.7131L15.0967 13.6783H6.90843Z" fill="#4285F4"/>
<path d="M6.9087 13.6783H0.00793457C0.0425311 14.4986 0.398381 14.9779 0.398381 14.9779L0.657856 15.4282C0.67639 15.4547 0.687509 15.4698 0.687509 15.4698L1.25217 16.4611L2.51989 18.6677C2.55695 18.757 2.6002 18.8387 2.64592 18.9167C2.66322 18.9432 2.67928 18.9721 2.69781 18.9973C2.70275 19.0048 2.7077 19.0124 2.71264 19.0199C2.86956 19.2413 3.04501 19.4124 3.22047 19.547C3.37492 19.6628 3.48859 19.7168 3.48859 19.7168L6.9087 13.6783Z" fill="#1967D2"/>
<path d="M15.0967 13.6783H21.9974C21.9628 14.4986 21.607 14.9779 21.607 14.9779L21.3475 15.4282C21.329 15.4547 21.3179 15.4698 21.3179 15.4698L20.7532 16.4611L19.4855 18.6677C19.4484 18.757 19.4052 18.8387 19.3595 18.9167C19.3422 18.9432 19.3261 18.9721 19.3076 18.9973C19.3026 19.0048 19.2977 19.0124 19.2927 19.0199C19.1358 19.2413 18.9604 19.4124 18.7849 19.547C18.6305 19.6628 18.5168 19.7168 18.5168 19.7168L15.0967 13.6783Z" fill="#EA4335"/>
</svg>
