<svg width="30" height="30" viewBox="0 0 30 30" fill="none" xmlns="http://www.w3.org/2000/svg">
    <g clip-path="url(#clip0_1493_29456)">
        <path d="M19.3558 6.13724C17.5577 6.62258 16.7434 7.86037 16.6945 10.1926L16.6652 11.5444L14.1147 11.5607L11.5642 11.577L11.5479 14.1275L11.5316 16.678L10.1799 16.7073C7.92252 16.7561 6.76617 17.4695 6.18636 19.1731C4.96812 22.7464 9.45347 25.5607 12.1505 22.9158C13.0528 22.0298 13.2255 21.5216 13.245 19.6747L13.258 18.4174L14.9681 18.4011L16.6782 18.3816V19.5412C16.6815 21.2838 16.8834 21.9679 17.6457 22.7724C20.5154 25.805 25.4079 22.463 23.5773 18.7203C22.8769 17.2871 21.6945 16.6943 19.5284 16.691H18.372V15.007V13.3197L19.6913 13.2903C21.4828 13.2447 22.1734 12.9972 22.9714 12.1112C25.4144 9.39457 22.8672 5.1861 19.3558 6.13724ZM21.0724 7.85711C22.5512 8.47601 22.3058 10.6073 21.1603 11.3457C20.9136 11.5048 20.6118 11.5444 20.3182 11.5444H19.5675H18.372V10.577C18.372 9.36526 18.4372 9.00369 18.7369 8.56721C19.2515 7.81802 20.2515 7.51509 21.0724 7.85711ZM16.6782 14.9972V16.6943L14.9681 16.6747L13.258 16.6584L13.2417 14.9809L13.2222 13.3034H14.9518H16.6782V14.9972ZM11.5316 19.5803V20.7757L11.3297 21.1796C10.4242 22.9907 7.73359 22.336 7.72708 20.3066C7.72382 19.7594 7.87692 19.3946 8.27757 18.9907C8.78245 18.4793 9.07236 18.4044 10.5056 18.3913L11.5316 18.3848V19.5803ZM21.0756 18.5705C21.7597 18.8799 22.1538 19.4434 22.2027 20.1796C22.3427 22.3588 19.4535 23.0526 18.5447 21.0591C18.4079 20.7594 18.2939 18.7464 18.3981 18.476C18.4665 18.2969 20.6424 18.3718 21.0756 18.5705Z" fill="#B5B5B5"/>
    </g>
    <defs>
        <clipPath id="clip0_1493_29456">
            <rect width="18" height="18" fill="white" transform="translate(6 6)"/>
        </clipPath>
    </defs>
</svg>
