<?xml version="1.0" encoding="UTF-8"?>
<!DOCTYPE svg PUBLIC "-//W3C//DTD SVG 1.1//EN" "http://www.w3.org/Graphics/SVG/1.1/DTD/svg11.dtd">
<svg xmlns="http://www.w3.org/2000/svg" version="1.1" width="17px" height="17px" viewBox="0 0 1272 1273" style="shape-rendering:geometricPrecision; text-rendering:geometricPrecision; image-rendering:optimizeQuality; fill-rule:evenodd; clip-rule:evenodd" xmlns:xlink="http://www.w3.org/1999/xlink">
<g><path style="opacity:0.496" fill="var(--icon-color-secondary)" d="M 600.5,-0.5 C 623.5,-0.5 646.5,-0.5 669.5,-0.5C 844.265,13.1379 990.765,84.1379 1109,212.5C 1206.78,323.119 1260.95,452.453 1271.5,600.5C 1271.5,623.833 1271.5,647.167 1271.5,670.5C 1255.97,863.748 1172.64,1020.25 1021.5,1140C 908.414,1225.51 780.747,1269.67 638.5,1272.5C 636.5,1272.5 634.5,1272.5 632.5,1272.5C 443.487,1267.26 285.654,1194.93 159,1055.5C 63.2488,945.607 10.0821,817.607 -0.5,671.5C -0.5,647.833 -0.5,624.167 -0.5,600.5C 14.1433,416.706 91.1433,265.206 230.5,146C 337.932,57.8933 461.266,9.05995 600.5,-0.5 Z M 608.5,91.5 C 778.376,87.0596 921.542,146.06 1038,268.5C 1151.54,398.5 1196.54,549.5 1173,721.5C 1143.09,888.638 1056.25,1016.47 912.5,1105C 775.895,1182.22 631.895,1199.88 480.5,1158C 326.71,1109.54 214.21,1013.04 143,868.5C 81.2586,731.064 74.9253,591.064 124,448.5C 177.132,309.369 270.632,207.202 404.5,142C 469.407,112.273 537.407,95.4396 608.5,91.5 Z"/></g>
<g><path style="opacity:0.837" fill="var(--icon-color-primary)" d="M 625.5,258.5 C 674.176,260.339 700.842,285.506 705.5,334C 701.246,379.754 676.246,404.587 630.5,408.5C 598.359,406.835 575.526,391.501 562,362.5C 551.81,333.145 556.477,306.478 576,282.5C 589.632,268.433 606.132,260.433 625.5,258.5 Z"/></g>
<g><path style="opacity:0.838" fill="var(--icon-color-primary)" d="M 526.5,518.5 C 570.835,518.333 615.168,518.5 659.5,519C 682.003,523.515 693.837,537.349 695,560.5C 695.5,676.166 695.667,791.833 695.5,907.5C 725.502,907.333 755.502,907.5 785.5,908C 809.856,912.351 821.69,926.851 821,951.5C 818.049,969.784 807.549,980.951 789.5,985C 697.833,985.667 606.167,985.667 514.5,985C 491.515,978.552 481.348,963.385 484,939.5C 488.29,921.105 499.79,910.605 518.5,908C 548.498,907.5 578.498,907.333 608.5,907.5C 608.5,803.833 608.5,700.167 608.5,596.5C 581.498,596.667 554.498,596.5 527.5,596C 511.077,593.717 499.91,584.883 494,569.5C 488.884,542.149 499.717,525.149 526.5,518.5 Z"/></g>
</svg>
