<?xml version="1.0" standalone="no"?>
<!DOCTYPE svg PUBLIC "-//W3C//DTD SVG 20010904//EN"
 "http://www.w3.org/TR/2001/REC-SVG-20010904/DTD/svg10.dtd">
<svg version="1.0" xmlns="http://www.w3.org/2000/svg"
 width="14px" height="16px" viewBox="0 0 512.000000 512.000000"
 preserveAspectRatio="xMidYMid meet">

<g transform="translate(0.000000,512.000000) scale(0.100000,-0.100000)"
fill="#000000" stroke="none">
<path d="M2035 4671 c-119 -54 -154 -229 -68 -332 57 -67 67 -69 476 -69 346
0 368 -1 363 -17 -3 -10 -211 -756 -461 -1658 -251 -902 -462 -1664 -471
-1693 l-15 -52 -320 0 c-343 0 -349 -1 -407 -54 -84 -75 -84 -237 0 -312 63
-58 8 -55 998 -54 814 0 913 1 949 16 158 63 162 314 6 385 -36 17 -73 19
-412 19 -218 0 -373 4 -373 9 0 13 939 3391 946 3402 3 5 148 9 330 9 279 0
329 2 357 16 79 40 117 103 117 194 0 66 -16 107 -59 153 -55 59 -12 57 -1005
57 -862 0 -913 -1 -951 -19z"/>
</g>
</svg>
