<?xml version="1.0" encoding="UTF-8"?>
<!DOCTYPE svg PUBLIC "-//W3C//DTD SVG 1.1//EN" "http://www.w3.org/Graphics/SVG/1.1/DTD/svg11.dtd">
<svg xmlns="http://www.w3.org/2000/svg" version="1.1" viewBox="0 0 1342 1182" width="36px" height="18px" style="shape-rendering:geometricPrecision; text-rendering:geometricPrecision; image-rendering:optimizeQuality; fill-rule:evenodd; clip-rule:evenodd" xmlns:xlink="http://www.w3.org/1999/xlink">
<g><path style="opacity:0.998" fill="#27cc40" d="M 1341.5,1074.5 C 1341.5,1083.5 1341.5,1092.5 1341.5,1101.5C 1337.84,1130.99 1323.84,1154.16 1299.5,1171C 1290.95,1176.01 1281.95,1179.51 1272.5,1181.5C 1264.5,1181.5 1256.5,1181.5 1248.5,1181.5C 1232.62,1177.96 1220.78,1168.96 1213,1154.5C 1200.53,1117.44 1187.87,1080.44 1175,1043.5C 1155.91,988.99 1130.25,937.99 1098,890.5C 1095.66,887.329 1093.16,884.329 1090.5,881.5C 1036.33,944.107 969.999,989.273 891.5,1017C 804.329,1046.17 714.995,1055.83 623.5,1046C 476.015,1034 347.015,979.663 236.5,883C 151.593,804.094 90.0934,709.594 52,599.5C 20.7859,508.271 3.28592,414.604 -0.5,318.5C -0.5,287.5 -0.5,256.5 -0.5,225.5C 1.38267,191.909 4.216,158.243 8,124.5C 10.3599,103.341 13.6933,82.3406 18,61.5C 26.6257,36.6045 43.4591,28.4378 68.5,37C 71.8333,39 75.1667,41 78.5,43C 129.069,100.631 192.402,135.965 268.5,149C 330.875,158.727 393.542,161.06 456.5,156C 505.204,151.73 553.871,147.063 602.5,142C 675.671,134.877 748.671,136.21 821.5,146C 896.972,156.708 966.972,182.042 1031.5,222C 1126.94,287.591 1183.44,378.091 1201,493.5C 1209.44,550.225 1210.1,606.891 1203,663.5C 1196.8,683.181 1183.97,689.348 1164.5,682C 1148.83,669 1133.17,656 1117.5,643C 1043.71,586.627 960.714,550.627 868.5,535C 845.943,530.92 823.276,527.587 800.5,525C 747.075,519.791 693.742,513.791 640.5,507C 581.411,499.317 525.745,481.317 473.5,453C 442.966,435.149 415.3,413.483 390.5,388C 381.7,381.015 372.867,380.849 364,387.5C 359.553,393.631 358.553,400.298 361,407.5C 386.969,467.465 428.802,512.632 486.5,543C 528.656,563.497 572.656,578.83 618.5,589C 684.722,602.87 751.055,616.204 817.5,629C 883.304,642.365 946.97,662.365 1008.5,689C 1083.81,723.076 1148.31,771.576 1202,834.5C 1243.74,881.971 1280.07,933.305 1311,988.5C 1325.68,1015.72 1335.85,1044.38 1341.5,1074.5 Z"/></g>
</svg>
