<svg width="15" height="15" viewBox="0 0 15 15" fill="none" xmlns="http://www.w3.org/2000/svg">
    <path d="M0.9375 4.0134C0.9375 6.43431 2.60983 8.03483 5.14987 8.03483H6.42779V14.26C6.42779 14.7104 6.70388 15 7.15351 15C7.59526 15 7.88714 14.7104 7.88714 14.26V1.48794H9.59894V14.26C9.59894 14.7104 9.87503 15 10.3167 15C10.7664 15 11.0582 14.7104 11.0582 14.26V1.48794H12.3914C12.841 1.48794 13.125 1.1823 13.125 0.731905C13.125 0.281501 12.841 0 12.3914 0H5.11044C2.59405 0 0.9375 1.59249 0.9375 4.0134Z" fill="#B5B5B5"/>
</svg>
