<?xml version="1.0" encoding="UTF-8"?>
<!DOCTYPE svg PUBLIC "-//W3C//DTD SVG 1.1//EN" "http://www.w3.org/Graphics/SVG/1.1/DTD/svg11.dtd">
<svg xmlns="http://www.w3.org/2000/svg" version="1.1" width="14px" height="14px" viewBox="0 0 1317 1330" style="shape-rendering:geometricPrecision; text-rendering:geometricPrecision; image-rendering:optimizeQuality; fill-rule:evenodd; clip-rule:evenodd" xmlns:xlink="http://www.w3.org/1999/xlink">
<g><path style="opacity:0.993" fill="#00000" d="M 930.5,-0.5 C 944.5,-0.5 958.5,-0.5 972.5,-0.5C 1053.7,7.16554 1124.7,37.9989 1185.5,92C 1234.5,135.004 1271,186.838 1295,247.5C 1307.12,280.604 1314.29,314.604 1316.5,349.5C 1316.5,359.167 1316.5,368.833 1316.5,378.5C 1312.3,444.59 1291.47,504.923 1254,559.5C 1242.72,575.048 1230.72,590.048 1218,604.5C 1149.33,673.167 1080.67,741.833 1012,810.5C 1017.84,773.534 1014.17,737.534 1001,702.5C 1000.33,701.167 1000.33,699.833 1001,698.5C 1050.64,647.861 1100.64,597.528 1151,547.5C 1197.05,496.738 1221.21,436.904 1223.5,368C 1221.5,300.626 1198.33,241.793 1154,191.5C 1112.62,143.883 1061.12,112.717 999.5,98C 922.216,84.4888 852.216,101.155 789.5,148C 781.833,154.333 774.167,160.667 766.5,167C 687.973,245.194 609.806,323.694 532,402.5C 462.663,486.529 448.33,579.196 489,680.5C 540.978,786.686 626.478,840.52 745.5,842C 721.138,866.028 697.138,890.361 673.5,915C 594.77,909.877 528.27,879.043 474,822.5C 424.681,770.539 392.681,709.206 378,638.5C 362.624,543.012 382.957,456.012 439,377.5C 448.287,365.211 457.954,353.211 468,341.5C 550.5,259 633,176.5 715.5,94C 776.454,38.5317 848.12,7.03166 930.5,-0.5 Z"/></g>
<g><path style="opacity:0.992" fill="#00000" d="M -0.5,979.5 C -0.5,962.5 -0.5,945.5 -0.5,928.5C 8.53926,845.766 41.3726,774.099 98,713.5C 166.347,644.986 234.847,576.653 303.5,508.5C 299.568,535.399 300.402,562.399 306,589.5C 308.838,599.669 311.838,609.669 315,619.5C 262.667,672.5 210.333,725.5 158,778.5C 111.03,833.741 89.3631,897.741 93,970.5C 98.6652,1027.14 119.665,1077.14 156,1120.5C 194.597,1167.4 243.097,1199.57 301.5,1217C 380.078,1235.95 452.411,1222.28 518.5,1176C 525.833,1170.33 533.167,1164.67 540.5,1159C 622.333,1078.5 703.5,997.333 784,915.5C 850.128,835.515 865.794,746.515 831,648.5C 806.875,591.087 768.375,545.92 715.5,513C 688.236,498.023 659.236,488.023 628.5,483C 608.935,480.01 589.268,478.01 569.5,477C 593.862,452.972 617.862,428.639 641.5,404C 725.933,408.969 795.766,443.136 851,506.5C 895.912,556.992 924.912,615.659 938,682.5C 952.365,777.367 931.699,863.7 876,941.5C 862.855,959.427 848.522,976.427 833,992.5C 753.111,1073.06 672.611,1152.89 591.5,1232C 529.818,1284.99 458.151,1313.99 376.5,1319C 296.759,1320.42 224.759,1297.75 160.5,1251C 102.016,1207.86 57.5157,1153.36 27,1087.5C 12.1632,1052.82 2.99653,1016.82 -0.5,979.5 Z"/></g>
</svg>
