<svg width="30" height="30" viewBox="0 0 30 30" fill="none" xmlns="http://www.w3.org/2000/svg">
    <g clip-path="url(#clip0_1493_29526)">
        <path d="M14.9555 11.8594L13.9693 12.8677C14.9481 12.9498 15.5858 13.2411 16.0677 13.7266C17.3654 15.0337 17.358 16.8859 16.0752 18.178L13.6504 20.6128C12.3602 21.9124 10.5361 21.9199 9.23844 20.6202C7.9408 19.3058 7.94821 17.4684 9.23844 16.1688L10.6918 14.705C10.4842 14.2345 10.4323 13.6743 10.5138 13.1888L8.33379 15.3772C6.56158 17.1697 6.54675 19.7091 8.34121 21.5165C10.1431 23.3315 12.6642 23.3165 14.4364 21.5314L16.9724 18.9696C18.752 17.1772 18.7669 14.6378 16.965 12.8303C16.4978 12.3598 15.9046 12.0237 14.9555 11.8594ZM14.7702 18.0136L15.7563 17.0054C14.7775 16.9307 14.1398 16.6319 13.6579 16.1464C12.3602 14.8394 12.3676 12.9872 13.6504 11.6951L16.0677 9.26024C17.3654 7.96068 19.1896 7.95321 20.4872 9.26024C21.7848 10.5673 21.77 12.4121 20.4872 13.7042L19.0338 15.168C19.2414 15.646 19.2859 16.1988 19.2118 16.6843L21.3919 14.4959C23.164 12.7034 23.1789 10.1714 21.3844 8.35652C19.5825 6.5416 17.0614 6.55654 15.2818 8.34905L12.7532 10.9034C10.9736 12.6959 10.9587 15.2353 12.7606 17.0427C13.2278 17.5132 13.821 17.8494 14.7702 18.0136Z" fill="#B5B5B5"/>
    </g>
    <defs>
        <clipPath id="clip0_1493_29526">
            <rect width="16" height="16" fill="white" transform="translate(7 7)"/>
        </clipPath>
    </defs>
</svg>
