<svg width="36" height="36" viewBox="0 0 36 36" fill="none" xmlns="http://www.w3.org/2000/svg">
<path d="M0.5 18C0.5 8.33502 8.33502 0.5 18 0.5C27.665 0.5 35.5 8.33502 35.5 18C35.5 27.665 27.665 35.5 18 35.5C8.33502 35.5 0.5 27.665 0.5 18Z" stroke="#DDDDDD"/>
<g clip-path="url(#clip0_415_11898)">
<path d="M24.3778 23.5556C24.6551 23.7397 24.9998 23.6734 25.2021 23.3936C26.1611 22.0973 26.723 20.3148 26.723 18.4955C26.723 16.6763 26.1685 14.8791 25.2021 13.5975C24.9998 13.3176 24.6551 13.2513 24.3778 13.4355C24.1007 13.6196 24.0557 13.9658 24.273 14.2678C25.0897 15.4021 25.5617 16.9267 25.5617 18.4955C25.5617 20.0644 25.0746 21.5743 24.273 22.7234C24.0632 23.0253 24.1007 23.3715 24.3778 23.5556Z" fill="#B5B5B5"/>
<path d="M21.6058 21.6349C21.853 21.8043 22.2052 21.7528 22.4075 21.4655C22.9844 20.7216 23.329 19.6242 23.329 18.4973C23.329 17.3704 22.9844 16.2803 22.4075 15.529C22.2052 15.2417 21.853 15.1828 21.6058 15.3596C21.2986 15.5658 21.2537 15.9341 21.4859 16.2361C21.9205 16.8253 22.1677 17.6429 22.1677 18.4973C22.1677 19.3517 21.9129 20.1619 21.4859 20.7584C21.2611 21.0678 21.2986 21.4213 21.6058 21.6349Z" fill="#B5B5B5"/>
<path d="M11.5209 21.4945H13.6712C13.7387 21.4945 13.7986 21.5166 13.851 21.5608L17.2301 24.5364C17.5897 24.8531 17.8669 25.0004 18.2266 25.0004C18.7061 25.0004 19.0732 24.6543 19.0732 24.1756V12.8769C19.0732 12.3982 18.7061 12.0078 18.2115 12.0078C17.8519 12.0078 17.6197 12.1699 17.2301 12.516L13.851 15.4622C13.7986 15.5064 13.7387 15.5285 13.6712 15.5285H11.5209C10.502 15.5285 10 16.0367 10 17.1047V19.9257C10 20.9936 10.5095 21.4945 11.5209 21.4945ZM11.5734 20.4192C11.2962 20.4192 11.1688 20.294 11.1688 20.0214V17.009C11.1688 16.7291 11.2962 16.6039 11.5734 16.6039H13.9709C14.1657 16.6039 14.3156 16.567 14.4879 16.4124L17.6796 13.5619C17.7171 13.5251 17.7545 13.503 17.807 13.503C17.8594 13.503 17.9043 13.5398 17.9043 13.6061V23.3948C17.9043 23.4611 17.8594 23.5053 17.807 23.5053C17.7695 23.5053 17.7246 23.4832 17.6796 23.4464L14.4879 20.6106C14.3156 20.4633 14.1657 20.4192 13.9709 20.4192H11.5734Z" fill="#B5B5B5"/>
</g>
<defs>
<clipPath id="clip0_415_11898">
<rect width="17" height="13" fill="white" transform="translate(10 12)"/>
</clipPath>
</defs>
</svg>
