<svg width="15" height="15" viewBox="0 0 15 15" fill="none" xmlns="http://www.w3.org/2000/svg">
    <path d="M15 3.97293V9.1411C15 11.1179 13.9111 12.2245 11.883 12.2245H7.28221L4.82533 14.451C4.50545 14.7479 4.30808 14.8828 4.04266 14.8828C3.65472 14.8828 3.43694 14.6062 3.43694 14.1878V12.2245H3.11707C1.08893 12.2245 0 11.1247 0 9.1411V3.97293C0 1.98932 1.08893 0.882812 3.11707 0.882812H11.883C13.9111 0.882812 15 1.99606 15 3.97293ZM4.11072 5.8216C4.11072 6.611 4.60754 7.22499 5.40382 7.22499C5.69647 7.22499 5.98912 7.17773 6.17288 6.94835H6.22733C5.9687 7.52186 5.43105 7.89294 4.97505 8.0144C4.70963 8.08183 4.63476 8.18981 4.63476 8.35846C4.63476 8.53388 4.78449 8.68235 4.98186 8.68235C5.68966 8.68235 7.1121 7.84568 7.1121 6.07798C7.1121 5.13341 6.49956 4.41149 5.58758 4.41149C4.74366 4.41149 4.11072 4.99172 4.11072 5.8216ZM7.90156 5.8216C7.90156 6.611 8.39839 7.22499 9.18786 7.22499C9.48733 7.22499 9.77996 7.17773 9.96374 6.94835H10.0182C9.75954 7.52186 9.22187 7.89294 8.75912 8.0144C8.50725 8.08183 8.42557 8.18981 8.42557 8.35846C8.42557 8.53388 8.57534 8.68235 8.77271 8.68235C9.4805 8.68235 10.9029 7.84568 10.9029 6.07798C10.9029 5.13341 10.2836 4.41149 9.37164 4.41149C8.52767 4.41149 7.90156 4.99172 7.90156 5.8216Z" fill="#B5B5B5"/>
</svg>
