<svg width="16" height="16" viewBox="0 0 16 16" fill="none" xmlns="http://www.w3.org/2000/svg">
    <path d="M13.4373 3.81396V13.3225C13.4373 14.6589 12.7723 15.324 11.4551 15.324H6.98633C8.07511 15.1715 9.20639 14.9456 10.4703 14.595C11.7684 14.2241 12.3631 13.3929 12.3631 11.903V2.54147C12.3631 2.32452 12.3466 2.11983 12.3127 1.92969C13.0607 2.17918 13.4373 2.80828 13.4373 3.81396Z" fill="#B5B5B5"/>
    <path d="M1.87012 13.1244C1.87012 14.2371 2.56072 14.8125 3.74369 14.7422C5.89222 14.6271 7.79137 14.4289 10.2341 13.7575C11.1421 13.5017 11.4938 13.0221 11.4938 11.9031V2.54163C11.4938 1.26914 10.8096 0.648882 9.58183 0.936632C7.79137 1.33948 5.89222 1.6592 3.59023 1.79348C2.55433 1.85743 1.87012 2.44572 1.87012 3.60311V13.1244ZM2.89962 12.939V3.57753C2.89962 3.0404 3.23213 2.82938 3.71172 2.80381C5.9114 2.68871 7.77219 2.36899 9.52428 1.97253C10.119 1.83825 10.4642 2.14518 10.4642 2.72068V11.8647C10.4642 12.453 10.266 12.7152 9.77362 12.8431C7.77219 13.3994 5.9114 13.604 3.78845 13.7127C3.23213 13.7383 2.89962 13.4569 2.89962 12.939Z" fill="#B5B5B5"/>
    <path d="M4.30643 5.06786C6.11605 4.95276 7.57401 4.70338 9.06392 4.37087C9.35805 4.30692 9.42837 4.15985 9.42837 3.98081C9.42837 3.78258 9.27489 3.60993 8.99353 3.66748C7.57401 3.98081 6.11605 4.23658 4.30643 4.35168C4.05065 4.37087 3.93555 4.52433 3.93555 4.72256C3.93555 4.92718 4.08902 5.08065 4.30643 5.06786ZM4.30643 7.12684C6.11605 7.01179 7.57401 6.75597 9.06392 6.42988C9.35805 6.36593 9.42837 6.21886 9.42837 6.03982C9.42837 5.84158 9.27489 5.66894 8.99353 5.72649C7.57401 6.03982 6.11605 6.29559 4.30643 6.41069C4.05065 6.42987 3.93555 6.58336 3.93555 6.77515C3.93555 6.97977 4.08902 7.13967 4.30643 7.12684ZM4.30643 9.18589C6.11605 9.07078 7.57401 8.81502 9.06392 8.48887C9.35805 8.42496 9.42837 8.2779 9.42837 8.09881C9.42837 7.90061 9.27489 7.72794 8.99353 7.78549C7.57401 8.09881 6.11605 8.35457 4.30643 8.46968C4.05065 8.48887 3.93555 8.64235 3.93555 8.83421C3.93555 9.03883 4.08902 9.19866 4.30643 9.18589ZM4.30643 11.2385C5.35511 11.1809 6.0521 11.0786 6.74271 10.9699C6.95372 10.9316 7.06882 10.7653 7.06882 10.5991C7.06882 10.4072 6.91535 10.2218 6.62761 10.2729C6.01374 10.3688 5.33593 10.4648 4.30643 10.5223C4.05065 10.5415 3.93555 10.695 3.93555 10.8868C3.93555 11.0914 4.08902 11.2513 4.30643 11.2385Z" fill="#B5B5B5"/>
</svg>
