<svg width="14" height="13" viewBox="0 0 14 13" fill="none" xmlns="http://www.w3.org/2000/svg">
    <path d="M7.18761 1.06641C6.99792 1.38989 6.85746 1.74482 6.77544 2.1211H2.97364C2.43166 2.1211 1.80178 2.187 1.45753 2.53125C1.11327 2.8755 1.05468 3.49807 1.05468 4.04005V9.11577C1.05468 9.65043 1.11327 10.273 1.45753 10.6172C1.80178 10.9615 2.43166 11.0274 2.96632 11.0274H8.04937C8.58403 11.0274 9.21391 10.9615 9.55816 10.6172C9.90238 10.273 9.96097 9.65043 9.96097 9.11577V6.72371C10.1324 6.75218 10.3089 6.76466 10.4883 6.76466C10.6674 6.76466 10.8439 6.75173 11.0157 6.72227V8.95461C11.0157 9.89947 10.9424 10.7637 10.3272 11.3863C9.70462 12.0015 8.82571 12.0821 7.8882 12.0821H3.12745C2.18263 12.0821 1.31104 12.0015 0.688473 11.3863C0.0732303 10.7637 0 9.89947 0 8.95461V4.19386C0 3.25636 0.0732303 2.38476 0.688473 1.76221C1.31104 1.14697 2.18995 1.06641 3.12745 1.06641H7.18761Z" fill="#B5B5B5"/>
    <path d="M8.9429 9.5391C8.9429 9.76614 8.7671 9.94191 8.54006 9.94191H2.46824C2.24852 9.94191 2.06543 9.76614 2.06543 9.5391C2.06543 9.31934 2.24852 9.14357 2.46824 9.14357H8.54006C8.7671 9.14357 8.9429 9.31934 8.9429 9.5391ZM4.99512 3.87744V4.75635C4.99512 5.25439 4.65087 5.59864 4.15284 5.59864H2.90771C2.40965 5.59864 2.06543 5.25439 2.06543 4.75635V3.87744C2.06543 3.37938 2.40965 3.03516 2.90771 3.03516H4.15284C4.65087 3.03516 4.99512 3.37938 4.99512 3.87744Z" fill="#B5B5B5"/>
    <path d="M13.44 2.95899C13.44 4.57032 12.085 5.91067 10.4883 5.91067C8.86961 5.91067 7.5293 4.58497 7.5293 2.95899C7.5293 1.33301 8.86961 0 10.4883 0C12.1069 0 13.44 1.33301 13.44 2.95899ZM10.1074 1.50147V2.57814H9.03074C8.8037 2.57814 8.64989 2.72463 8.64989 2.95899C8.64989 3.18606 8.8037 3.33252 9.03074 3.33252H10.1074V4.40919C10.1074 4.64359 10.2539 4.79005 10.4883 4.79005C10.7153 4.79005 10.8618 4.64359 10.8618 4.40919V3.33252H11.9385C12.1729 3.33252 12.3194 3.18606 12.3194 2.95899C12.3194 2.72463 12.1729 2.57814 11.9385 2.57814H10.8618V1.50147C10.8618 1.27442 10.7153 1.12061 10.4883 1.12061C10.2539 1.12061 10.1074 1.27442 10.1074 1.50147Z" fill="#B5B5B5"/>
</svg>
