<svg width="30" height="30" viewBox="0 0 30 30" fill="none" xmlns="http://www.w3.org/2000/svg">
    <g clip-path="url(#clip0_1493_29495)">
        <path d="M8.55831 22.8443C9.66627 23.9942 11.1009 24.0089 12.1947 22.881C13.0683 21.9801 13.9134 19.9439 14.5597 18.9259L16.2785 20.7057C16.8041 21.255 17.4433 21.255 17.9404 20.7277L18.5512 20.0977C19.0697 19.5558 19.0626 18.9406 18.5299 18.3912L12.8836 12.5611C12.3438 12.0118 11.7401 12.0045 11.2217 12.5392L10.6109 13.169C10.0995 13.6964 10.0995 14.3336 10.6322 14.8829L12.3509 16.6554C11.3708 17.3219 9.40348 18.1935 8.52281 19.0943C7.43616 20.2222 7.44326 21.7091 8.55831 22.8443ZM10.4546 21.8922C9.96457 21.8922 9.57394 21.482 9.57394 20.984C9.57394 20.4859 9.96457 20.0831 10.4546 20.0831C10.9376 20.0831 11.3282 20.4859 11.3282 20.984C11.3282 21.482 10.9376 21.8922 10.4546 21.8922ZM19.3751 18.0543L22.1308 15.2125C22.9191 14.3995 22.8978 13.4327 22.0953 12.5904L21.733 12.2096C20.9944 13.1983 18.885 14.3556 18.4802 13.9381C18.4163 13.8721 18.4092 13.7403 18.5015 13.6378C19.3609 12.7516 19.922 11.8873 20.0498 10.4811L16.3992 6.70909C15.7245 6.01329 14.5526 6.24034 14.233 7.5587C13.7856 9.4337 13.3808 10.525 12.9404 11.4259L19.3751 18.0543Z" fill="#B5B5B5"/>
    </g>
    <defs>
        <clipPath id="clip0_1493_29495">
            <rect width="16" height="18" fill="white" transform="translate(7 6)"/>
        </clipPath>
    </defs>
</svg>
