<svg width="10" height="14" viewBox="0 0 10 14" fill="none" xmlns="http://www.w3.org/2000/svg">
<path d="M0.621135 14C0.983469 14 1.16078 13.8147 1.22246 13.5108L2.74889 6.04022L1.97797 6.64054H7.72907L6.95815 6.04022L8.48461 13.5108C8.54627 13.8147 8.72357 14 9.08592 14C9.60244 14 9.77975 13.659 9.69497 13.2588L8.25331 6.20327C8.16079 5.73635 7.7522 5.39544 7.28194 5.39544H2.43281C1.96255 5.39544 1.55396 5.73635 1.46144 6.20327L0.0198131 13.2588C-0.0649888 13.659 0.120033 14 0.621135 14ZM2.2632 5.99575H7.45154L5.53193 0.489147C5.4163 0.177872 5.20044 0 4.86894 0C4.52202 0 4.28303 0.177872 4.1751 0.489147L2.2632 5.99575Z" fill="#5B5B5B"/>
</svg>
