<?xml version="1.0" encoding="UTF-8"?>
<!DOCTYPE svg PUBLIC "-//W3C//DTD SVG 1.1//EN" "http://www.w3.org/Graphics/SVG/1.1/DTD/svg11.dtd">
<svg xmlns="http://www.w3.org/2000/svg" version="1.1" width="12px" height="12px" viewBox="0 0 1002 999" style="shape-rendering:geometricPrecision; text-rendering:geometricPrecision; image-rendering:optimizeQuality; fill-rule:evenodd; clip-rule:evenodd" xmlns:xlink="http://www.w3.org/1999/xlink">
<g><path style="opacity:0.994" fill="#646464" d="M 1001.5,69.5 C 1001.5,75.8333 1001.5,82.1667 1001.5,88.5C 998.327,100.843 992.493,111.843 984,121.5C 962.32,143.347 940.486,165.014 918.5,186.5C 884.167,152.833 850.167,118.833 816.5,84.5C 839.321,61.8461 862.321,39.3461 885.5,17C 912.518,-4.22417 938.852,-3.5575 964.5,19C 973.364,27.5298 981.864,36.3631 990,45.5C 995.218,52.9318 999.051,60.9318 1001.5,69.5 Z"/></g>
<g><path style="opacity:0.996" fill="#646464" d="M 23.5,998.5 C 19.5,998.5 15.5,998.5 11.5,998.5C 6.08671,995.422 2.08671,991.089 -0.5,985.5C -0.5,981.833 -0.5,978.167 -0.5,974.5C 20.4987,929.829 40.9987,884.829 61,839.5C 295.527,604.639 530.36,370.139 765.5,136C 766.167,135.333 766.833,135.333 767.5,136C 799.972,169.472 832.805,202.639 866,235.5C 866.667,236.167 866.667,236.833 866,237.5C 631.806,472.027 397.306,706.194 162.5,940C 115.863,959.038 69.5292,978.538 23.5,998.5 Z"/></g>
</svg>
