<svg width="22" height="19" viewBox="0 0 22 19" fill="none" xmlns="http://www.w3.org/2000/svg">
    <path d="M19.9444 16.2051C19.9444 16.6348 19.5928 16.9863 19.1631 16.9863H5.08203L6.66035 15.4141H19.1631C19.5928 15.4141 19.9444 15.7754 19.9444 16.2051Z" fill="#B5B5B5"/>
    <path d="M4.0945 16.0888L14.7586 5.44426L13.0399 3.72551L2.38552 14.37L1.44802 16.5478C1.36013 16.7821 1.60427 17.0556 1.83864 16.9579L4.0945 16.0888ZM15.6082 4.60441L16.5946 3.63762C17.1024 3.13957 17.1317 2.60246 16.6727 2.15324L16.3504 1.82121C15.9012 1.38176 15.3641 1.42082 14.8758 1.9091L13.8797 2.88566L15.6082 4.60441Z" fill="#B5B5B5"/>
</svg>
