<?xml version="1.0" encoding="UTF-8"?>
<!DOCTYPE svg PUBLIC "-//W3C//DTD SVG 1.1//EN" "http://www.w3.org/Graphics/SVG/1.1/DTD/svg11.dtd">
<svg xmlns="http://www.w3.org/2000/svg" version="1.1" width="24px" height="24px" viewBox="0 0 1272 1273" style="shape-rendering:geometricPrecision; text-rendering:geometricPrecision; image-rendering:optimizeQuality; fill-rule:evenodd; clip-rule:evenodd" xmlns:xlink="http://www.w3.org/1999/xlink">
<g><path style="opacity:0.998" fill="#0079ff" d="M 1271.5,601.5 C 1271.5,624.833 1271.5,648.167 1271.5,671.5C 1255.14,868.435 1169.14,1026.94 1013.5,1147C 911.594,1222.14 797.26,1263.98 670.5,1272.5C 646.833,1272.5 623.167,1272.5 599.5,1272.5C 406.686,1256.64 250.519,1173.31 131,1022.5C 52.3717,918.81 8.53833,801.81 -0.5,671.5C -0.5,647.833 -0.5,624.167 -0.5,600.5C 14.5287,416.6 91.8621,265.1 231.5,146C 382.619,24.9633 554.286,-20.37 746.5,10C 914.545,43.5521 1049.38,128.719 1151,265.5C 1222.97,365.89 1263.13,477.89 1271.5,601.5 Z M 405.5,295.5 C 426.089,292.884 442.923,299.551 456,315.5C 483.333,354.167 510.667,392.833 538,431.5C 548.433,444.536 554.6,459.369 556.5,476C 554.903,491.357 549.07,504.857 539,516.5C 527.333,528.833 515.667,541.167 504,553.5C 499.427,560.316 498.427,567.649 501,575.5C 511.94,595.052 524.606,613.386 539,630.5C 580.988,681.17 629.154,724.67 683.5,761C 693.04,765.973 702.373,765.64 711.5,760C 723.167,748.333 734.833,736.667 746.5,725C 770.249,704.045 795.582,702.045 822.5,719C 863.675,747.42 904.675,776.087 945.5,805C 970.391,825.065 976.558,849.898 964,879.5C 930.506,940.106 878.839,971.106 809,972.5C 768.077,970.811 728.91,961.644 691.5,945C 628.843,915.955 571.843,878.622 520.5,833C 458.602,778.796 405.102,717.629 360,649.5C 332.629,607.417 312.296,562.083 299,513.5C 289.549,477.221 289.215,440.888 298,404.5C 314.381,348.621 350.214,312.288 405.5,295.5 Z"/></g>
</svg>
