<svg width="16" height="16" viewBox="0 0 16 16" fill="none" xmlns="http://www.w3.org/2000/svg">
    <path d="M15.0647 11.6339L11.0964 7.99675C10.8025 7.7295 10.4484 7.59262 10.0877 7.59262C9.72025 7.59262 9.39291 7.71646 9.08555 7.98371L6.06597 10.6171L4.83006 9.52853C4.54947 9.28083 4.24216 9.15702 3.92818 9.15702C3.62755 9.15702 3.34029 9.27429 3.06638 9.52198L0.521085 11.7643C0.561168 12.9441 1.05553 13.5437 2.05094 13.5437H13.2476C14.4568 13.5437 15.0647 12.8854 15.0647 11.6339ZM2.0977 14H13.6551C15.058 14 15.7528 13.3287 15.7528 11.9859V4.02064C15.7528 2.67789 15.058 2 13.6551 2H2.0977C0.70146 2 0 2.67789 0 4.02064V11.9859C0 13.3287 0.70146 14 2.0977 14ZM2.11106 12.9505C1.44301 12.9505 1.07558 12.6051 1.07558 11.9272V4.0793C1.07558 3.40141 1.44301 3.04943 2.11106 3.04943H13.6417C14.3031 3.04943 14.6772 3.40141 14.6772 4.0793V11.9272C14.6772 12.6051 14.3031 12.9505 13.6417 12.9505H2.11106Z" fill="#B5B5B5"/>
    <path d="M4.97701 8.06096C5.83881 8.06096 6.54694 7.37004 6.54694 6.52267C6.54694 5.68182 5.83881 4.98438 4.97701 4.98438C4.10853 4.98438 3.40039 5.68182 3.40039 6.52267C3.40039 7.37004 4.10853 8.06096 4.97701 8.06096Z" fill="#B5B5B5"/>
</svg>
