<svg width="30" height="30" viewBox="0 0 30 30" fill="none" xmlns="http://www.w3.org/2000/svg">
    <g clip-path="url(#clip0_1493_29501)">
        <path d="M5.10938 13.3192C5.10938 15.5458 6.77929 17.3203 8.91309 17.3203C9.91673 17.3203 10.8698 16.9269 11.5698 16.1568H11.7975C11.3083 17.7388 9.82395 19.0613 7.98535 19.6055C7.71547 19.6892 7.52149 19.7645 7.40341 19.865C7.26847 19.9738 7.201 20.1077 7.201 20.3003C7.201 20.6518 7.46245 20.8945 7.85041 20.8945C8.12873 20.8945 8.32271 20.8443 8.6938 20.7271C9.84925 20.3505 10.9035 19.6892 11.7132 18.8437C12.8433 17.6719 13.5433 16.1066 13.5433 14.2483C13.5433 11.1094 11.536 9.29297 9.18297 9.29297C6.86364 9.29297 5.10938 11.0508 5.10938 13.3192ZM15.2385 13.3192C15.2385 15.5458 16.9 17.3203 19.0422 17.3203C20.0459 17.3203 20.9905 16.9269 21.699 16.1568H21.9182C21.4375 17.7388 19.9531 19.0613 18.1061 19.6055C17.8362 19.6892 17.6507 19.7645 17.5326 19.865C17.3976 19.9738 17.3217 20.1077 17.3217 20.3003C17.3217 20.6518 17.5916 20.8945 17.988 20.8945C18.2494 20.8945 18.4519 20.8443 18.8145 20.7271C19.9784 20.3505 21.0242 19.6892 21.8255 18.8437C22.9725 17.6719 23.6725 16.1066 23.6725 14.2483C23.6725 11.1094 21.6652 9.29297 19.3121 9.29297C16.9928 9.29297 15.2385 11.0508 15.2385 13.3192Z" fill="#B5B5B5"/>
    </g>
    <defs>
        <clipPath id="clip0_1493_29501">
            <rect width="19" height="12" fill="white" transform="translate(5 9)"/>
        </clipPath>
    </defs>
</svg>
