<svg width="16" height="16" viewBox="0 0 16 16" fill="none" xmlns="http://www.w3.org/2000/svg">
    <g clip-path="url(#clip0_1493_30034)">
        <path d="M7.80972 2C4.65242 2 1.96709 4.30314 1.37306 7.29804H0.502365C-0.0102866 7.29804 -0.132347 7.64799 0.144323 8.0386L1.59277 10.0976C1.82062 10.415 2.16238 10.415 2.38209 10.0976L3.83055 8.03047C4.09906 7.64799 3.96887 7.29804 3.46435 7.29804H2.63435C3.19583 4.96234 5.28713 3.24516 7.80972 3.24516C9.55111 3.2533 11.0891 4.05899 12.0493 5.33671C12.2771 5.63782 12.6189 5.72732 12.9281 5.54015C13.221 5.36111 13.3024 4.9542 13.0502 4.63681C11.8296 3.04984 9.92541 2 7.80972 2ZM7.80972 15.1352C10.967 15.1352 13.6523 12.8321 14.2545 9.83716H15.1171C15.6297 9.83716 15.7599 9.48721 15.4832 9.0966L14.0348 7.0376C13.7988 6.72022 13.4652 6.72022 13.2373 7.0376L11.7889 9.10473C11.5203 9.48721 11.6505 9.83716 12.1551 9.83716H12.9932C12.4317 12.1729 10.3404 13.8982 7.80972 13.8982C6.0683 13.89 4.53036 13.0762 3.57014 11.7985C3.35042 11.4974 3.00053 11.4079 2.69945 11.5951C2.39837 11.7741 2.32513 12.181 2.56925 12.4984C3.78985 14.0854 5.694 15.1352 7.80972 15.1352Z" fill="#B5B5B5"/>
        <path d="M7.80955 4.77344C7.48404 4.77344 7.22363 5.03386 7.22363 5.35939V8.97281C7.22363 9.12741 7.27246 9.26579 7.39452 9.42852L8.94062 11.4631C9.18474 11.7805 9.52651 11.8375 9.82758 11.634C10.0961 11.4468 10.1205 11.0887 9.90084 10.7876L7.72003 7.8253L8.39544 9.90871V5.35939C8.39544 5.03386 8.13502 4.77344 7.80955 4.77344Z" fill="#B5B5B5"/>
    </g>
    <defs>
        <clipPath id="clip0_1493_30034">
            <rect width="16" height="16" fill="white"/>
        </clipPath>
    </defs>
</svg>
