<svg width="16" height="16" viewBox="0 0 16 16" fill="none" xmlns="http://www.w3.org/2000/svg">
    <path d="M12.5869 13.9045H14.4567C15.3226 13.9045 15.7681 13.4844 15.7681 12.6504V3.26048C15.7681 2.42653 15.3226 2 14.4567 2H12.5869C11.7335 2 11.2881 2.42653 11.2881 3.26048V12.6504C11.2881 13.4844 11.7335 13.9045 12.5869 13.9045Z" fill="#B5B5B5"/>
    <path d="M6.94569 13.9011H8.81553C9.68144 13.9011 10.1207 13.4809 10.1207 12.647V5.11595C10.1207 4.282 9.68144 3.85547 8.81553 3.85547H6.94569C6.08612 3.85547 5.64062 4.282 5.64062 5.11595V12.647C5.64062 13.4809 6.08612 13.9011 6.94569 13.9011Z" fill="#B5B5B5"/>
    <path d="M1.3051 13.9079H3.16863C4.03452 13.9079 4.48001 13.4878 4.48001 12.6538V6.97532C4.48001 6.14137 4.03452 5.71484 3.16863 5.71484H1.3051C0.445491 5.71484 0 6.14137 0 6.97532V12.6538C0 13.4878 0.445491 13.9079 1.3051 13.9079Z" fill="#B5B5B5"/>
</svg>
