<svg width="16" height="15" viewBox="0 0 16 15" fill="none" xmlns="http://www.w3.org/2000/svg">
<path d="M10.3304 5.2348C10.4258 5.2348 10.5007 5.16665 10.5211 5.06443C10.8208 3.53107 11.0252 3.19713 12.6123 2.96542C12.7213 2.9518 12.7894 2.87001 12.7894 2.7746C12.7894 2.66557 12.7213 2.58378 12.6123 2.57016C11.0252 2.33845 10.7528 1.97044 10.5211 0.484785C10.5007 0.368931 10.4258 0.300781 10.3304 0.300781C10.2214 0.300781 10.1465 0.368931 10.126 0.47797C9.82637 1.9977 9.622 2.33845 8.04169 2.57016C7.92583 2.58378 7.85775 2.66557 7.85775 2.7746C7.85775 2.87001 7.92583 2.94498 8.04169 2.96542C9.622 3.19713 9.88761 3.53107 10.126 5.05761C10.1397 5.16665 10.2078 5.2348 10.3304 5.2348ZM2.73532 10.823C2.83749 10.823 2.90561 10.7549 2.91923 10.6595C3.12359 9.37828 3.12359 9.28288 4.51318 9.0648C4.60854 9.0512 4.67666 8.98985 4.67666 8.88762C4.67666 8.78538 4.60854 8.72404 4.51318 8.71043C3.12359 8.49236 3.12359 8.39696 2.91923 7.11572C2.90561 7.02032 2.83749 6.95217 2.73532 6.95217C2.63995 6.95217 2.57183 7.02032 2.55821 7.11572C2.35386 8.39696 2.35386 8.49236 0.964263 8.71043C0.868899 8.72404 0.800781 8.78538 0.800781 8.88762C0.800781 8.98985 0.868899 9.0512 0.964263 9.0648C2.35386 9.28288 2.35386 9.37828 2.55821 10.6595C2.57183 10.7549 2.63995 10.823 2.73532 10.823ZM5.01044 12.7448C5.09218 12.7448 5.14667 12.6835 5.16711 12.6018C5.28972 11.8453 5.25566 11.8112 6.12075 11.6545C6.20249 11.634 6.25699 11.5727 6.25699 11.4977C6.25699 11.4228 6.20249 11.3546 6.12075 11.341C5.26247 11.1842 5.30334 11.1638 5.16711 10.3869C5.14667 10.3119 5.08537 10.2506 5.01044 10.2506C4.9287 10.2506 4.8742 10.3119 4.85377 10.4006C4.69028 11.1638 4.7584 11.2047 3.90693 11.341C3.81838 11.3546 3.76389 11.4159 3.76389 11.4977C3.76389 11.5727 3.81838 11.634 3.90012 11.6545C4.7584 11.8112 4.69028 11.8453 4.85377 12.6018C4.8742 12.6835 4.9287 12.7448 5.01044 12.7448Z" fill="#9747FF"/>
<path d="M13.9399 13.5075C14.2328 13.2008 14.2328 12.7374 13.9331 12.4307L5.22769 3.71438C4.92797 3.40771 4.43071 3.40771 4.14461 3.71438C3.85171 4.02105 3.85171 4.48447 4.15143 4.79115L12.8569 13.5075C13.1565 13.8141 13.6538 13.8073 13.9399 13.5075ZM13.5448 13.1054C13.4495 13.2008 13.2996 13.2008 13.2042 13.1054L6.96468 6.86289L7.30526 6.52895L13.5448 12.7714C13.6402 12.8668 13.6402 13.01 13.5448 13.1054Z" fill="#9747FF"/>
</svg>
