<?xml version="1.0" encoding="UTF-8"?>
<!DOCTYPE svg PUBLIC "-//W3C//DTD SVG 1.1//EN" "http://www.w3.org/Graphics/SVG/1.1/DTD/svg11.dtd">
<svg xmlns="http://www.w3.org/2000/svg" version="1.1" width="16px" height="16px" viewBox="0 0 1272 1305" style="shape-rendering:geometricPrecision; text-rendering:geometricPrecision; image-rendering:optimizeQuality; fill-rule:evenodd; clip-rule:evenodd" xmlns:xlink="http://www.w3.org/1999/xlink">
<g><path style="opacity:0.999" fill="var(--icon-color-secondary)" d="M 1271.5,633.5 C 1271.5,656.833 1271.5,680.167 1271.5,703.5C 1255.14,900.435 1169.14,1058.94 1013.5,1179C 911.594,1254.14 797.26,1295.98 670.5,1304.5C 646.833,1304.5 623.167,1304.5 599.5,1304.5C 406.686,1288.64 250.519,1205.31 131,1054.5C 52.3717,950.81 8.53833,833.81 -0.5,703.5C -0.5,679.833 -0.5,656.167 -0.5,632.5C 11.4338,473.676 72.4338,337.343 182.5,223.5C 186.167,221.833 188.833,219.167 190.5,215.5C 328.112,83.4415 492.779,22.9415 684.5,34C 863.965,51.9698 1011.47,129.47 1127,266.5C 1213.87,373.232 1262.04,495.565 1271.5,633.5 Z M 914.5,321.5 C 943.31,320.81 956.477,334.81 954,363.5C 952.019,374.445 949.019,385.112 945,395.5C 863.667,608.167 782.333,820.833 701,1033.5C 695.107,1048.47 685.94,1060.97 673.5,1071C 650.542,1083.22 631.375,1079.06 616,1058.5C 608.432,1043.8 602.432,1028.46 598,1012.5C 577.869,945.773 557.536,879.106 537,812.5C 531.803,797.113 534.136,783.113 544,770.5C 669.565,637.024 794.898,503.357 920,369.5C 924.985,361.025 922.818,355.691 913.5,353.5C 911.058,354.036 908.725,354.869 906.5,356C 773.833,481.333 641.167,606.667 508.5,732C 495.265,742.761 480.598,745.094 464.5,739C 394.833,718 325.167,697 255.5,676C 240.066,671.974 225.732,665.64 212.5,657C 192.881,636.411 192.547,615.411 211.5,594C 219.657,587.083 228.657,581.416 238.5,577C 453.245,494.863 667.912,412.53 882.5,330C 893.05,326.198 903.716,323.365 914.5,321.5 Z"/></g>
<g><path style="opacity:0.69" fill="#1e1e1e" d="M 190.5,215.5 C 188.833,219.167 186.167,221.833 182.5,223.5C 184.833,220.5 187.5,217.833 190.5,215.5 Z"/></g>
</svg>
