<?xml version="1.0" encoding="UTF-8"?>
<!DOCTYPE svg PUBLIC "-//W3C//DTD SVG 1.1//EN" "http://www.w3.org/Graphics/SVG/1.1/DTD/svg11.dtd">
<svg xmlns="http://www.w3.org/2000/svg" version="1.1" width="15px" height="20px" viewBox="0 0 1157 1550" style="shape-rendering:geometricPrecision; text-rendering:geometricPrecision; image-rendering:optimizeQuality; fill-rule:evenodd; clip-rule:evenodd" xmlns:xlink="http://www.w3.org/1999/xlink">
<g><path style="opacity:0.984" fill="#adadad" d="M 536.5,-0.5 C 540.833,-0.5 545.167,-0.5 549.5,-0.5C 552.961,1.47542 555.127,4.47542 556,8.5C 559.564,30.322 563.898,51.9887 569,73.5C 574.332,96.8279 588.165,112.661 610.5,121C 635.392,128.579 660.725,134.245 686.5,138C 695.492,142.983 697.659,150.15 693,159.5C 691.59,160.787 690.09,161.954 688.5,163C 665.98,166.771 643.647,171.437 621.5,177C 595.024,182.95 577.857,198.783 570,224.5C 564.141,248.324 559.141,272.324 555,296.5C 549.56,303.808 542.726,305.308 534.5,301C 532.951,299.786 531.785,298.286 531,296.5C 527.412,279.228 524.079,261.894 521,244.5C 518.207,226.763 511.541,210.763 501,196.5C 490.376,187.269 478.209,180.769 464.5,177C 442.353,171.437 420.02,166.771 397.5,163C 390.192,157.56 388.692,150.726 393,142.5C 394.731,140.383 396.898,138.883 399.5,138C 424.209,134.325 448.542,128.992 472.5,122C 496.34,114.157 511.174,97.9906 517,73.5C 522.194,51.6715 526.527,29.6715 530,7.5C 531.305,4.03864 533.471,1.37197 536.5,-0.5 Z"/></g>
<g><path style="opacity:0.989" fill="#adadad" d="M -0.5,503.5 C -0.5,499.167 -0.5,494.833 -0.5,490.5C 2.37295,485.133 6.70629,481.3 12.5,479C 48.4474,472.611 84.114,464.944 119.5,456C 136.809,451.349 152.809,444.016 167.5,434C 183.361,419.786 193.861,402.286 199,381.5C 202.178,369.612 204.844,357.612 207,345.5C 210.761,321.508 214.427,297.508 218,273.5C 221.172,265.657 227.005,261.324 235.5,260.5C 243.388,261.021 249.222,264.688 253,271.5C 257.331,298.483 261.665,325.483 266,352.5C 269.457,375.335 276.457,397.002 287,417.5C 296.751,431.912 309.584,442.745 325.5,450C 343.616,457.196 362.282,462.53 381.5,466C 407.454,470.612 433.454,474.946 459.5,479C 472.111,485.067 475.611,494.567 470,507.5C 467.408,510.762 464.241,513.262 460.5,515C 423.556,521.722 386.889,529.722 350.5,539C 332.383,543.559 316.05,551.559 301.5,563C 288.179,576.346 279.012,592.179 274,610.5C 270.824,621.711 268.158,633.044 266,644.5C 261.665,670.848 257.332,697.181 253,723.5C 245.95,733.514 236.784,736.014 225.5,731C 220.766,727.699 217.933,723.199 217,717.5C 213.16,681.791 207.16,646.457 199,611.5C 191.775,579.18 172.941,556.68 142.5,544C 118.413,535.478 93.7468,529.145 68.5,525C 49.7917,521.882 31.1251,518.549 12.5,515C 6.05784,513.383 1.72451,509.55 -0.5,503.5 Z"/></g>
<g><path style="opacity:0.994" fill="#adadad" d="M 1156.5,934.5 C 1156.5,938.833 1156.5,943.167 1156.5,947.5C 1152.83,959.324 1144.83,966.491 1132.5,969C 1071.02,974.81 1010.02,983.81 949.5,996C 912.038,1003.71 876.372,1016.38 842.5,1034C 794.266,1062.57 760.766,1103.41 742,1156.5C 723.863,1208.84 711.197,1262.51 704,1317.5C 699.421,1349.13 695.087,1380.8 691,1412.5C 685.198,1429.49 673.365,1436.32 655.5,1433C 644.904,1429.4 638.071,1422.24 635,1411.5C 628.515,1360.59 620.515,1309.93 611,1259.5C 603.361,1219.25 591.695,1180.25 576,1142.5C 556.76,1097.93 526.26,1063.43 484.5,1039C 455.996,1023.61 425.996,1011.94 394.5,1004C 375.616,999.156 356.616,994.823 337.5,991C 288.329,982.249 238.996,974.583 189.5,968C 173.874,962.258 167.374,951.092 170,934.5C 174.351,919.899 184.184,912.399 199.5,912C 253.853,906.789 307.853,899.123 361.5,889C 398.117,882.014 433.45,871.014 467.5,856C 518.233,831.933 554.733,794.1 577,742.5C 594.304,700.621 606.638,657.288 614,612.5C 622.212,565.347 629.212,518.013 635,470.5C 641.566,451.133 654.732,444.299 674.5,450C 683.228,453.731 688.728,460.231 691,469.5C 697.175,520.723 704.841,571.723 714,622.5C 721.561,664.514 733.561,705.18 750,744.5C 775.251,801.084 816.751,840.584 874.5,863C 910.506,876.585 947.506,886.585 985.5,893C 1034.95,901.255 1084.62,907.922 1134.5,913C 1145.69,916.359 1153.02,923.526 1156.5,934.5 Z"/></g>
</svg>
