<svg width="11" height="14" viewBox="0 0 11 14" fill="none" xmlns="http://www.w3.org/2000/svg">
    <path d="M4.93516 2.76592C5.00749 2.76592 5.04645 2.72048 5.05757 2.65233C5.22451 1.73225 5.20781 1.68681 6.17604 1.51075C6.24276 1.49371 6.28732 1.45395 6.28732 1.38012C6.28732 1.31197 6.24276 1.26653 6.17604 1.25517C5.20781 1.07911 5.22451 1.03367 5.05757 0.11359C5.04645 0.045436 5.00749 0 4.93516 0C4.86282 0 4.82387 0.045436 4.81274 0.11359C4.64581 1.03367 4.6625 1.07911 3.69429 1.25517C3.62196 1.26653 3.58301 1.31197 3.58301 1.38012C3.58301 1.45395 3.62196 1.49371 3.69429 1.51075C4.6625 1.68681 4.64581 1.73225 4.81274 2.65233C4.82387 2.72048 4.86282 2.76592 4.93516 2.76592Z" fill="#5B5B5B"/>
    <path d="M2.2419 6.67222C2.34762 6.67222 2.41997 6.59842 2.43109 6.49618C2.63141 4.97973 2.68149 4.97973 4.21726 4.67873C4.31186 4.66169 4.38419 4.59353 4.38419 4.48562C4.38419 4.38339 4.31186 4.30956 4.21726 4.2982C2.68149 4.0767 2.62584 4.02558 2.43109 2.48643C2.41997 2.37853 2.34762 2.30469 2.2419 2.30469C2.14174 2.30469 2.06941 2.37853 2.05271 2.49211C1.87465 4.00854 1.79119 4.00286 0.266541 4.2982C0.171946 4.31524 0.0996094 4.38339 0.0996094 4.48562C0.0996094 4.59921 0.171946 4.66169 0.288799 4.67873C1.80231 4.92862 1.87465 4.96838 2.05271 6.48478C2.06941 6.59842 2.14174 6.67222 2.2419 6.67222Z" fill="#5B5B5B"/>
    <path d="M6.01495 12.9573C6.15962 12.9573 6.26532 12.8494 6.29312 12.6961C6.68822 9.58937 7.1167 9.1123 10.1326 8.77149C10.2884 8.75445 10.3941 8.64087 10.3941 8.4875C10.3941 8.33984 10.2884 8.22626 10.1326 8.20922C7.1167 7.86847 6.68822 7.3914 6.29312 4.27902C6.26532 4.12567 6.15962 4.02344 6.01495 4.02344C5.87028 4.02344 5.76453 4.12567 5.74227 4.27902C5.34719 7.3914 4.91318 7.86847 1.90283 8.20922C1.74147 8.22626 1.63574 8.33984 1.63574 8.4875C1.63574 8.64087 1.74147 8.75445 1.90283 8.77149C4.90761 9.17476 5.32494 9.58937 5.74227 12.6961C5.76453 12.8494 5.87028 12.9573 6.01495 12.9573Z" fill="#5B5B5B"/>
</svg>
