<?xml version="1.0" encoding="UTF-8"?>
<!DOCTYPE svg PUBLIC "-//W3C//DTD SVG 1.1//EN" "http://www.w3.org/Graphics/SVG/1.1/DTD/svg11.dtd">
<svg xmlns="http://www.w3.org/2000/svg" version="1.1" viewBox="0 0 1272 1273" width="24px" height="24px" style="shape-rendering:geometricPrecision; text-rendering:geometricPrecision; image-rendering:optimizeQuality; fill-rule:evenodd; clip-rule:evenodd" xmlns:xlink="http://www.w3.org/1999/xlink">
<g><path style="opacity:0.998" fill="#758795" d="M 600.5,-0.5 C 623.5,-0.5 646.5,-0.5 669.5,-0.5C 844.265,13.1379 990.765,84.1379 1109,212.5C 1206.78,323.119 1260.95,452.453 1271.5,600.5C 1271.5,623.833 1271.5,647.167 1271.5,670.5C 1255.97,863.748 1172.64,1020.25 1021.5,1140C 908.414,1225.51 780.747,1269.67 638.5,1272.5C 636.5,1272.5 634.5,1272.5 632.5,1272.5C 443.487,1267.26 285.654,1194.93 159,1055.5C 63.2488,945.607 10.0821,817.607 -0.5,671.5C -0.5,647.833 -0.5,624.167 -0.5,600.5C 14.1433,416.706 91.1433,265.206 230.5,146C 337.932,57.8933 461.266,9.05995 600.5,-0.5 Z M 608.5,91.5 C 778.376,87.0596 921.542,146.06 1038,268.5C 1151.54,398.5 1196.54,549.5 1173,721.5C 1143.09,888.638 1056.25,1016.47 912.5,1105C 775.895,1182.22 631.895,1199.88 480.5,1158C 326.71,1109.54 214.21,1013.04 143,868.5C 81.2586,731.064 74.9253,591.064 124,448.5C 177.132,309.369 270.632,207.202 404.5,142C 469.407,112.273 537.407,95.4396 608.5,91.5 Z"/></g>
<g><path style="opacity:0.992" fill="#758795" d="M 372.5,590.5 C 547.834,590.333 723.167,590.5 898.5,591C 930.508,594.003 945.675,611.503 944,643.5C 941.462,661.373 931.628,673.207 914.5,679C 909.286,680.637 903.953,681.637 898.5,682C 722.833,682.667 547.167,682.667 371.5,682C 336.719,678.223 321.885,659.056 327,624.5C 330.48,610.352 338.98,600.518 352.5,595C 359.163,592.831 365.829,591.331 372.5,590.5 Z"/></g>
</svg>
