<svg width="18" height="13" viewBox="0 0 18 13" fill="none" xmlns="http://www.w3.org/2000/svg">
    <path d="M0.337811 5.09126H17.0594V3.95438H0.337811V5.09126ZM0.337811 9.05267H17.0594V7.91584H0.337811V9.05267ZM8.07073 12.6823H9.2531V0.324824H8.07073V12.6823ZM2.30593 13H15.0105C16.5527 13 17.3165 12.2727 17.3165 10.818V2.18903C17.3165 0.73438 16.5527 0 15.0105 0H2.30593C0.771091 0 0 0.73438 0 2.18903V10.818C0 12.2727 0.771091 13 2.30593 13ZM2.32062 11.8631C1.58625 11.8631 1.18234 11.4889 1.18234 10.7545V2.25258C1.18234 1.5182 1.58625 1.13689 2.32062 1.13689H14.9959C15.7229 1.13689 16.1342 1.5182 16.1342 2.25258V10.7545C16.1342 11.4889 15.7229 11.8631 14.9959 11.8631H2.32062Z" fill="#8D8D8D"/>
</svg>
