<svg width="20" height="21" viewBox="0 0 20 21" fill="none" xmlns="http://www.w3.org/2000/svg">
    <path d="M1.33781 9.59126H18.0594V8.45438H1.33781V9.59126ZM1.33781 13.5527H18.0594V12.4158H1.33781V13.5527ZM9.07073 17.1823H10.2531V4.82482H9.07073V17.1823ZM3.30593 17.5H16.0105C17.5527 17.5 18.3165 16.7727 18.3165 15.318V6.68903C18.3165 5.23438 17.5527 4.5 16.0105 4.5H3.30593C1.77109 4.5 1 5.23438 1 6.68903V15.318C1 16.7727 1.77109 17.5 3.30593 17.5ZM3.32062 16.3631C2.58625 16.3631 2.18234 15.9889 2.18234 15.2545V6.75258C2.18234 6.0182 2.58625 5.63689 3.32062 5.63689H15.9959C16.7229 5.63689 17.1342 6.0182 17.1342 6.75258V15.2545C17.1342 15.9889 16.7229 16.3631 15.9959 16.3631H3.32062Z" fill="#5B5B5B"/>
</svg>
