<?xml version="1.0" encoding="UTF-8"?>
<!DOCTYPE svg PUBLIC "-//W3C//DTD SVG 1.1//EN" "http://www.w3.org/Graphics/SVG/1.1/DTD/svg11.dtd">
<svg xmlns="http://www.w3.org/2000/svg" version="1.1" width="13px" height="16px" viewBox="0 0 1210 1501" style="shape-rendering:geometricPrecision; text-rendering:geometricPrecision; image-rendering:optimizeQuality; fill-rule:evenodd; clip-rule:evenodd" xmlns:xlink="http://www.w3.org/1999/xlink">
<g><path style="opacity:0.991" fill="#00000" d="M 456.5,-0.5 C 555.167,-0.5 653.833,-0.5 752.5,-0.5C 787.19,3.22619 817.023,17.2262 842,41.5C 861.189,63.8956 872.189,89.8956 875,119.5C 875.5,159.165 875.667,198.832 875.5,238.5C 974.834,238.333 1074.17,238.5 1173.5,239C 1191.82,241.827 1203.82,251.993 1209.5,269.5C 1209.5,276.833 1209.5,284.167 1209.5,291.5C 1204.25,305.918 1194.25,315.418 1179.5,320C 1148.21,321.462 1116.87,321.962 1085.5,321.5C 1070.48,632.17 1055.31,942.837 1040,1253.5C 1037.48,1304.07 1015.65,1343.57 974.5,1372C 950.167,1386.33 923.834,1393.67 895.5,1394C 702.167,1394.67 508.833,1394.67 315.5,1394C 254.267,1393.35 210.1,1365.85 183,1311.5C 175.357,1293.26 171.024,1274.26 170,1254.5C 154.596,943.508 139.429,632.508 124.5,321.5C 92.7919,321.963 61.1252,321.463 29.5,320C 13.9127,315.247 3.9127,305.08 -0.5,289.5C -0.5,283.5 -0.5,277.5 -0.5,271.5C 4.9462,253.56 16.9462,242.727 35.5,239C 134.499,238.5 233.499,238.333 332.5,238.5C 332.333,200.832 332.5,163.165 333,125.5C 337.495,64.6289 368.661,24.7956 426.5,6C 436.534,3.36208 446.534,1.19541 456.5,-0.5 Z M 474.5,80.5 C 561.167,80.3333 647.834,80.5 734.5,81C 762.936,84.9575 780.769,100.791 788,128.5C 789.454,165.136 789.954,201.802 789.5,238.5C 665.833,238.5 542.167,238.5 418.5,238.5C 418.333,206.165 418.5,173.832 419,141.5C 422.019,106.985 440.519,86.6516 474.5,80.5 Z M 209.5,321.5 C 472.167,321.5 734.833,321.5 997.5,321.5C 982.921,629.156 968.421,936.823 954,1244.5C 949.776,1281.72 929.276,1303.89 892.5,1311C 700.5,1311.67 508.5,1311.67 316.5,1311C 282.367,1304.87 262.2,1284.7 256,1250.5C 240.4,940.833 224.9,631.166 209.5,321.5 Z"/></g>
<g><path style="opacity:0.99" fill="#00000" d="M 394.5,441.5 C 422.32,443.501 434.82,458.501 432,486.5C 438.941,714.826 445.274,943.159 451,1171.5C 448.437,1182.4 441.937,1189.9 431.5,1194C 397.791,1200.73 381.291,1186.89 382,1152.5C 375.038,923.841 368.705,695.175 363,466.5C 367.765,450.875 378.265,442.542 394.5,441.5 Z"/></g>
<g><path style="opacity:0.99" fill="#00000" d="M 602.5,441.5 C 615.61,441.032 626.443,445.698 635,455.5C 637.455,459.531 639.121,463.864 640,468.5C 640.667,702.167 640.667,935.833 640,1169.5C 635.123,1187.12 623.456,1196.12 605,1196.5C 586.737,1196.55 575.07,1187.88 570,1170.5C 569.333,936.167 569.333,701.833 570,467.5C 574.904,451.311 585.737,442.645 602.5,441.5 Z"/></g>
<g><path style="opacity:0.99" fill="#00000" d="M 805.5,442.5 C 820.14,440.211 832.307,444.545 842,455.5C 845.639,461.658 847.472,468.325 847.5,475.5C 840.49,705.491 833.657,935.491 827,1165.5C 824.252,1185.41 812.752,1195.74 792.5,1196.5C 767.129,1194.29 755.796,1180.45 758.5,1155C 764.991,926.154 771.824,697.32 779,468.5C 782.438,454.228 791.271,445.561 805.5,442.5 Z"/></g>
</svg>
