<?xml version="1.0" encoding="UTF-8"?>
<!DOCTYPE svg PUBLIC "-//W3C//DTD SVG 1.1//EN" "http://www.w3.org/Graphics/SVG/1.1/DTD/svg11.dtd">
<svg xmlns="http://www.w3.org/2000/svg" version="1.1" viewBox="0 0 1598 1615" width="36px" height="36px" style="shape-rendering:geometricPrecision; text-rendering:geometricPrecision; image-rendering:optimizeQuality; fill-rule:evenodd; clip-rule:evenodd" xmlns:xlink="http://www.w3.org/1999/xlink">
<g><path style="opacity:0.999" fill="#27cc40" d="M 1597.5,955.5 C 1597.5,968.833 1597.5,982.167 1597.5,995.5C 1594.01,1052.16 1574.51,1102.49 1539,1146.5C 1495.6,1193.61 1441.77,1219.45 1377.5,1224C 1327.81,1227.22 1280.14,1218.88 1234.5,1199C 1225.33,1194.83 1216.17,1190.67 1207,1186.5C 1174.45,1213.54 1137.95,1234.04 1097.5,1248C 1051.64,1264.74 1004.3,1273.57 955.5,1274.5C 967.106,1226.85 982.606,1180.52 1002,1135.5C 1026.11,1078.78 1053.28,1023.61 1083.5,970C 1060.58,966.969 1038.58,960.803 1017.5,951.5C 988.162,936.162 964.162,914.829 945.5,887.5C 936.352,872.202 928.518,856.202 922,839.5C 898.988,857.253 873.155,868.92 844.5,874.5C 812.832,879.818 781.165,879.818 749.5,874.5C 721.988,868.007 696.988,856.34 674.5,839.5C 668.081,857.003 660.081,873.67 650.5,889.5C 635.324,910.173 616.991,927.673 595.5,942C 589.771,945.194 584.104,948.361 578.5,951.5C 557.833,960.998 536.166,967.165 513.5,970C 556.909,1046.65 593.409,1126.49 623,1209.5C 630.184,1230.74 636.351,1252.24 641.5,1274C 557.541,1272.45 480.541,1248.79 410.5,1203C 403.656,1197.49 396.822,1191.99 390,1186.5C 349.832,1206.89 307.332,1219.39 262.5,1224C 197.858,1229.26 139.524,1212.93 87.5,1175C 44.9479,1139.77 17.7812,1094.94 6,1040.5C 3.15842,1026.79 0.991755,1013.12 -0.5,999.5C -0.5,983.167 -0.5,966.833 -0.5,950.5C 6.47496,889.4 28.975,834.733 67,786.5C 77.9425,773.054 89.4425,760.054 101.5,747.5C 28.8142,667.988 5.6475,575.655 32,470.5C 59.4481,377.725 116.948,310.892 204.5,270C 227.964,260.217 252.297,253.717 277.5,250.5C 283.201,186.682 309.867,133.516 357.5,91C 429.789,30.2329 513.455,1.2329 608.5,4C 682.695,6.65014 746.029,33.8168 798.5,85.5C 855.346,29.9201 923.846,2.58678 1004,3.5C 1090.38,4.5066 1166.88,32.0066 1233.5,86C 1269.72,116.562 1295.22,154.395 1310,199.5C 1314.46,216.272 1317.63,233.272 1319.5,250.5C 1409.6,265.153 1479.1,310.82 1528,387.5C 1581.76,476.351 1589.43,569.018 1551,665.5C 1536.98,696.066 1518.14,723.233 1494.5,747C 1538.16,789.126 1568.99,839.293 1587,897.5C 1592.14,916.686 1595.64,936.02 1597.5,955.5 Z M 749.5,874.5 C 750.352,945.165 750.519,1015.83 750,1086.5C 719.965,1019.1 686.799,953.429 650.5,889.5C 660.081,873.67 668.081,857.003 674.5,839.5C 696.988,856.34 721.988,868.007 749.5,874.5 Z M 945.5,887.5 C 909.771,951.958 876.938,1017.96 847,1085.5C 845.536,1015.18 844.703,944.846 844.5,874.5C 873.155,868.92 898.988,857.253 922,839.5C 928.518,856.202 936.352,872.202 945.5,887.5 Z"/></g>
<g><path style="opacity:1" fill="#a1835d" d="M 749.5,874.5 C 781.165,879.818 812.832,879.818 844.5,874.5C 844.703,944.846 845.536,1015.18 847,1085.5C 876.938,1017.96 909.771,951.958 945.5,887.5C 964.162,914.829 988.162,936.162 1017.5,951.5C 971.717,1035.74 933.55,1123.41 903,1214.5C 881.384,1281.32 874.718,1349.65 883,1419.5C 885.445,1463.18 888.112,1506.85 891,1550.5C 896.412,1571.97 889.912,1588.47 871.5,1600C 855.284,1608.02 838.284,1612.86 820.5,1614.5C 805.833,1614.5 791.167,1614.5 776.5,1614.5C 757.906,1612.93 740.239,1607.76 723.5,1599C 714.946,1594.07 709.113,1586.9 706,1577.5C 705.333,1566.17 705.333,1554.83 706,1543.5C 711.088,1479.26 714.254,1414.92 715.5,1350.5C 716.43,1321.46 713.596,1292.8 707,1264.5C 695.801,1217.24 680.801,1171.24 662,1126.5C 636.851,1066.87 609.017,1008.54 578.5,951.5C 584.104,948.361 589.771,945.194 595.5,942C 616.991,927.673 635.324,910.173 650.5,889.5C 686.799,953.429 719.965,1019.1 750,1086.5C 750.519,1015.83 750.352,945.165 749.5,874.5 Z"/></g>
</svg>
