<?xml version="1.0" standalone="no"?>
<!DOCTYPE svg PUBLIC "-//W3C//DTD SVG 20010904//EN"
 "http://www.w3.org/TR/2001/REC-SVG-20010904/DTD/svg10.dtd">
<svg version="1.0" xmlns="http://www.w3.org/2000/svg"
 width="14px" height="18px" viewBox="0 0 512.000000 512.000000"
 preserveAspectRatio="xMidYMid meet">

<g transform="translate(0.000000,512.000000) scale(0.100000,-0.100000)"
fill="#000000" stroke="none">
<path d="M1090 4787 c-47 -15 -103 -74 -118 -123 -19 -64 -17 -1840 2 -1984
86 -645 549 -1173 1179 -1345 920 -250 1865 388 1993 1345 11 83 14 294 14
1030 l0 925 -24 51 c-13 28 -37 60 -52 71 -87 61 -205 56 -281 -10 -72 -63
-67 6 -73 -1077 -6 -966 -6 -976 -28 -1059 -94 -353 -327 -639 -645 -790 -499
-237 -1094 -88 -1430 358 -79 104 -153 245 -186 353 -51 169 -51 165 -51 1144
0 641 -3 929 -11 966 -26 120 -158 187 -289 145z"/>
<path d="M779 734 c-105 -32 -166 -162 -127 -275 19 -57 49 -90 102 -115 l51
-24 1756 0 1755 0 55 28 c45 22 59 36 81 81 64 125 9 269 -115 306 -74 22
-3487 21 -3558 -1z"/>
</g>
</svg>
