<svg width="10" height="20" viewBox="0 0 10 20" fill="none" xmlns="http://www.w3.org/2000/svg">
    <g clip-path="url(#clip0_1493_29466)">
        <path d="M0.490848 19.5011H9.19298C9.46756 19.5011 9.6922 19.2743 9.6922 18.966C9.6922 18.6577 9.46756 18.4219 9.19298 18.4219H0.490848C0.224625 18.4219 0 18.6577 0 18.966C0 19.2743 0.224625 19.5011 0.490848 19.5011Z" fill="#B5B5B5"/>
        <path d="M4.84192 16.714C7.83693 16.714 9.6922 14.7551 9.6922 11.9074V4.11687C9.6922 3.609 9.38432 3.27344 8.91015 3.27344C8.44425 3.27344 8.15306 3.609 8.15306 4.11687V11.7713C8.15306 13.7937 6.93011 15.1723 4.84192 15.1723C2.76206 15.1723 1.5391 13.7937 1.5391 11.7713V4.11687C1.5391 3.609 1.23128 3.27344 0.75707 3.27344C0.291181 3.27344 0 3.609 0 4.11687V11.9074C0 14.7551 1.84692 16.714 4.84192 16.714Z" fill="#B5B5B5"/>
    </g>
    <defs>
        <clipPath id="clip0_1493_29466">
            <rect width="10" height="19" fill="white" transform="translate(0 0.5)"/>
        </clipPath>
    </defs>
</svg>
