<svg width="27" height="18" viewBox="0 0 27 18" fill="none" xmlns="http://www.w3.org/2000/svg">
    <g clip-path="url(#clip0_1493_29483)">
        <path d="M13.1602 17.3086C13.7565 17.3086 14.0659 17.0742 14.2838 16.4179L15.7626 12.2813H22.5264L24.0052 16.4179C24.2231 17.0742 24.5211 17.3086 25.1172 17.3086C25.7249 17.3086 26.1146 16.9336 26.1146 16.3476C26.1146 16.1484 26.0802 15.961 25.9885 15.7148L20.6119 1.07813C20.3482 0.363281 19.8782 0 19.1445 0C18.4337 0 17.9523 0.351563 17.7 1.06641L12.3233 15.7266C12.2317 15.9726 12.1973 16.1602 12.1973 16.3594C12.1973 16.9453 12.5641 17.3086 13.1602 17.3086ZM16.3243 10.5L19.1101 2.61328H19.1674L21.9532 10.5H16.3243Z" fill="#B5B5B5"/>
        <path d="M0.951512 17.3086C1.42154 17.3086 1.73106 17.0626 1.91449 16.4882L2.866 13.6172H7.34843L8.29993 16.4882C8.48335 17.086 8.79288 17.3086 9.27437 17.3086C9.84757 17.3086 10.2373 16.9453 10.2373 16.4179C10.2373 16.1836 10.18 15.961 10.0883 15.7148L6.52301 6.03516C6.25934 5.32031 5.77786 4.94531 5.10147 4.94531C4.43657 4.94531 3.95508 5.29688 3.6914 6.03516L0.126104 15.7148C0.034392 15.9374 0 16.1719 0 16.4179C0 16.9571 0.366848 17.3086 0.951512 17.3086ZM3.37041 12.0937L4.97537 7.20704H5.23904L6.84401 12.0937H3.37041Z" fill="#B5B5B5"/>
    </g>
    <defs>
        <clipPath id="clip0_1493_29483">
            <rect width="26.5391" height="17.3321" fill="white"/>
        </clipPath>
    </defs>
</svg>
