<?xml version="1.0" encoding="UTF-8"?>
<!DOCTYPE svg PUBLIC "-//W3C//DTD SVG 1.1//EN" "http://www.w3.org/Graphics/SVG/1.1/DTD/svg11.dtd">
<svg xmlns="http://www.w3.org/2000/svg" version="1.1" viewBox="0 0 1272 1273" width="24px" height="24px" style="shape-rendering:geometricPrecision; text-rendering:geometricPrecision; image-rendering:optimizeQuality; fill-rule:evenodd; clip-rule:evenodd" xmlns:xlink="http://www.w3.org/1999/xlink">
<g><path style="opacity:0.25" fill="#000000" d="M 1271.5,601.5 C 1271.5,624.833 1271.5,648.167 1271.5,671.5C 1255.13,868.448 1169.13,1026.95 1013.5,1147C 911.594,1222.14 797.26,1263.98 670.5,1272.5C 647.167,1272.5 623.833,1272.5 600.5,1272.5C 401.559,1255.97 242.059,1168.64 122,1010.5C 48.7986,909.411 7.96524,796.411 -0.5,671.5C -0.5,648.167 -0.5,624.833 -0.5,601.5C 12.7784,428.791 82.4451,283.624 208.5,166C 362.955,30.3147 542.288,-21.6853 746.5,10C 914.579,43.5654 1049.41,128.732 1151,265.5C 1222.97,365.89 1263.13,477.89 1271.5,601.5 Z"/></g>
<g><path style="opacity:1" fill="#fcfcfc" d="M 879.5,236.5 C 888.59,235.016 895.09,238.35 899,246.5C 900.085,251.585 900.585,256.752 900.5,262C 899.562,273.18 899.562,284.347 900.5,295.5C 912.49,286.837 924.823,278.67 937.5,271C 953.667,269.167 960.833,276.333 959,292.5C 957.439,295.783 955.273,298.617 952.5,301C 939.833,308 927.167,315 914.5,322C 926.5,328 938.5,334 950.5,340C 962.748,349.238 963.415,359.238 952.5,370C 947.061,372.371 941.394,373.037 935.5,372C 923.391,364.224 911.558,356.057 900,347.5C 900.288,363.16 900.288,378.827 900,394.5C 895.414,406.355 887.247,409.855 875.5,405C 871.806,402.313 869.306,398.813 868,394.5C 867.703,378.772 868.036,363.106 869,347.5C 856.351,356.819 843.184,365.319 829.5,373C 816.577,374.212 809.577,368.378 808.5,355.5C 808.286,349.427 810.62,344.594 815.5,341C 828.136,334.682 840.802,328.349 853.5,322C 841.816,315.157 829.816,308.824 817.5,303C 805.041,291.377 805.708,280.71 819.5,271C 824.734,270.023 829.734,270.69 834.5,273C 846.087,280.71 857.587,288.543 869,296.5C 868.289,281.534 867.622,266.534 867,251.5C 868.51,244.166 872.677,239.166 879.5,236.5 Z"/></g>
<g><path style="opacity:1" fill="#fdfdfd" d="M 604.5,312.5 C 652.352,308.849 689.852,326.515 717,365.5C 741.382,409.988 740.049,453.654 713,496.5C 684.891,530.291 648.724,545.625 604.5,542.5C 590.15,542.448 575.817,541.948 561.5,541C 517.588,536.463 473.588,533.129 429.5,531C 363.947,528.984 300.28,538.984 238.5,561C 211.949,563.451 199.449,551.284 201,524.5C 203.223,517.277 207.389,511.444 213.5,507C 295.17,476.285 379.503,464.619 466.5,472C 501.154,475.443 535.821,478.777 570.5,482C 590.515,483.816 610.515,483.816 630.5,482C 655.767,476.626 669.933,461.126 673,435.5C 674.446,390.946 652.946,370.113 608.5,373C 594.345,375.99 582.845,383.156 574,394.5C 569.626,401.616 565.626,408.949 562,416.5C 546.956,432.986 531.289,433.653 515,418.5C 507.129,406.968 506.462,394.968 513,382.5C 531.514,343.484 562.014,320.151 604.5,312.5 Z"/></g>
<g><path style="opacity:1" fill="#fdfdfd" d="M 875.5,452.5 C 931.582,451.455 975.415,473.789 1007,519.5C 1029.39,557.984 1034.39,598.651 1022,641.5C 1006.28,684.884 976.783,714.717 933.5,731C 903.631,741.08 872.964,744.747 841.5,742C 808.107,739.611 775.107,734.611 742.5,727C 701.463,716.824 660.463,706.491 619.5,696C 531.232,672.69 441.898,667.357 351.5,680C 312.58,685.813 274.913,696.146 238.5,711C 215.25,714.378 202.584,704.378 200.5,681C 202.153,666.669 209.82,657.002 223.5,652C 349.425,607.634 477.425,600.634 607.5,631C 658.167,643.333 708.833,655.667 759.5,668C 796.997,676.929 834.997,681.262 873.5,681C 900.631,680.626 924.631,671.96 945.5,655C 967.003,630.844 973.503,603.011 965,571.5C 954.044,538.212 931.21,519.045 896.5,514C 853.567,509.984 824.067,527.817 808,567.5C 806.171,576.649 803.838,585.649 801,594.5C 789.431,612.466 774.264,616.299 755.5,606C 744.545,595.234 741.379,582.401 746,567.5C 757.67,513.501 789.504,477.335 841.5,459C 852.794,455.843 864.127,453.677 875.5,452.5 Z"/></g>
<g><path style="opacity:1" fill="#fdfdfd" d="M 426.5,755.5 C 478.66,753.763 530.327,757.93 581.5,768C 619.505,775.51 653.838,790.843 684.5,814C 722.334,848.476 734.834,890.642 722,940.5C 707.976,982.857 679.143,1008.69 635.5,1018C 590.28,1025.27 553.113,1011.43 524,976.5C 507.544,954.137 500.211,929.137 502,901.5C 508.881,884.64 521.381,878.14 539.5,882C 548.853,885.352 555.686,891.519 560,900.5C 562.16,910.635 564.827,920.635 568,930.5C 576.438,949.081 590.938,958.748 611.5,959.5C 627.026,959.715 640.693,954.881 652.5,945C 667.189,926.024 670.356,905.191 662,882.5C 652.722,864.555 638.888,851.388 620.5,843C 586.629,828.691 551.296,820.357 514.5,818C 418.818,809.419 325.818,821.419 235.5,854C 211.064,854.228 199.564,842.061 201,817.5C 204.379,806.453 211.546,798.953 222.5,795C 288.782,772.243 356.782,759.076 426.5,755.5 Z"/></g>
<g><path style="opacity:0.999" fill="#f9f9f9" d="M 871.5,858.5 C 878.748,858.242 881.914,861.575 881,868.5C 884.847,864.714 888.847,864.714 893,868.5C 894.922,874.383 893.089,878.549 887.5,881C 893.161,882.779 894.995,886.612 893,892.5C 889.193,895.952 885.193,896.285 881,893.5C 880.826,901.974 876.826,904.308 869,900.5C 867.908,897.956 867.241,895.289 867,892.5C 864.28,896.644 860.78,897.477 856.5,895C 853.651,891.447 853.151,887.614 855,883.5C 856.171,882.107 857.671,881.273 859.5,881C 854.262,877.726 853.096,873.226 856,867.5C 860.325,864.431 863.992,865.098 867,869.5C 865.724,864.716 867.224,861.05 871.5,858.5 Z"/></g>
</svg>
