<svg width="20" height="20" viewBox="0 0 20 20" fill="none" xmlns="http://www.w3.org/2000/svg">
<path d="M5.39258 9.99752C5.39258 10.4756 5.72751 10.7975 6.21555 10.7975H9.02895V13.6755C9.02895 14.1633 9.34474 14.5048 9.81364 14.5048C10.2921 14.5048 10.627 14.1731 10.627 13.6755V10.7975H13.45C13.9285 10.7975 14.2635 10.4756 14.2635 9.99752C14.2635 9.50971 13.9285 9.16825 13.45 9.16825H10.627V6.29996C10.627 5.8024 10.2921 5.46094 9.81364 5.46094C9.34474 5.46094 9.02895 5.8024 9.02895 6.29996V9.16825H6.21555C5.71794 9.16825 5.39258 9.50971 5.39258 9.99752Z" fill="#9747FF"/>
</svg>
