<svg width="24" height="19" viewBox="0 0 24 19" fill="none" xmlns="http://www.w3.org/2000/svg">
<g clip-path="url(#clip0_4177_32940)">
<path d="M20.242 14.912L21.2791 15.9416C21.6209 16.2808 21.6698 16.7125 21.2669 16.99C20.8763 17.2676 20.3514 17.1648 20.0218 16.8358L18.8701 15.694C19.3683 15.4723 19.8288 15.212 20.242 14.912ZM20.0218 1.98263C20.3514 1.65368 20.8763 1.55091 21.2669 1.82845C21.6698 2.10595 21.6209 2.53767 21.2791 2.8769L20.2428 3.9056C19.8295 3.60582 19.3689 3.34567 18.8705 3.12404L20.0218 1.98263ZM14.2846 16.5891L14.5571 16.5808L14.5653 17.9254C14.5653 18.3777 14.2357 18.6758 13.7474 18.6758C13.247 18.6758 12.9174 18.3777 12.9174 17.9254L12.9087 16.5009C13.3879 16.5594 13.8542 16.5891 14.2846 16.5891ZM12.9174 0.893046C12.9174 0.440776 13.247 0.142645 13.7474 0.142645C14.2357 0.142645 14.5653 0.440776 14.5653 0.893046L14.5571 2.23769C14.4689 2.23019 14.377 2.22931 14.2846 2.22931C13.8542 2.22931 13.3879 2.25908 12.9087 2.31743L12.9174 0.893046ZM6.91159 15.9313L8.12698 14.7345C8.17173 14.7815 8.22278 14.8311 8.27873 14.8828C8.56308 15.1456 8.95767 15.3847 9.42217 15.5951L8.18108 16.8256C7.85153 17.1545 7.31439 17.2573 6.93599 16.9797C6.53314 16.7125 6.56979 16.2705 6.91159 15.9313ZM6.93599 1.82845C7.31439 1.55091 7.85153 1.66395 8.18108 1.9929L9.41917 3.22037C8.95602 3.42895 8.56248 3.6657 8.27873 3.92534C8.22118 3.9794 8.16888 4.03119 8.12313 4.08016L6.91159 2.88717C6.56979 2.54795 6.53314 2.10595 6.93599 1.82845Z" fill="#414141"/>
<path d="M14.2849 16.5898C18.8991 16.5898 22.2804 14.3387 22.8541 10.8541C22.9396 10.2991 22.7077 10.001 22.195 10.001H11.3552C10.9646 10.001 10.6472 9.73373 10.6472 9.40478C10.6472 9.08615 10.9646 8.80861 11.3552 8.80861H22.195C22.7077 8.80861 22.9396 8.51052 22.8541 7.95543C22.2804 4.48114 18.8991 2.23002 14.2849 2.23002C12.2463 2.23002 9.4021 2.89815 8.27906 3.92605C7.64431 4.52223 7.64431 4.84091 7.80301 5.16982C8.35231 6.30053 8.79175 7.81152 8.79175 9.40478C8.79175 11.0083 8.35231 12.5194 7.80301 13.65C7.64431 13.979 7.64431 14.2976 8.27906 14.8835C9.4021 15.9217 12.2463 16.5898 14.2849 16.5898Z" fill="#FF453A"/>
<path d="M12.4174 12.6409C12.4174 13.2166 11.8437 13.6791 11.1723 13.6791C10.5009 13.6791 9.93945 13.2166 9.93945 12.6409C9.93945 12.0653 10.5009 11.6028 11.1723 11.6028C11.8437 11.6028 12.4174 12.0653 12.4174 12.6409ZM16.58 13.4838C16.58 14.1622 15.933 14.707 15.1152 14.707C14.3339 14.707 13.687 14.1622 13.687 13.4838C13.687 12.8157 14.3339 12.2606 15.1152 12.2606C15.933 12.2606 16.58 12.8157 16.58 13.4838ZM20.1444 12.4457C20.1444 12.9391 19.6684 13.3399 19.0824 13.3399C18.4843 13.3399 18.0082 12.9391 18.0082 12.4457C18.0082 11.942 18.4843 11.5514 19.0824 11.5514C19.6684 11.5514 20.1444 11.942 20.1444 12.4457ZM12.4174 6.16515C12.4174 6.74078 11.8437 7.2136 11.1723 7.2136C10.5009 7.2136 9.93945 6.74078 9.93945 6.16515C9.93945 5.59979 10.5009 5.13725 11.1723 5.13725C11.8437 5.13725 12.4174 5.59979 12.4174 6.16515ZM16.58 5.33252C16.58 6.0007 15.933 6.54547 15.1152 6.54547C14.3339 6.54547 13.687 6.0007 13.687 5.33252C13.687 4.65412 14.3339 4.10935 15.1152 4.10935C15.933 4.10935 16.58 4.65412 16.58 5.33252ZM20.1444 6.36047C20.1444 6.8641 19.6684 7.26501 19.0824 7.26501C18.4843 7.26501 18.0082 6.8641 18.0082 6.36047C18.0082 5.87734 18.4843 5.47643 19.0824 5.47643C19.6684 5.47643 20.1444 5.87734 20.1444 6.36047Z" fill="#414141"/>
<path d="M5.5694 13.7539C6.10649 13.7539 6.53374 13.5791 6.81454 13.0549C7.30278 12.1504 7.59578 10.7935 7.59578 9.40585C7.59578 8.02845 7.30278 6.66137 6.81454 5.76706C6.53374 5.23256 6.10649 5.06811 5.5694 5.06811C3.51865 5.06811 1.82188 6.75387 1.82188 9.40585C1.82188 12.0578 3.51865 13.7539 5.5694 13.7539ZM1.56554 12.9007L1.72423 12.4587C1.8463 12.099 2.06603 11.9551 2.40782 12.027L2.83506 12.1195L2.82285 10.773L2.3712 10.7318C1.37023 10.6393 0.625609 11.0402 0.283814 11.8934L0.0518821 12.4587C-0.302118 13.3633 1.26037 13.795 1.56554 12.9007ZM1.56554 5.92124C1.26037 5.02697 -0.302118 5.4587 0.0518821 6.36328L0.283814 6.9286C0.625609 7.78177 1.37023 8.18263 2.3712 8.09013L2.82285 8.03872L2.83506 6.70246L2.40782 6.79496C2.06603 6.85664 1.8463 6.72301 1.72423 6.36328L1.56554 5.92124Z" fill="#414141"/>
</g>
<defs>
<clipPath id="clip0_4177_32940">
<rect width="18.677" height="23.0161" fill="white" transform="matrix(0 -1 1 0 0 18.6758)"/>
</clipPath>
</defs>
</svg>
