<svg width="20" height="20" viewBox="0 0 20 20" fill="none" xmlns="http://www.w3.org/2000/svg">
<path d="M15.3131 16.3353H17.2568C18.2036 16.3353 18.6895 15.8745 18.6895 14.9864V5.3679C18.6895 4.47978 18.2036 4.02734 17.2568 4.02734H15.3131C14.3746 4.02734 13.8887 4.47978 13.8887 5.3679V14.9864C13.8887 15.8745 14.3746 16.3353 15.3131 16.3353Z" fill="#8D8D8D"/>
<path d="M9.37217 16.3341H11.316C12.2628 16.3341 12.7487 15.8733 12.7487 14.9851V7.29368C12.7487 6.40557 12.2628 5.95312 11.316 5.95312H9.37217C8.43378 5.95312 7.93945 6.40557 7.93945 7.29368V14.9851C7.93945 15.8733 8.43378 16.3341 9.37217 16.3341Z" fill="#8D8D8D"/>
<path d="M3.42435 16.3373H5.36815C6.31493 16.3373 6.80087 15.8765 6.80087 14.9883V9.21556C6.80087 8.32744 6.31493 7.875 5.36815 7.875H3.42435C2.48595 7.875 2 8.32744 2 9.21556V14.9883C2 15.8765 2.48595 16.3373 3.42435 16.3373Z" fill="#8D8D8D"/>
</svg>
