<svg width="19" height="18" viewBox="0 0 19 18" fill="none" xmlns="http://www.w3.org/2000/svg">
<path d="M5.17835 18C5.63222 18 5.94167 17.7628 6.49869 17.2573L9.26317 14.7816H14.1113C16.6488 14.7816 17.9795 13.4097 17.9795 10.9134V4.91003C17.9795 2.41376 16.6488 1.04183 14.1113 1.04183H3.86832C1.33079 1.04183 0.00012207 2.41376 0.00012207 4.91003V10.9134C0.00012207 13.4097 1.33079 14.7816 3.86832 14.7816H4.16746V16.8344C4.16746 17.5461 4.52849 18 5.17835 18ZM5.56001 16.3084V13.9874C5.56001 13.482 5.37434 13.2963 4.8689 13.2963H3.86832C2.20757 13.2963 1.48551 12.502 1.48551 10.9134V4.91003C1.48551 3.33181 2.20757 2.53753 3.86832 2.53753H14.1113C15.772 2.53753 16.4941 3.33181 16.4941 4.91003V10.9134C16.4941 12.502 15.772 13.2963 14.1113 13.2963H9.18065C8.68552 13.2963 8.42764 13.3684 8.09756 13.7192L5.56001 16.3084Z" fill="#B5B5B5"/>
<path d="M4.49758 7.7467H7.9016C8.53082 7.7467 8.8506 7.43726 8.8506 6.80802V5.32263C8.8506 4.69341 8.53082 4.39427 7.9016 4.39427H4.49758C3.85804 4.39427 3.53827 4.69341 3.53827 5.32263V6.80802C3.53827 7.43726 3.85804 7.7467 4.49758 7.7467ZM5.4569 11.3983H8.36578C9.00532 11.3983 9.31478 11.0991 9.31478 10.4596V9.48998C9.31478 8.86075 9.00532 8.55129 8.36578 8.55129H5.4569C4.82766 8.55129 4.5079 8.86075 4.5079 9.48998V10.4596C4.5079 11.0991 4.82766 11.3983 5.4569 11.3983ZM11.0683 10.9341H13.4718C14.101 10.9341 14.4105 10.6247 14.4105 10.0057V5.85903C14.4105 5.2298 14.101 4.92034 13.4718 4.92034H11.0683C10.4288 4.92034 10.1194 5.2298 10.1194 5.85903V10.0057C10.1194 10.6247 10.4288 10.9341 11.0683 10.9341Z" fill="#B5B5B5"/>
</svg>
