<svg width="15" height="15" viewBox="0 0 15 15" fill="none" xmlns="http://www.w3.org/2000/svg">
<path d="M6.84881 14.9909H8.13296C8.49726 14.9909 8.76138 14.7723 8.85245 14.4171L9.22586 12.8233C9.52636 12.7231 9.80875 12.6138 10.0637 12.4864L11.4572 13.3424C11.7487 13.5246 12.1038 13.4973 12.3497 13.2514L13.2514 12.3497C13.4973 12.1038 13.5337 11.7304 13.3333 11.4299L12.4864 10.0455C12.6138 9.79047 12.7322 9.50818 12.8142 9.24407L14.4263 8.86156C14.7723 8.77959 14.9818 8.51548 14.9818 8.14207V6.88524C14.9818 6.53005 14.7723 6.26593 14.4263 6.18397L12.8324 5.79235C12.7322 5.48269 12.6047 5.20947 12.5045 4.98178L13.3515 3.57012C13.5337 3.26047 13.5246 2.9235 13.2696 2.66849L12.3497 1.76685C12.0948 1.53916 11.776 1.47541 11.4845 1.65755L10.0637 2.53187C9.8178 2.40436 9.5355 2.29508 9.22586 2.1949L8.85245 0.57377C8.76138 0.218579 8.49726 0 8.13296 0H6.84881C6.48451 0 6.22039 0.218579 6.13843 0.57377L5.75592 2.17668C5.46448 2.27687 5.16393 2.38615 4.91803 2.52277L3.50638 1.65755C3.20583 1.47541 2.87796 1.52095 2.63206 1.76685L1.7122 2.66849C1.45719 2.9235 1.44808 3.26047 1.63024 3.57012L2.47723 4.98178C2.37705 5.20947 2.24954 5.48269 2.15846 5.79235L0.564663 6.18397C0.209471 6.26593 0 6.53005 0 6.88524V8.14207C0 8.51548 0.209471 8.77959 0.564663 8.86156L2.17668 9.24407C2.24954 9.50818 2.36794 9.79047 2.49544 10.0455L1.64845 11.4299C1.44808 11.7304 1.48452 12.1038 1.73042 12.3497L2.63206 13.2514C2.87796 13.4973 3.23315 13.5246 3.53369 13.3424L4.92713 12.4864C5.17304 12.6138 5.46448 12.7231 5.75592 12.8233L6.13843 14.4171C6.22039 14.7723 6.48451 14.9909 6.84881 14.9909ZM7.49544 10C6.1111 10 4.99089 8.87067 4.99089 7.49544C4.99089 6.12021 6.1111 4.99089 7.49544 4.99089C8.87067 4.99089 9.99089 6.12021 9.99089 7.49544C9.99089 8.87067 8.87067 10 7.49544 10Z" fill="#B5B5B5"/>
</svg>
