<svg width="19" height="18" viewBox="0 0 19 18" fill="none" xmlns="http://www.w3.org/2000/svg">
<path d="M15.5775 11.5972C15.8187 13.6689 15.8845 13.7346 18.0002 14.0087C18.2195 14.0416 18.373 14.206 18.373 14.4143C18.373 14.6115 18.2195 14.776 18.0112 14.8198C15.8516 15.2254 15.8297 15.2254 15.5775 17.2423C15.5446 17.4506 15.3692 17.604 15.1719 17.604C14.9527 17.604 14.7883 17.4396 14.7663 17.2204C14.5361 15.2144 14.4703 15.1377 12.3656 14.8198C12.1244 14.776 11.9709 14.6225 11.9709 14.4143C11.9709 14.2169 12.1134 14.0525 12.3217 14.0087C14.4703 13.6141 14.5361 13.6141 14.7663 11.6081C14.7883 11.3889 14.9527 11.2245 15.1719 11.2245C15.3802 11.2245 15.5556 11.3779 15.5775 11.5972Z" fill="#B5B5B5"/>
<path d="M6.0736 0.274036C6.35864 1.76479 6.32573 1.7319 7.81661 2.02786C7.99204 2.04979 8.09069 2.18132 8.09069 2.34574C8.09069 2.4992 7.99204 2.63074 7.81661 2.66363C6.32573 2.94862 6.35864 2.91574 6.0736 4.40649C6.04069 4.57093 5.90917 4.68052 5.7557 4.68052C5.59126 4.68052 5.47066 4.57093 5.43779 4.40649C5.15275 2.91574 5.18566 2.94862 3.69475 2.66363C3.51935 2.63074 3.40973 2.4992 3.40973 2.34574C3.40973 2.18132 3.51935 2.04979 3.69475 2.02786C5.18566 1.7319 5.15275 1.76479 5.43779 0.274036C5.47066 0.109614 5.59126 0 5.7557 0C5.90917 0 6.04069 0.109614 6.0736 0.274036Z" fill="#B5B5B5"/>
<path d="M8.28754 14.8417C8.28754 16.2448 7.14747 17.3958 5.75524 17.3958C4.35204 17.3958 3.20099 16.2448 3.20099 14.8417C3.20099 13.4606 4.35204 12.3097 5.75524 12.3097C7.14747 12.3097 8.28754 13.4606 8.28754 14.8417Z" fill="#B5B5B5"/>
<path d="M4.74673 7.19068C4.74673 8.4951 3.67241 9.56933 2.37884 9.56933C1.07432 9.56933 0 8.4951 0 7.19068C0 5.8863 1.07432 4.82303 2.37884 4.82303C3.67241 4.82303 4.74673 5.8863 4.74673 7.19068Z" fill="#B5B5B5"/>
<path d="M18.0992 4.98752C18.0992 7.03513 16.63 8.73905 14.687 9.10017C14.7336 8.85844 14.7557 8.60818 14.7557 8.35266C14.7557 5.97406 12.8263 4.04483 10.4365 4.04483C10.2312 4.04483 10.029 4.05921 9.83282 4.09197C10.239 2.21156 11.9064 0.811214 13.9115 0.811214C16.2246 0.811214 18.0992 2.67466 18.0992 4.98752Z" fill="#B5B5B5"/>
<path d="M10.4362 11.5972C12.234 11.5972 13.6811 10.1503 13.6811 8.35259C13.6811 6.56587 12.234 5.11899 10.4362 5.11899C8.63834 5.11899 7.19128 6.56587 7.19128 8.35259C7.19128 10.1503 8.63834 11.5972 10.4362 11.5972Z" fill="#B5B5B5"/>
</svg>
