<svg width="20" height="20" viewBox="0 0 20 20" fill="none" xmlns="http://www.w3.org/2000/svg">
<path d="M8.23855 14.5642C8.47823 14.5642 8.63591 14.4045 8.62961 14.1717L8.43407 7.05321C8.42777 6.82036 8.27009 6.66735 8.04302 6.66735C7.80334 6.66735 7.64566 6.82701 7.65197 7.05986L7.84119 14.1717C7.84749 14.4112 8.00518 14.5642 8.23855 14.5642ZM10.1055 14.5642C10.3452 14.5642 10.5155 14.4045 10.5155 14.1717V7.05986C10.5155 6.82701 10.3452 6.66735 10.1055 6.66735C9.86585 6.66735 9.70185 6.82701 9.70185 7.05986V14.1717C9.70185 14.4045 9.86585 14.5642 10.1055 14.5642ZM11.9788 14.5642C12.2059 14.5642 12.3636 14.4112 12.3699 14.1717L12.5591 7.05986C12.5654 6.82701 12.4077 6.66735 12.168 6.66735C11.941 6.66735 11.7833 6.82036 11.777 7.05986L11.5877 14.1717C11.5815 14.4045 11.7391 14.5642 11.9788 14.5642ZM7.3366 4.93096H8.33947V3.50726C8.33947 3.12805 8.59176 2.8819 8.9702 2.8819H11.2282C11.6067 2.8819 11.859 3.12805 11.859 3.50726V4.93096H12.8618V3.44073C12.8618 2.47607 12.2689 1.89062 11.2976 1.89062H8.90082C7.92949 1.89062 7.3366 2.47607 7.3366 3.44073V4.93096ZM4.47305 5.46319H15.7443C16.0029 5.46319 16.211 5.23033 16.211 4.95757C16.211 4.68481 16.0029 4.45861 15.7443 4.45861H4.47305C4.22076 4.45861 4 4.68481 4 4.95757C4 5.23699 4.22076 5.46319 4.47305 5.46319ZM7.21676 16.7064H13.0006C13.9025 16.7064 14.508 16.0877 14.5522 15.1364L14.9937 5.33678H13.9782L13.5556 15.0233C13.543 15.4225 13.2718 15.7018 12.8997 15.7018H7.30506C6.94554 15.7018 6.67432 15.4158 6.6554 15.0233L6.20758 5.33678H5.21732L5.66514 15.143C5.70929 16.0944 6.30219 16.7064 7.21676 16.7064Z" fill="#B5B5B5"/>
</svg>
