<svg width="18" height="14" viewBox="0 0 18 14" fill="none" xmlns="http://www.w3.org/2000/svg">
<path d="M13.2329 2.0984H9.3932C7.02775 2.0984 5.66951 3.50241 5.66951 5.82211V8.87432C5.66951 9.6305 5.81478 10.2904 6.09567 10.8338L4.80725 11.9876C4.39519 12.3615 4.16628 12.537 3.83054 12.537C3.34981 12.537 3.08274 12.2013 3.08274 11.6824V10.1563H2.86146C0.984344 10.1563 0 9.14902 0 7.2948V2.86147C0 1.00723 0.984344 0 2.86146 0H10.4386C12.0376 0 12.9888 0.736415 13.2329 2.0984Z" fill="white"/>
<path d="M9.85891 6.71963C9.54605 6.71963 9.32476 6.48306 9.32476 6.18549C9.32476 5.87263 9.54605 5.65134 9.85891 5.65134H14.3762C14.6814 5.65134 14.918 5.87263 14.918 6.18549C14.918 6.48306 14.6814 6.71963 14.3762 6.71963H9.85891ZM9.85891 9.10037C9.54605 9.10037 9.32476 8.88671 9.32476 8.58148C9.32476 8.2839 9.54605 8.03971 9.85891 8.03971H13.1553C13.4605 8.03971 13.6971 8.2839 13.6971 8.58148C13.6971 8.88671 13.4605 9.10037 13.1553 9.10037H9.85891ZM9.39343 11.7024H10.9959L13.0332 13.4422C13.4605 13.8084 13.6818 13.9916 14.0176 13.9916C14.4906 13.9916 14.7577 13.6558 14.7577 13.1369V11.7024H14.7959C16.6577 11.7024 17.6344 10.7028 17.6344 8.87143V5.81921C17.6344 3.98787 16.6577 2.98828 14.7959 2.98828H9.39343C7.53159 2.98828 6.5625 3.98787 6.5625 5.81921V8.87143C6.5625 10.7028 7.53159 11.7024 9.39343 11.7024Z" fill="white"/>
</svg>
