<svg width="26" height="26" viewBox="0 0 26 26" fill="none" xmlns="http://www.w3.org/2000/svg">
<g clip-path="url(#clip0_52_354)">
<path d="M19.3206 0.188416C16.7206 0.890226 15.5431 2.68008 15.4724 6.05255L15.43 8.00726L11.742 8.03081L8.05393 8.05436L8.03038 11.7424L8.00683 15.4304L6.05212 15.4728C2.78799 15.5435 1.11589 16.575 0.277484 19.0384C-1.48411 24.2054 5.00176 28.275 8.90176 24.4504C10.2065 23.1692 10.4561 22.4344 10.4844 19.7638L10.5032 17.9457L12.976 17.9221L15.4489 17.8939V19.5707C15.4536 22.0906 15.7456 23.0797 16.8478 24.2431C20.9974 28.6283 28.0721 23.7957 25.4249 18.3837C24.4123 16.3112 22.7025 15.454 19.5702 15.4493H17.8981V13.0141V10.5743L19.8057 10.5319C22.3963 10.466 23.3949 10.108 24.5489 8.82682C28.0815 4.89856 24.3981 -1.18695 19.3206 0.188416ZM21.8028 2.67537C23.9413 3.5703 23.5864 6.65223 21.93 7.71994C21.5732 7.94996 21.1368 8.00726 20.7123 8.00726H19.6268H17.8981V6.60834C17.8981 4.85617 17.9923 4.33334 18.4257 3.70218C19.1699 2.61885 20.6159 2.18081 21.8028 2.67537ZM15.4489 13V15.454L12.976 15.4257L10.5032 15.4022L10.4797 12.9765L10.4514 10.5507H12.9525H15.4489V13ZM8.00683 19.6272V21.3558L7.7148 21.9399C6.40538 24.5587 2.5148 23.612 2.50538 20.6775C2.50067 19.8862 2.72205 19.3587 3.3014 18.7746C4.03147 18.0352 4.45067 17.9268 6.52314 17.908L8.00683 17.8986V19.6272ZM21.8076 18.167C22.7967 18.6145 23.3666 19.4294 23.4373 20.4939C23.6398 23.6449 19.4619 24.6482 18.1478 21.7656C17.9499 21.3323 17.7851 18.4214 17.9358 18.0304C18.0347 17.7714 21.1811 17.8797 21.8076 18.167Z" fill="url(#paint0_linear_52_354)"/>
</g>
<defs>
<linearGradient id="paint0_linear_52_354" x1="12.9916" y1="25.9561" x2="12.9916" y2="-0.0100346" gradientUnits="userSpaceOnUse">
<stop stop-color="#090F01"/>
<stop offset="1" stop-color="#8D8D8D"/>
</linearGradient>
<clipPath id="clip0_52_354">
<rect width="26" height="26" fill="white"/>
</clipPath>
</defs>
</svg>
