<svg width="17" height="19" viewBox="0 0 17 19" fill="none" xmlns="http://www.w3.org/2000/svg">
<g clip-path="url(#clip0_2807_33781)">
<path d="M11.3171 2.05185L10.3914 2.97862C9.17254 2.27238 7.80781 1.86328 6.46484 1.86328C3.18359 1.86328 1.2207 4.17773 1.2207 7.15625C1.2207 10.4082 3.53516 14.7734 9.33594 15.7305C9.72656 15.7793 9.92188 16.0625 9.92188 16.3457C9.92188 16.668 9.66797 17 9.17969 16.9317C4.11133 16.3555 0 12.0879 0 7.18555C0 3.49414 2.5 0.632812 6.49414 0.632812C8.14778 0.632812 9.83722 1.14676 11.3171 2.05185ZM15.9082 9.69531C15.9082 12.3906 14.0527 14.2656 11.377 14.2656C9.60525 14.2656 7.67122 13.4459 6.13116 12.1153L7.48387 11.5444C8.66671 12.4858 10.0653 13.0938 11.3574 13.0938C13.1738 13.0938 14.707 11.8047 14.707 9.68555C14.707 8.26557 14.2132 6.90161 13.3945 5.72615L14.3047 4.81922C15.3006 6.20852 15.9082 7.87596 15.9082 9.69531Z" fill="#5B5B5B"/>
<path d="M6.79636 10.6617L13.6518 3.80622L12.4311 2.59528L5.57565 9.44099L4.97995 10.9156C4.91159 11.0914 5.08737 11.277 5.26315 11.2086L6.79636 10.6617ZM14.228 3.23981L14.853 2.61481C15.146 2.32185 15.1557 1.8531 14.853 1.56989L14.6186 1.35505C14.355 1.11091 13.9057 1.10114 13.6421 1.38435L13.0073 2.01911L14.228 3.23981Z" fill="#5B5B5B"/>
</g>
<defs>
<clipPath id="clip0_2807_33781">
<rect width="16.2695" height="18.0113" fill="white"/>
</clipPath>
</defs>
</svg>
