<svg width="20" height="20" viewBox="0 0 20 20" fill="none" xmlns="http://www.w3.org/2000/svg">
<path d="M14.3262 9.91789L9.21834 14.996C7.89099 16.3225 6.10496 16.1913 4.96524 15.0444C3.81857 13.9113 3.68653 12.1495 5.01389 10.823L11.9843 3.90014C12.7834 3.1056 13.9579 2.99506 14.7223 3.74814C15.4798 4.51504 15.3687 5.67576 14.5764 6.47029L7.7659 13.2411C7.42537 13.5935 7.0084 13.4898 6.77211 13.2549C6.53583 13.0131 6.43854 12.6124 6.77907 12.26L11.5395 7.54118C11.748 7.32701 11.7619 7.02301 11.5603 6.82265C11.3588 6.6292 11.053 6.64301 10.8445 6.85028L6.07022 11.5967C5.36136 12.3015 5.38917 13.3793 6.01462 14.0011C6.69567 14.6782 7.7242 14.6644 8.44 13.9527L15.2783 7.15428C16.5779 5.8623 16.5222 4.16268 15.3895 3.03652C14.2845 1.93798 12.5472 1.85507 11.2476 3.14706L4.2425 10.1182C2.52597 11.8248 2.65801 14.2637 4.20775 15.8044C5.75749 17.3382 8.21067 17.4694 9.9272 15.7698L15.0698 10.6571C15.2713 10.4568 15.2713 10.0906 15.0629 9.90409C14.8614 9.68987 14.5347 9.71753 14.3262 9.91789Z" fill="#8BCF16"/>
</svg>
