<svg width="40" height="40" viewBox="0 0 40 40" fill="none" xmlns="http://www.w3.org/2000/svg">
<rect width="40" height="40" fill="#32C387"/>
<path d="M26.737 13.5054L26.9123 14.1604C27.0944 14.8622 26.7572 15.4705 26.0154 15.6643L18.6243 17.6293H26.5009C27.263 17.6293 27.7485 18.1106 27.7485 18.8525V25.0884C27.7485 26.3985 27.0809 27.0668 25.7254 27.0668H14.6387C13.29 27.0668 12.6089 26.4051 12.6089 25.0884V19.2334L12.1031 17.3954C11.7659 16.1322 12.2582 15.3101 13.5462 14.9625L24.2552 12.1085C25.55 11.7677 26.4065 12.2288 26.737 13.5054ZM13.6609 21.4858V25.0283C13.6609 25.6832 14.0183 26.0241 14.6522 26.0241H25.7051C26.3391 26.0241 26.7033 25.6832 26.7033 25.0283V21.4858H13.6609ZM16.9653 18.672L15.2052 18.7522L14.2408 20.5301H16.4595L17.4711 18.672H16.9653ZM19.5279 18.672L18.5231 20.5301H20.9036L21.9152 18.672H19.5279ZM23.972 18.672L22.9672 20.5301H25.1791L26.1907 18.672H23.972ZM14.4229 15.8113L13.9171 17.8633L16.0684 17.2884L16.5539 15.2365L14.4229 15.8113ZM18.5501 14.7085L18.0645 16.7604L20.3642 16.1589L20.8497 14.1003L18.5501 14.7085ZM24.4643 13.1311L22.8391 13.5723L22.3468 15.6242L24.4913 15.0561L24.9701 13.0175C24.8082 13.0509 24.6397 13.0844 24.4643 13.1311Z" fill="white"/>
</svg>
