<svg width="40" height="40" viewBox="0 0 40 40" fill="none" xmlns="http://www.w3.org/2000/svg">
<rect width="40" height="40" fill="#F55687"/>
<path d="M16.3083 28.4925H24.2161C25.7575 28.4925 26.5245 27.7093 26.5245 26.1578V19.3848C26.5245 18.4226 26.4128 18.0049 25.8171 17.3932L21.7143 13.2086C21.1483 12.6268 20.6792 12.5 19.8453 12.5H16.3083C14.7744 12.5 14 13.2907 14 14.8422V26.1578C14 27.7168 14.767 28.4925 16.3083 28.4925ZM16.3604 27.2916C15.5935 27.2916 15.1988 26.8813 15.1988 26.1354V14.8646C15.1988 14.1261 15.5935 13.7009 16.3679 13.7009H19.6814V18.0347C19.6814 18.9746 20.1506 19.4371 21.0813 19.4371H25.3256V26.1354C25.3256 26.8813 24.931 27.2916 24.1566 27.2916H16.3604ZM21.2154 18.3107C20.9175 18.3107 20.8058 18.1914 20.8058 17.893V13.9322L25.0948 18.3107H21.2154Z" fill="white"/>
<path d="M23.0016 21.4961H17.35C17.0819 21.4961 16.8809 21.6975 16.8809 21.9511C16.8809 22.2122 17.0819 22.4136 17.35 22.4136H23.0016C23.2622 22.4136 23.4558 22.2122 23.4558 21.9511C23.4558 21.6975 23.2622 21.4961 23.0016 21.4961ZM23.0016 24.0994H17.35C17.0819 24.0994 16.8809 24.3083 16.8809 24.5693C16.8809 24.8229 17.0819 25.0169 17.35 25.0169H23.0016C23.2622 25.0169 23.4558 24.8229 23.4558 24.5693C23.4558 24.3083 23.2622 24.0994 23.0016 24.0994Z" fill="white"/>
</svg>
