<svg width="40" height="40" viewBox="0 0 40 40" fill="none" xmlns="http://www.w3.org/2000/svg">
<rect width="40" height="40" fill="#FFD600"/>
<path d="M27.8432 23.2396L23.4064 18.9962C23.0778 18.6844 22.6819 18.5247 22.2786 18.5247C21.8678 18.5247 21.5018 18.6692 21.1581 18.981L17.7821 22.0533L16.4003 20.7833C16.0866 20.4943 15.743 20.3499 15.3919 20.3499C15.0558 20.3499 14.7346 20.4867 14.4284 20.7756L11.5826 23.3916C11.6274 24.7681 12.1801 25.4677 13.2931 25.4677H25.8115C27.1635 25.4677 27.8432 24.6996 27.8432 23.2396ZM13.3453 26H26.2671C27.8357 26 28.6125 25.2168 28.6125 23.6502V14.3574C28.6125 12.7909 27.8357 12 26.2671 12H13.3453C11.7843 12 11 12.7909 11 14.3574V23.6502C11 25.2168 11.7843 26 13.3453 26ZM13.3603 24.7756C12.6134 24.7756 12.2026 24.3727 12.2026 23.5817V14.4259C12.2026 13.635 12.6134 13.2243 13.3603 13.2243H26.2522C26.9917 13.2243 27.41 13.635 27.41 14.4259V23.5817C27.41 24.3727 26.9917 24.7756 26.2522 24.7756H13.3603Z" fill="white"/>
<path d="M16.5645 19.0737C17.528 19.0737 18.3198 18.2676 18.3198 17.279C18.3198 16.2981 17.528 15.4844 16.5645 15.4844C15.5935 15.4844 14.8018 16.2981 14.8018 17.279C14.8018 18.2676 15.5935 19.0737 16.5645 19.0737Z" fill="white"/>
</svg>
