<svg width="17" height="11" viewBox="0 0 17 11" fill="none" xmlns="http://www.w3.org/2000/svg">
<g clip-path="url(#clip0_2807_33770)">
<path d="M0 8.65973C0 10.0795 0.883724 11.0017 2.21511 11.0017C2.88954 11.0017 3.55814 10.6984 4.04651 10.0674L5.09883 8.73864C5.25 8.55057 5.42442 8.45955 5.59884 8.45955H11.1861C11.3604 8.45955 11.5349 8.55057 11.686 8.73864L12.7384 10.0674C13.2267 10.6984 13.8953 11.0017 14.5698 11.0017C15.9012 11.0017 16.7849 10.0795 16.7849 8.65973C16.7849 8.05304 16.6512 7.35527 16.4244 6.57263C16.0698 5.32882 15.4477 3.63605 14.8547 2.32551C14.3546 1.2334 14.0988 0.735886 12.8663 0.444657C11.7733 0.183764 10.2558 0.0078125 8.39537 0.0078125C6.5349 0.0078125 5.01163 0.183764 3.9186 0.444657C2.68605 0.735886 2.43023 1.2334 1.93023 2.32551C1.33721 3.63605 0.715115 5.32882 0.360465 6.57263C0.133721 7.35527 0 8.05304 0 8.65973ZM0.889534 8.69614C0.889534 8.31392 0.97093 7.8528 1.15698 7.1915C1.54651 5.796 2.22093 3.98795 2.80814 2.64708C3.09302 1.99788 3.25 1.60351 4.00582 1.42149C5.05814 1.16059 6.55812 0.984645 8.39537 0.984645C10.2267 0.984645 11.7268 1.16059 12.779 1.42149C13.5349 1.60351 13.6861 1.99788 13.9768 2.64708C14.5756 3.98795 15.2209 5.80207 15.6279 7.1915C15.8198 7.8528 15.8953 8.31392 15.8953 8.69614C15.8953 9.53345 15.3314 10.0613 14.5814 10.0613C14.1395 10.0613 13.7093 9.81862 13.3721 9.38782L12.2791 8.01055C12 7.65865 11.7674 7.4827 11.2267 7.4827H5.55814C5.01744 7.4827 4.78488 7.65865 4.50581 8.01055L3.41279 9.38782C3.07558 9.81862 2.64535 10.0613 2.20349 10.0613C1.45349 10.0613 0.889534 9.53345 0.889534 8.69614Z" fill="#5B5B5B"/>
<path d="M3.68555 4.28512C3.68555 4.60061 3.86578 4.79477 4.1681 4.79477H5.21462V5.85654C5.21462 6.16598 5.38322 6.36014 5.67392 6.36014C5.95882 6.36014 6.1332 6.16598 6.1332 5.85654V4.79477H7.11576C7.44136 4.79477 7.63324 4.60061 7.63324 4.28512C7.63324 3.98175 7.44136 3.79367 7.11576 3.79367H6.1332V2.73189C6.1332 2.42246 5.95882 2.23438 5.67392 2.23438C5.38322 2.23438 5.21462 2.42246 5.21462 2.73189V3.79367H4.1681C3.86578 3.79367 3.68555 3.98175 3.68555 4.28512ZM12.0053 4.22445C12.4762 4.22445 12.8541 3.83007 12.8541 3.34469C12.8541 2.85324 12.4762 2.45887 12.0053 2.45887C11.5402 2.45887 11.1565 2.85324 11.1565 3.34469C11.1565 3.83007 11.5402 4.22445 12.0053 4.22445ZM10.296 6.02036C10.7611 6.02036 11.1448 5.62598 11.1448 5.1406C11.1448 4.64915 10.7611 4.25478 10.296 4.25478C9.83091 4.25478 9.44715 4.64915 9.44715 5.1406C9.44715 5.62598 9.83091 6.02036 10.296 6.02036Z" fill="#5B5B5B"/>
</g>
<defs>
<clipPath id="clip0_2807_33770">
<rect width="17" height="11" fill="white"/>
</clipPath>
</defs>
</svg>
