<svg width="26" height="27" viewBox="0 0 26 27" fill="none" xmlns="http://www.w3.org/2000/svg">
<path d="M25.939 13.6403C25.939 12.5627 25.851 11.7764 25.6603 10.9609H13.2656V15.8245H20.541C20.3944 17.0332 19.6023 18.8535 17.8421 20.0766L17.8174 20.2394L21.7364 23.2534L22.0079 23.2803C24.5015 20.994 25.939 17.6302 25.939 13.6403Z" fill="#4285F4"/>
<path d="M13.266 26.459C16.8303 26.459 19.8226 25.294 22.0083 23.2845L17.8425 20.0808C16.7277 20.8526 15.2315 21.3914 13.266 21.3914C9.77497 21.3914 6.812 19.1052 5.75578 15.9453L5.60096 15.9584L1.52595 19.0892L1.47266 19.2362C3.64354 23.5174 8.10272 26.459 13.266 26.459Z" fill="#34A853"/>
<path d="M5.75374 15.9451C5.47505 15.1296 5.31376 14.2558 5.31376 13.353C5.31376 12.4502 5.47505 11.5765 5.73908 10.761L5.7317 10.5874L1.60562 7.40625L1.47062 7.47C0.575896 9.24657 0.0625 11.2416 0.0625 13.353C0.0625 15.4645 0.575896 17.4594 1.47062 19.236L5.75374 15.9451Z" fill="#FBBC05"/>
<path d="M13.266 5.31359C15.7449 5.31359 17.4171 6.3766 18.3705 7.26494L22.0963 3.65357C19.8081 1.54211 16.8303 0.246094 13.266 0.246094C8.10271 0.246094 3.64354 3.18757 1.47266 7.46872L5.74111 10.7597C6.812 7.59983 9.77497 5.31359 13.266 5.31359Z" fill="#EB4335"/>
</svg>
