<svg width="32" height="32" viewBox="0 0 32 32" fill="none" xmlns="http://www.w3.org/2000/svg">
<path d="M24.9999 16.1994C24.9999 15.4594 24.9386 14.9194 24.806 14.3594H16.1836V17.6994H21.2448C21.1428 18.5294 20.5917 19.7794 19.3672 20.6194L19.3501 20.7312L22.0763 22.801L22.2652 22.8195C23.9998 21.2494 24.9999 18.9394 24.9999 16.1994Z" fill="#4285F4"/>
<path d="M16.1845 25.0004C18.6641 25.0004 20.7457 24.2003 22.2661 22.8203L19.3682 20.6203C18.5927 21.1503 17.5518 21.5203 16.1845 21.5203C13.756 21.5203 11.6948 19.9503 10.96 17.7803L10.8523 17.7892L8.01754 19.9393L7.98047 20.0403C9.49065 22.9803 12.5927 25.0004 16.1845 25.0004Z" fill="#34A853"/>
<path d="M10.9591 17.7799C10.7653 17.2199 10.6531 16.6199 10.6531 15.9999C10.6531 15.3798 10.7653 14.7799 10.9489 14.2199L10.9438 14.1006L8.07348 11.916L7.97956 11.9598C7.35715 13.1798 7 14.5499 7 15.9999C7 17.4499 7.35715 18.8199 7.97956 20.0399L10.9591 17.7799Z" fill="#FBBC05"/>
<path d="M16.1845 10.48C17.909 10.48 19.0722 11.21 19.7355 11.8201L22.3273 9.34003C20.7355 7.89001 18.6641 7 16.1845 7C12.5927 7 9.49065 9.02001 7.98047 11.96L10.9498 14.2201C11.6948 12.0501 13.756 10.48 16.1845 10.48Z" fill="#EB4335"/>
</svg>
