<svg width="30" height="30" viewBox="0 0 30 30" fill="none" xmlns="http://www.w3.org/2000/svg">
<g clip-path="url(#clip0_4078_6009)">
<path d="M19.3553 6.13724C17.5572 6.62258 16.7429 7.86037 16.694 10.1926L16.6647 11.5444L14.1142 11.5607L11.5637 11.577L11.5474 14.1275L11.5312 16.678L10.1794 16.7073C7.92203 16.7561 6.76568 17.4695 6.18587 19.1731C4.96763 22.7464 9.45298 25.5607 12.15 22.9158C13.0523 22.0298 13.225 21.5216 13.2445 19.6747L13.2575 18.4174L14.9676 18.4011L16.6777 18.3816V19.5412C16.681 21.2838 16.883 21.9679 17.6452 22.7724C20.5149 25.805 25.4074 22.463 23.5768 18.7203C22.8765 17.2871 21.694 16.6943 19.5279 16.691H18.3716V15.007V13.3197L19.6908 13.2903C21.4823 13.2447 22.1729 12.9972 22.9709 12.1112C25.4139 9.39457 22.8667 5.1861 19.3553 6.13724ZM21.0719 7.85711C22.5507 8.47601 22.3053 10.6073 21.1598 11.3457C20.9131 11.5048 20.6113 11.5444 20.3177 11.5444H19.567H18.3716V10.577C18.3716 9.36526 18.4367 9.00369 18.7364 8.56721C19.251 7.81802 20.251 7.51509 21.0719 7.85711ZM16.6777 14.9972V16.6943L14.9676 16.6747L13.2575 16.6584L13.2413 14.9809L13.2217 13.3034H14.9514H16.6777V14.9972ZM11.5312 19.5803V20.7757L11.3292 21.1796C10.4237 22.9907 7.7331 22.336 7.72659 20.3066C7.72333 19.7594 7.87643 19.3946 8.27708 18.9907C8.78197 18.4793 9.07187 18.4044 10.5051 18.3913L11.5312 18.3848V19.5803ZM21.0751 18.5705C21.7592 18.8799 22.1533 19.4434 22.2022 20.1796C22.3422 22.3588 19.453 23.0526 18.5442 21.0591C18.4074 20.7594 18.2934 18.7464 18.3976 18.476C18.466 18.2969 20.6419 18.3718 21.0751 18.5705Z" fill="#B5B5B5"/>
</g>
<defs>
<clipPath id="clip0_4078_6009">
<rect width="18" height="18" fill="white" transform="translate(6 6)"/>
</clipPath>
</defs>
</svg>
