<svg width="20" height="20" viewBox="0 0 20 20" fill="none" xmlns="http://www.w3.org/2000/svg">
<g clip-path="url(#clip0_1627_30201)">
<path d="M10.1718 6.8573L9.07602 7.98471C9.94892 8.10686 10.5154 8.38871 10.9425 8.82088C12.1869 10.0798 12.1869 11.8462 10.9611 13.0863L8.58386 15.4914C7.3488 16.741 5.60301 16.741 4.35867 15.4914C3.10505 14.2231 3.11434 12.4568 4.34938 11.2167L5.60301 9.94831C5.37086 9.40339 5.31514 8.78331 5.38015 8.25718L3.34649 10.3147C1.55427 12.1186 1.54498 14.6835 3.35577 16.5061C5.15728 18.3382 7.6831 18.3288 9.47532 16.5155L11.964 13.9882C13.7469 12.1843 13.7562 9.62887 11.9548 7.79681C11.5462 7.38342 11.0168 7.07339 10.1718 6.8573ZM9.4846 13.0111L10.5711 11.8931C9.69818 11.7709 9.13173 11.4891 8.71386 11.0569C7.46952 9.79799 7.46952 8.03169 8.69529 6.79153L11.0725 4.38637C12.3075 3.13681 14.0534 3.12742 15.2977 4.38637C16.5421 5.65472 16.5328 7.42101 15.307 8.66117L14.0534 9.92952C14.2855 10.4744 14.3412 11.0945 14.2763 11.6206L16.3099 9.56311C18.1021 7.74984 18.1114 5.19435 16.3006 3.37169C14.4991 1.53964 11.964 1.54903 10.1811 3.3623L7.69239 5.8896C5.90945 7.69347 5.89088 10.249 7.70167 12.081C8.11026 12.4944 8.63957 12.8045 9.4846 13.0111Z" fill="#B5B5B5" fill-opacity="0.85"/>
</g>
<defs>
<clipPath id="clip0_1627_30201">
<rect width="16" height="16" fill="white" transform="translate(2 2)"/>
</clipPath>
</defs>
</svg>
