<svg width="3" height="15" viewBox="0 0 3 15" fill="none" xmlns="http://www.w3.org/2000/svg">
<path d="M3 13.5C3 12.6677 2.33227 12 1.5 12C0.667743 12 0 12.6677 0 13.5C0 14.3323 0.667743 15 1.5 15C2.33227 15 3 14.3323 3 13.5Z" fill="#8D8D8D"/>
<path d="M3 7.5C3 6.66774 2.33227 6 1.5 6C0.667743 6 0 6.66774 0 7.5C0 8.33226 0.667743 9 1.5 9C2.33227 9 3 8.33226 3 7.5Z" fill="#8D8D8D"/>
<path d="M3 1.50005C3 0.667723 2.33227 0 1.5 0C0.667743 0 0 0.667723 0 1.50005C0 2.32256 0.667743 3 1.5 3C2.33227 3 3 2.32256 3 1.50005Z" fill="#8D8D8D"/>
</svg>
