<svg width="32" height="32" viewBox="0 0 32 32" fill="none" xmlns="http://www.w3.org/2000/svg">
<path d="M9.76591 6H22.2341C24.8645 6 27 8.13554 27 10.7659V23.2341C27 25.8645 24.8645 28 22.2341 28H9.76591C7.13554 28 5 25.8645 5 23.2341V10.7659C5 8.13554 7.13554 6 9.76591 6Z" fill="#FFD02F"/>
<path d="M20.282 8.75H17.8672L19.8784 12.2843L15.4524 8.75H13.0376L15.2506 13.0719L10.6228 8.75H8.20801L10.6228 14.25L8.20801 25.25H10.6228L15.2506 13.4624L13.0376 25.25H15.4524L19.8784 12.6814L17.8672 25.25H20.282L24.708 11.4967L20.282 8.75Z" fill="#050038"/>
</svg>
