<svg width="33" height="33" viewBox="0 0 33 33" fill="none" xmlns="http://www.w3.org/2000/svg">
<path d="M6.99993 0.207031H25.3126C29.1759 0.207031 32.3125 3.31674 32.3125 7.147V25.3028C32.3125 29.133 29.1759 32.2427 25.3126 32.2427H6.99993C3.13658 32.2427 0 29.133 0 25.3028V7.147C0 3.31674 3.13658 0.207031 6.99993 0.207031Z" fill="#FFD02F"/>
<path d="M22.4446 4.21094H18.8978L21.8519 9.3575L15.3511 4.21094H11.8044L15.0548 10.5043L8.25767 4.21094H4.71094L8.25767 12.2199L4.71094 28.2377H8.25767L15.0548 11.073L11.8044 28.2377H15.3511L21.8519 9.93566L18.8978 28.2377H22.4446L28.9453 8.21066L22.4446 4.21094Z" fill="#050038"/>
</svg>
