<svg width="31" height="30" viewBox="0 0 31 30" fill="none" xmlns="http://www.w3.org/2000/svg">
<path fill-rule="evenodd" clip-rule="evenodd" d="M5.43025 28.2487L2.06254 24.0892C1.25227 23.0885 0.8125 21.8579 0.8125 20.5913V5.52976C0.8125 3.63252 2.34352 2.05824 4.31861 1.92454L19.9377 0.867295C21.0724 0.790489 22.2002 1.08952 23.1324 1.71432L28.6201 5.39281C29.6024 6.05127 30.1875 7.12767 30.1875 8.27636V25.3999C30.1875 27.2566 28.6821 28.7938 26.7483 28.9119L9.41284 29.9698C7.86968 30.064 6.37807 29.4194 5.43025 28.2487Z" fill="white"/>
<path d="M10.8486 13.0646V12.8675C10.8486 12.3676 11.2524 11.9531 11.7728 11.9186L15.5635 11.6677L20.8056 19.3211V12.6039L19.4563 12.4256V12.332C19.4563 11.8262 19.8693 11.409 20.3964 11.3822L23.8455 11.207V11.6991C23.8455 11.9301 23.6722 12.1277 23.4348 12.1675L22.6047 12.3067V23.185L21.5631 23.5401C20.6928 23.8369 19.724 23.5192 19.2258 22.774L14.1366 15.16V22.4271L15.703 22.7243L15.6813 22.8683C15.6128 23.3195 15.2199 23.6609 14.7446 23.6818L10.8486 23.8538C10.7971 23.3685 11.1639 22.9344 11.6699 22.8817L12.1824 22.8283V13.1389L10.8486 13.0646Z" fill="black"/>
<path fill-rule="evenodd" clip-rule="evenodd" d="M20.0768 2.761L4.45767 3.81825C3.5221 3.88158 2.79688 4.6273 2.79688 5.52599V20.5875C2.79688 21.4319 3.09006 22.2523 3.63023 22.9195L6.99795 27.0789C7.54245 27.7514 8.39932 28.1218 9.28582 28.0677L26.6212 27.0097C27.5097 26.9555 28.2014 26.2491 28.2014 25.3961V8.27258C28.2014 7.7448 27.9326 7.25024 27.4812 6.94771L21.9936 3.26921C21.4343 2.89434 20.7576 2.71492 20.0768 2.761ZM5.23219 5.76092C5.01495 5.60146 5.11834 5.26927 5.39124 5.24987L20.1818 4.19808C20.6531 4.16456 21.1214 4.29322 21.5024 4.56092L24.4701 6.64543C24.5827 6.72457 24.5299 6.89541 24.3904 6.90293L8.72723 7.74749C8.25321 7.77305 7.78533 7.63498 7.40843 7.35834L5.23219 5.76092ZM7.99256 10.3951C7.99256 9.89062 8.40365 9.47393 8.92933 9.44555L25.4897 8.55138C26.0021 8.52372 26.4333 8.91434 26.4333 9.40602V24.2332C26.4333 24.7367 26.0237 25.153 25.4991 25.1826L9.04351 26.1109C8.47336 26.1431 7.99256 25.7087 7.99256 25.1615V10.3951Z" fill="black"/>
</svg>
