<svg width="32" height="32" viewBox="0 0 32 32" fill="none" xmlns="http://www.w3.org/2000/svg">
<path fill-rule="evenodd" clip-rule="evenodd" d="M9.144 24.8119L6.85109 21.9554C6.29942 21.2682 6 20.4231 6 19.5533V9.20999C6 7.90709 7.04239 6.82598 8.38714 6.73417L19.0214 6.00812C19.794 5.95538 20.5619 6.16073 21.1965 6.5898L24.9328 9.11594C25.6017 9.56813 26 10.3073 26 11.0962V22.8555C26 24.1305 24.9751 25.1862 23.6584 25.2673L11.8556 25.9938C10.8049 26.0585 9.78933 25.6158 9.144 24.8119Z" fill="white"/>
<path d="M12.8324 14.386V14.2506C12.8324 13.9074 13.1073 13.6227 13.4617 13.599L16.0425 13.4267L19.6117 18.6826V14.0696L18.693 13.9472V13.8829C18.693 13.5356 18.9742 13.249 19.3331 13.2306L21.6814 13.1104V13.4483C21.6814 13.6069 21.5634 13.7426 21.4017 13.77L20.8366 13.8656V21.336L20.1274 21.5799C19.5349 21.7837 18.8753 21.5656 18.5361 21.0538L15.0711 15.825V20.8156L16.1375 21.0196L16.1227 21.1186C16.0761 21.4284 15.8086 21.6628 15.485 21.6772L12.8324 21.7953C12.7973 21.462 13.0471 21.164 13.3916 21.1278L13.7405 21.0911V14.437L12.8324 14.386Z" fill="black"/>
<path fill-rule="evenodd" clip-rule="evenodd" d="M19.1166 7.31054L8.48232 8.03658C7.84533 8.08008 7.35156 8.59218 7.35156 9.20934V19.5526C7.35156 20.1325 7.55118 20.6959 7.91896 21.1541L10.2119 24.0105C10.5826 24.4723 11.166 24.7266 11.7696 24.6895L23.5724 23.963C24.1773 23.9257 24.6483 23.4406 24.6483 22.8548V11.0955C24.6483 10.7331 24.4653 10.3935 24.1579 10.1857L20.4217 7.65954C20.0409 7.4021 19.5801 7.27889 19.1166 7.31054ZM9.00965 9.37068C8.86174 9.26118 8.93214 9.03305 9.11794 9.01972L19.1881 8.29742C19.509 8.27441 19.8278 8.36276 20.0873 8.5466L22.1078 9.9781C22.1845 10.0325 22.1485 10.1498 22.0535 10.1549L11.3892 10.7349C11.0665 10.7525 10.748 10.6577 10.4913 10.4677L9.00965 9.37068ZM10.889 12.5532C10.889 12.2067 11.1689 11.9205 11.5268 11.901L22.802 11.287C23.1509 11.268 23.4445 11.5362 23.4445 11.8739V22.0562C23.4445 22.402 23.1656 22.6879 22.8084 22.7082L11.6046 23.3457C11.2164 23.3678 10.889 23.0695 10.889 22.6937V12.5532Z" fill="black"/>
</svg>
