<svg width="21" height="10" viewBox="0 0 21 10" fill="none" xmlns="http://www.w3.org/2000/svg">
<g clip-path="url(#clip0_7_6757)">
<path d="M0 4.55555C0 7.0766 2.03453 9.11115 4.55556 9.11115H16.1789C18.6999 9.11115 20.7345 7.0766 20.7345 4.55555C20.7345 2.03452 18.6999 0 16.1789 0C13.6579 0 11.6145 2.03452 11.6145 4.55555C11.6145 5.81165 12.1187 6.94391 12.9502 7.75773H7.78428C8.61578 6.94391 9.11999 5.81165 9.11999 4.55555C9.11999 2.03452 7.08547 0 4.55556 0C2.03453 0 0 2.03452 0 4.55555ZM1.36225 4.54671C1.36225 2.77757 2.79526 1.34456 4.56443 1.34456C6.33358 1.34456 7.76657 2.77757 7.76657 4.54671C7.76657 6.32474 6.33358 7.75773 4.56443 7.75773C2.79526 7.75773 1.36225 6.32474 1.36225 4.54671ZM12.9679 4.54671C12.9679 2.77757 14.4009 1.34456 16.1701 1.34456C17.9392 1.34456 19.3811 2.77757 19.3811 4.54671C19.3811 6.32474 17.9392 7.75773 16.1701 7.75773C14.4009 7.75773 12.9679 6.32474 12.9679 4.54671Z" fill="#B5B5B5"/>
</g>
<defs>
<clipPath id="clip0_7_6757">
<rect width="20.8583" height="9.11999" fill="white"/>
</clipPath>
</defs>
</svg>
