<svg width="12" height="13" viewBox="0 0 12 13" fill="none" xmlns="http://www.w3.org/2000/svg">
<g clip-path="url(#clip0_1661_30865)">
<path d="M6.72216 12.4993C7.10872 12.4993 7.38252 12.1628 7.58122 11.6418L11.0979 2.3555C11.1946 2.10584 11.2483 1.88331 11.2483 1.69878C11.2483 1.34601 11.0336 1.12891 10.6846 1.12891C10.502 1.12891 10.2819 1.18318 10.0349 1.28088L0.8 4.85754C0.348993 5.03122 0 5.30801 0 5.70421C0 6.20355 0.375839 6.37178 0.891272 6.52917L4.76778 7.67978L5.89532 11.5495C6.05635 12.0977 6.22283 12.4993 6.72216 12.4993ZM5.00939 6.8548L1.3047 5.70964C1.21879 5.6825 1.19195 5.66079 1.19195 5.6228C1.19195 5.58481 1.21342 5.55767 1.29396 5.52511L8.55299 2.74628C8.98254 2.58345 9.39594 2.36636 9.79328 2.18182C9.43893 2.47491 8.99865 2.82226 8.70336 3.12077L5.00939 6.8548ZM6.80804 11.3053C6.7651 11.3053 6.7436 11.2673 6.71677 11.1805L5.58386 7.43557L9.27784 3.7015C9.56775 3.40842 9.92748 2.95252 10.2121 2.58345C10.0295 2.99594 9.80939 3.41385 9.64829 3.85347L6.8993 11.1913C6.86709 11.2728 6.84564 11.3053 6.80804 11.3053Z" fill="white"/>
</g>
<defs>
<clipPath id="clip0_1661_30865">
<rect width="12" height="12" fill="white" transform="translate(0 0.5)"/>
</clipPath>
</defs>
</svg>
