<svg width="20" height="20" viewBox="0 0 20 20" fill="none" xmlns="http://www.w3.org/2000/svg">
<path d="M8.84881 16.9909H10.133C10.4973 16.9909 10.7614 16.7723 10.8525 16.4171L11.2259 14.8233C11.5264 14.7231 11.8088 14.6138 12.0637 14.4864L13.4572 15.3424C13.7487 15.5246 14.1038 15.4973 14.3497 15.2514L15.2514 14.3497C15.4973 14.1038 15.5337 13.7304 15.3333 13.4299L14.4864 12.0455C14.6138 11.7905 14.7322 11.5082 14.8142 11.2441L16.4263 10.8616C16.7723 10.7796 16.9818 10.5155 16.9818 10.1421V8.88524C16.9818 8.53005 16.7723 8.26593 16.4263 8.18397L14.8324 7.79235C14.7322 7.48269 14.6047 7.20947 14.5045 6.98178L15.3515 5.57012C15.5337 5.26047 15.5246 4.9235 15.2696 4.66849L14.3497 3.76685C14.0948 3.53916 13.776 3.47541 13.4845 3.65755L12.0637 4.53187C11.8178 4.40436 11.5355 4.29508 11.2259 4.1949L10.8525 2.57377C10.7614 2.21858 10.4973 2 10.133 2H8.84881C8.48451 2 8.22039 2.21858 8.13843 2.57377L7.75592 4.17668C7.46448 4.27687 7.16393 4.38615 6.91803 4.52277L5.50638 3.65755C5.20583 3.47541 4.87796 3.52095 4.63206 3.76685L3.7122 4.66849C3.45719 4.9235 3.44808 5.26047 3.63024 5.57012L4.47723 6.98178C4.37705 7.20947 4.24954 7.48269 4.15846 7.79235L2.56466 8.18397C2.20947 8.26593 2 8.53005 2 8.88524V10.1421C2 10.5155 2.20947 10.7796 2.56466 10.8616L4.17668 11.2441C4.24954 11.5082 4.36794 11.7905 4.49544 12.0455L3.64845 13.4299C3.44808 13.7304 3.48452 14.1038 3.73042 14.3497L4.63206 15.2514C4.87796 15.4973 5.23315 15.5246 5.53369 15.3424L6.92713 14.4864C7.17304 14.6138 7.46448 14.7231 7.75592 14.8233L8.13843 16.4171C8.22039 16.7723 8.48451 16.9909 8.84881 16.9909ZM9.49544 12C8.1111 12 6.99089 10.8707 6.99089 9.49544C6.99089 8.12021 8.1111 6.99089 9.49544 6.99089C10.8707 6.99089 11.9909 8.12021 11.9909 9.49544C11.9909 10.8707 10.8707 12 9.49544 12Z" fill="#B5B5B5"/>
</svg>
