<svg width="25" height="19" viewBox="0 0 25 19" fill="none" xmlns="http://www.w3.org/2000/svg">
<g clip-path="url(#clip0_7_6763)">
<path d="M4.73669 11.1093V13.1358C4.73669 14.0392 4.27279 14.4909 3.34498 14.4909H1.39171C0.463902 14.4909 0 14.0392 0 13.1358V11.1093C0 10.2059 0.463902 9.75415 1.39171 9.75415H3.34498C4.27279 9.75415 4.73669 10.2059 4.73669 11.1093Z" fill="#B5B5B5"/>
<path d="M12.4765 1.35508V2.60481C10.1408 2.76974 8.1672 4.79513 8.1561 7.44687H4.04081C3.1008 7.44687 2.6369 6.99518 2.6369 6.07956V1.35508C2.6369 0.451694 3.1008 0 4.04081 0H11.0848C12.0248 0 12.4765 0.451694 12.4765 1.35508Z" fill="#B5B5B5"/>
<path d="M24.0741 5.59121V11.2435C24.0741 12.1591 23.6102 12.6108 22.6702 12.6108H19.8135C18.8857 12.6108 18.4218 12.1591 18.4218 11.2435V5.59121C18.4218 4.67563 18.8857 4.22394 19.8135 4.22394H22.6702C23.6102 4.22394 24.0741 4.67563 24.0741 5.59121Z" fill="#B5B5B5"/>
<path d="M15.5046 7.44687C15.5046 9.20981 14.1791 10.4994 12.7939 10.4994C11.4066 10.4994 10.0832 9.20747 10.0832 7.47127C10.0832 5.73823 11.3921 4.51642 12.7939 4.51642C14.2004 4.51642 15.5046 5.7186 15.5046 7.44687ZM18.1044 17.9218H7.47128C7.09272 17.9218 6.85982 17.8352 6.73341 17.7382C6.62428 17.6545 6.55518 17.535 6.55518 17.3353C6.55518 16.4971 7.09654 15.396 8.18825 14.4858C9.26468 13.5883 10.8362 12.9155 12.7939 12.9155C14.7517 12.9155 16.3232 13.5883 17.3997 14.4858C18.4914 15.396 19.0328 16.4971 19.0328 17.3353C19.0328 17.5309 18.9638 17.6508 18.8508 17.7364C18.7204 17.8352 18.4829 17.9218 18.1044 17.9218Z" stroke="#B5B5B5"/>
</g>
<defs>
<clipPath id="clip0_7_6763">
<rect width="25" height="19" fill="white"/>
</clipPath>
</defs>
</svg>
