<svg width="32" height="32" viewBox="0 0 32 32" fill="none" xmlns="http://www.w3.org/2000/svg">
<path fill-rule="evenodd" clip-rule="evenodd" d="M21.9 15.9C18.7 14 13.35 13.8 10.3 14.75C9.8 14.9 9.3 14.6 9.15 14.15C9 13.65 9.3 13.15 9.75 13C13.3 11.95 19.15 12.15 22.85 14.35C23.3 14.6 23.45 15.2 23.2 15.65C22.95 16 22.35 16.15 21.9 15.9ZM21.8 18.7C21.55 19.05 21.1 19.2 20.75 18.95C18.05 17.3 13.95 16.8 10.8 17.8C10.4 17.9 9.95 17.7 9.85 17.3C9.75 16.9 9.95 16.45 10.35 16.35C14 15.25 18.5 15.8 21.6 17.7C21.9 17.85 22.05 18.35 21.8 18.7ZM20.6 21.45C20.4 21.75 20.05 21.85 19.75 21.65C17.4 20.2 14.45 19.9 10.95 20.7C10.6 20.8 10.3 20.55 10.2 20.25C10.1 19.9 10.35 19.6 10.65 19.5C14.45 18.65 17.75 19 20.35 20.6C20.7 20.75 20.75 21.15 20.6 21.45ZM16 7C10.5 7 6 11.5 6 17C6 22.5 10.5 27 16 27C21.5 27 26 22.5 26 17C26 11.5 21.55 7 16 7Z" fill="#00DA5A"/>
</svg>
