<svg width="16" height="16" viewBox="0 0 16 16" fill="none" xmlns="http://www.w3.org/2000/svg">
<path d="M3.00067 14.8421C3.3301 15.0914 3.73076 14.9935 4.21154 14.6463L7.83526 11.9841L11.4679 14.6463C11.9398 14.9935 12.3405 15.0914 12.6699 14.8421C12.9904 14.6017 13.0527 14.1922 12.8569 13.6401L11.4234 9.37537L15.0827 6.74884C15.5635 6.41942 15.7682 6.05437 15.6347 5.66262C15.51 5.28867 15.1361 5.1106 14.5485 5.1106H10.0612L8.69891 0.854735C8.52083 0.293815 8.24482 0 7.83526 0C7.43461 0 7.15859 0.293815 6.97163 0.854735L5.6094 5.1106H1.12203C0.534402 5.1106 0.16936 5.28867 0.0358071 5.66262C-0.0888418 6.05437 0.115939 6.41942 0.587823 6.74884L4.24715 9.37537L2.8137 13.6401C2.61782 14.1922 2.68014 14.6017 3.00067 14.8421Z" fill="#B5B5B5"/>
</svg>
