<svg width="18" height="18" viewBox="0 0 18 18" fill="none" xmlns="http://www.w3.org/2000/svg">
<path d="M16.5637 1.35572C14.559 -0.659125 11.0382 -0.39455 8.71806 1.92557C7.37482 3.27898 6.8253 4.93766 6.78462 6.60652C6.72356 9.08944 6.52003 10.5141 4.25079 12.7731L5.14627 13.6584C7.40533 11.3994 8.81981 11.2366 11.3027 11.1348C12.992 11.0636 14.6303 10.5446 15.9837 9.19123C18.3038 6.8609 18.5684 3.36038 16.5637 1.35572ZM15.597 2.32244C17.1641 3.89969 16.9911 6.26053 15.017 8.22448C13.0326 10.1986 10.6718 10.392 9.10474 8.81468C7.52745 7.25778 7.71064 4.8766 9.68476 2.90246C11.6487 0.938501 14.0299 0.755335 15.597 2.32244ZM8.12782 9.78143C8.33135 10.0155 8.58577 10.1884 8.84015 10.3615C8.1482 10.4835 7.48677 10.7176 6.80496 11.1145C7.20184 10.4327 7.42571 9.77126 7.54779 9.08944C7.71064 9.34386 7.91413 9.56773 8.12782 9.78143ZM0.516217 16.8232L1.05554 17.3727C1.47276 17.7797 2.07314 17.7797 2.49035 17.3727L5.63473 14.2181C6.04178 13.8009 6.04178 13.2005 5.63473 12.7935L5.09542 12.2542C4.6782 11.837 4.0778 11.837 3.67077 12.2542L0.516217 15.4087C0.109178 15.8158 0.109178 16.4161 0.516217 16.8232ZM7.51728 6.53529L7.93451 6.95251L13.7348 1.1522L13.3176 0.724807L7.51728 6.53529ZM7.94468 8.38729L8.37207 8.80451L15.5868 1.59994L15.1798 1.17255L7.94468 8.38729ZM9.09457 9.54739L9.53213 9.96457L16.7469 2.74983L16.3297 2.31226L9.09457 9.54739ZM10.9567 9.97474L11.3841 10.4021L17.1845 4.60184L16.7571 4.18462L10.9567 9.97474ZM12.5849 0.887621L16.9606 5.26328L17.3778 4.84609L13.0021 0.470409L12.5849 0.887621ZM10.8347 1.31501L16.5942 7.08477L17.0318 6.65741L11.262 0.887621L10.8347 1.31501ZM9.73566 2.36314L15.536 8.1838L15.9735 7.75641L10.1631 1.93575L9.73566 2.36314ZM8.72823 3.38073L14.5285 9.19123L14.9661 8.76383L9.14542 2.94317L8.72823 3.38073ZM7.66992 4.47972L13.4397 10.2393L13.8569 9.82211L8.08714 4.05237L7.66992 4.47972ZM7.24252 6.21985L11.6284 10.6057L12.0558 10.1681L7.66992 5.79245L7.24252 6.21985Z" fill="white"/>
</svg>
