<svg width="15" height="15" viewBox="0 0 15 15" fill="none" xmlns="http://www.w3.org/2000/svg">
<path d="M7.62563 14.2338L13.8189 8.03248C14.3235 7.52789 14.356 7.22678 14.356 6.55943V4.13422C14.356 3.41807 14.1689 3.19834 13.6806 2.71818L12.2319 1.26143C11.7518 0.781272 11.5239 0.594093 10.8159 0.594093H8.39063C7.7233 0.594093 7.42219 0.618507 6.91761 1.12308L0.716188 7.32445C-0.227861 8.26848 -0.252276 9.24508 0.724325 10.2054L4.74465 14.2257C5.72126 15.1942 6.6816 15.186 7.62563 14.2338ZM9.72532 5.82701C9.19633 5.82701 8.79755 5.41196 8.79755 4.89111C8.79755 4.3784 9.19633 3.96332 9.72532 3.96332C10.2625 3.96332 10.6613 4.3784 10.6613 4.89111C10.6613 5.41196 10.2625 5.82701 9.72532 5.82701Z" fill="#B5B5B5"/>
</svg>
