<svg width="24" height="18" viewBox="0 0 24 18" fill="none" xmlns="http://www.w3.org/2000/svg">
<g clip-path="url(#clip0_7_6749)">
<path d="M13.5762 3.24669V3.66773H13.3797C12.9563 3.66773 12.5675 3.71889 12.2196 3.82095V3.28412C12.2196 1.9555 11.4617 1.25376 10.2173 1.25376H3.34961C2.11456 1.25376 1.34733 1.9555 1.34733 3.28412V7.4103C1.34733 8.73892 2.11456 9.42197 3.34961 9.42197H4.13555C4.49112 9.42197 4.78116 9.63716 4.78116 10.1143V11.9856L7.21382 9.80556C7.53195 9.52487 7.72843 9.42197 8.17755 9.42197H10.0956V10.6851H8.13076L5.6326 12.8184C5.11799 13.2674 4.84665 13.492 4.43498 13.492C3.84551 13.492 3.52739 13.0804 3.52739 12.4441V10.6851H3.28412C1.32862 10.6851 0 9.48747 0 7.42904V3.24669C0 1.19763 1.32862 0 3.28412 0H10.2828C12.2383 0 13.5762 1.19763 13.5762 3.24669Z" fill="#B5B5B5"/>
<path d="M7.67228 2.70402L9.45001 7.4758C9.61845 7.94362 9.36582 8.36469 8.87925 8.36469C8.56116 8.36469 8.36468 8.19625 8.25239 7.84072L7.84071 6.63374H5.74484L5.34252 7.84072C5.22088 8.19625 5.02443 8.36469 4.7063 8.36469C4.22913 8.36469 3.96714 7.94362 4.14489 7.4758L5.90393 2.70402C6.05362 2.29234 6.3624 2.06778 6.78343 2.06778C7.2138 2.06778 7.52258 2.29234 7.67228 2.70402ZM6.08167 5.62325H7.50388L6.78825 3.51261L6.08167 5.62325Z" fill="#B5B5B5"/>
<path d="M23.6625 6.91442V11.0968C23.6625 13.1552 22.3339 14.3528 20.3784 14.3528H20.1445V16.1118C20.1445 16.7481 19.817 17.1597 19.2369 17.1597C18.8252 17.1597 18.5539 16.9352 18.0299 16.4861L15.5317 14.3528H13.3797C11.3307 14.3528 10.0956 13.1552 10.0956 11.1061V6.91442C10.0956 4.86535 11.3307 3.66772 13.3797 3.66772H20.3784C22.3339 3.66772 23.6625 4.86535 23.6625 6.91442ZM14.4464 7.26995C14.1096 7.26995 13.8569 7.50388 13.8569 7.82201C13.8569 8.1401 14.1096 8.37403 14.4464 8.37403H14.9797C15.1855 9.09449 15.5505 9.76815 16.0557 10.3389C15.5692 10.6476 14.9891 10.8816 14.3341 11.0406C14.016 11.1155 13.8195 11.4242 13.885 11.7611C13.9786 12.0792 14.2967 12.2289 14.6429 12.1353C15.4569 11.9576 16.2335 11.6207 16.9071 11.1248C17.5527 11.6114 18.32 11.9576 19.0685 12.1353C19.4708 12.2195 19.7983 12.0979 19.8825 11.7611C19.9854 11.3962 19.817 11.1155 19.4521 11.0406C18.8065 10.8909 18.2358 10.657 17.7399 10.3389C18.2451 9.78685 18.61 9.11319 18.8065 8.37403H19.3398C19.686 8.37403 19.9386 8.1401 19.9386 7.82201C19.9386 7.50388 19.686 7.26995 19.3398 7.26995H14.4464ZM16.9071 9.63716C16.5797 9.26288 16.3177 8.84185 16.1399 8.37403H17.6463C17.4779 8.8325 17.2253 9.25353 16.9071 9.63716ZM16.1399 5.26767C15.8592 5.39867 15.7282 5.7355 15.8779 6.04427L16.2054 6.73664C16.3364 7.02671 16.6732 7.14831 16.9633 7.01732C17.2721 6.86763 17.3937 6.5308 17.2533 6.24076L16.9165 5.55775C16.7574 5.23962 16.4393 5.09928 16.1399 5.26767Z" fill="#B5B5B5"/>
</g>
<defs>
<clipPath id="clip0_7_6749">
<rect width="24" height="18" fill="white"/>
</clipPath>
</defs>
</svg>
