<svg width="20" height="20" viewBox="0 0 20 20" fill="none" xmlns="http://www.w3.org/2000/svg">
<path d="M16.7695 3.92773C15.9395 3.10742 14.7676 3 13.5176 3H7.16992C5.91992 3 4.74805 3.10742 3.91797 3.92773C3.09766 4.75781 3 5.91992 3 7.16992V13.5176C3 14.7773 3.09766 15.9297 3.91797 16.7598C4.74805 17.5801 5.91016 17.6875 7.16992 17.6875H13.5176C14.7676 17.6875 15.9395 17.5801 16.7695 16.7598C17.5898 15.9297 17.6875 14.7773 17.6875 13.5176V7.16992C17.6875 5.91016 17.5898 4.75781 16.7695 3.92773ZM16.2812 6.95508V13.7324C16.2812 14.4453 16.2031 15.2754 15.7441 15.7344C15.2852 16.1934 14.4453 16.2812 13.7324 16.2812H6.95508C6.24219 16.2812 5.40234 16.1934 4.94336 15.7344C4.48438 15.2754 4.40625 14.4453 4.40625 13.7324V6.96484C4.40625 6.24219 4.48438 5.41211 4.94336 4.95312C5.40234 4.49414 6.24219 4.40625 6.96484 4.40625H13.7324C14.4453 4.40625 15.2852 4.49414 15.7441 4.95312C16.2031 5.41211 16.2812 6.24219 16.2812 6.95508Z" fill="#5B5B5B"/>
<path d="M6.29102 14.8262H14.3867C14.6895 14.8262 14.9238 14.5918 14.9238 14.2891C14.9238 13.9961 14.6895 13.7617 14.3867 13.7617H6.29102C5.99805 13.7617 5.75391 13.9961 5.75391 14.2891C5.75391 14.5918 5.99805 14.8262 6.29102 14.8262ZM6.87695 9.03516H8.53711C9.20117 9.03516 9.66016 8.57617 9.66016 7.91211V6.74023C9.66016 6.07617 9.20117 5.61719 8.53711 5.61719H6.87695C6.21289 5.61719 5.75391 6.07617 5.75391 6.74023V7.91211C5.75391 8.57617 6.21289 9.03516 6.87695 9.03516Z" fill="#5B5B5B"/>
</svg>
