<svg width="18" height="18" viewBox="0 0 18 18" fill="none" xmlns="http://www.w3.org/2000/svg">
<path d="M0.5 9C0.5 4.30558 4.30558 0.5 9 0.5C13.6944 0.5 17.5 4.30558 17.5 9C17.5 13.6944 13.6944 17.5 9 17.5C4.30558 17.5 0.5 13.6944 0.5 9Z" fill="#8BCF16" fill-opacity="0.3"/>
<path d="M0.5 9C0.5 4.30558 4.30558 0.5 9 0.5C13.6944 0.5 17.5 4.30558 17.5 9C17.5 13.6944 13.6944 17.5 9 17.5C4.30558 17.5 0.5 13.6944 0.5 9Z" stroke="#8BCF16"/>
<path d="M6.96552 10.6002L10.5994 6.9663C10.7827 6.78301 10.7602 6.60551 10.6447 6.49009C10.5967 6.44201 10.5315 6.4033 10.455 6.37974L5.40577 4.98515C5.28344 4.94975 5.16182 4.99443 5.07867 5.07757C4.99363 5.16262 4.95085 5.28234 4.98436 5.40656L6.38084 10.4539C6.40439 10.5304 6.44121 10.5975 6.48929 10.6455C6.60472 10.761 6.78222 10.7835 6.96552 10.6002Z" fill="#5D9400"/>
<path d="M11.0345 7.39979L7.40057 11.0337C7.21729 11.217 7.23983 11.3945 7.35525 11.5099C7.40333 11.558 7.46851 11.5967 7.54497 11.6203L12.5942 13.0148C12.7166 13.0503 12.8382 13.0056 12.9213 12.9224C13.0064 12.8374 13.0492 12.7177 13.0156 12.5934L11.6192 7.54606C11.5956 7.4696 11.5588 7.40254 11.5107 7.35446C11.3953 7.23903 11.2178 7.21649 11.0345 7.39979Z" fill="#5D9400"/>
</svg>
