<svg width="15" height="14" viewBox="0 0 15 14" fill="none" xmlns="http://www.w3.org/2000/svg">
<path d="M12.427 11.042L13.0635 11.7924C13.2733 12.0396 13.3032 12.3543 13.0561 12.5565C12.8163 12.7588 12.4941 12.6839 12.2919 12.4442L11.5851 11.612C11.8908 11.4504 12.1734 11.2607 12.427 11.042ZM12.2919 1.61878C12.4941 1.37905 12.8163 1.30417 13.0561 1.50639C13.3032 1.70869 13.2733 2.02337 13.0635 2.27054L12.4276 3.02034C12.1739 2.80186 11.8912 2.61222 11.5853 2.45074L12.2919 1.61878ZM8.77083 12.2644L8.93814 12.2583L8.94313 13.2383C8.94313 13.5679 8.74091 13.7852 8.44119 13.7852C8.13403 13.7852 7.93181 13.5679 7.93181 13.2383L7.92644 12.2001C8.22056 12.2427 8.5067 12.2644 8.77083 12.2644ZM7.93181 0.824712C7.93181 0.495071 8.13403 0.277818 8.44119 0.277818C8.74091 0.277818 8.94313 0.495071 8.94313 0.824712L8.93814 1.80473C8.88398 1.79929 8.8276 1.7986 8.77083 1.7986C8.5067 1.7986 8.22056 1.82031 7.92644 1.86281L7.93181 0.824712ZM4.24592 11.7849L4.99182 10.9127C5.01929 10.9469 5.05062 10.9831 5.08498 11.0208C5.25947 11.2123 5.50165 11.3866 5.78672 11.5399L5.02505 12.4367C4.82277 12.6764 4.49314 12.7513 4.26091 12.549C4.01368 12.3543 4.03616 12.0321 4.24592 11.7849ZM4.26091 1.50639C4.49314 1.30417 4.82277 1.38657 5.02505 1.6263L5.78487 2.52093C5.50063 2.6729 5.2591 2.84544 5.08498 3.03469C5.04966 3.07412 5.01754 3.11186 4.98947 3.14753L4.24592 2.27806C4.03616 2.03081 4.01368 1.70869 4.26091 1.50639Z" fill="#DDDDDD" fill-opacity="0.85"/>
<path d="M5.08066 3.03986C5.76988 2.29074 7.51543 1.80376 8.7665 1.80376C11.5983 1.80376 13.6735 3.44445 14.0256 5.97662C14.0781 6.38113 13.9357 6.59839 13.621 6.59839L6.96853 6.59839C6.7288 6.59839 6.53403 6.80066 6.53403 7.0329C6.53403 7.27264 6.7288 7.46741 6.96853 7.46741L13.621 7.46741C13.9357 7.46741 14.0781 7.68467 14.0256 8.08922C13.6735 10.6289 11.5983 12.2695 8.7665 12.2695C7.51543 12.2695 5.76988 11.7826 5.08066 11.0259C4.69109 10.5989 4.69109 10.3667 4.78848 10.1269C5.1256 9.30286 5.3953 8.20159 5.3953 7.0329C5.3953 5.87168 5.1256 4.77045 4.78848 3.94639C4.69109 3.70665 4.69109 3.47437 5.08066 3.03986ZM11.7107 9.90218C12.0703 9.90218 12.3625 9.61001 12.3625 9.25041C12.3625 8.88333 12.0703 8.59864 11.7107 8.59864C11.3436 8.59864 11.0514 8.88333 11.0514 9.25041C11.0514 9.61001 11.3436 9.90218 11.7107 9.90218ZM11.7107 5.47468C12.0703 5.47468 12.3625 5.18248 12.3625 4.8154C12.3625 4.46328 12.0703 4.17108 11.7107 4.17108C11.3436 4.17108 11.0514 4.46328 11.0514 4.8154C11.0514 5.18248 11.3436 5.47468 11.7107 5.47468ZM9.27596 10.8986C9.7779 10.8986 10.175 10.5015 10.175 10.0071C10.175 9.52011 9.7779 9.11557 9.27596 9.11557C8.7965 9.11557 8.39943 9.52011 8.39943 10.0071C8.39943 10.5015 8.7965 10.8986 9.27596 10.8986ZM9.27596 4.95026C9.7779 4.95026 10.175 4.55319 10.175 4.06621C10.175 3.57179 9.7779 3.17472 9.27596 3.17472C8.7965 3.17472 8.39943 3.57179 8.39943 4.06621C8.39943 4.55319 8.7965 4.95026 9.27596 4.95026ZM6.85616 10.1494C7.2682 10.1494 7.6203 9.81228 7.6203 9.39276C7.6203 8.97322 7.2682 8.6361 6.85616 8.6361C6.44413 8.6361 6.09951 8.97322 6.09951 9.39276C6.09951 9.81228 6.44413 10.1494 6.85616 10.1494ZM6.85616 5.43717C7.2682 5.43717 7.6203 5.09257 7.6203 4.67302C7.6203 4.26099 7.2682 3.92391 6.85616 3.92391C6.44413 3.92391 6.09951 4.26099 6.09951 4.67302C6.09951 5.09257 6.44413 5.43717 6.85616 5.43717Z" fill="#DDDDDD"/>
<path d="M3.41805 10.1953C3.74768 10.1953 4.00988 10.068 4.18219 9.68588C4.48185 9.02662 4.66165 8.03773 4.66165 7.02637C4.66165 6.02248 4.48185 5.02612 4.18219 4.37435C4.00988 3.9848 3.74768 3.8649 3.41805 3.8649C2.15945 3.8649 1.11812 5.09355 1.11812 7.02637C1.11812 8.9592 2.15945 10.1953 3.41805 10.1953ZM0.960797 9.57351L1.05819 9.25137C1.1331 8.98916 1.26795 8.88428 1.47772 8.93672L1.73993 9.00414L1.73243 8.02274L1.45524 7.99278C0.840931 7.92535 0.383947 8.21753 0.174181 8.83933L0.031841 9.25137C-0.185415 9.91063 0.773507 10.2253 0.960797 9.57351ZM0.960796 4.48674C0.773507 3.8349 -0.185416 4.14958 0.0318408 4.80886L0.174181 5.22089C0.383946 5.84266 0.840931 6.13486 1.45524 6.06743L1.73243 6.03L1.73993 5.05604L1.47772 5.12347C1.26795 5.16842 1.1331 5.07107 1.05819 4.80886L0.960796 4.48674Z" fill="#DDDDDD" fill-opacity="0.85"/>
</svg>
