<svg width="18" height="13" viewBox="0 0 18 13" fill="none" xmlns="http://www.w3.org/2000/svg">
<g clip-path="url(#clip0_2011_32824)">
<path d="M17.9996 6.29064C17.9996 6.16381 17.9527 6.03698 17.8635 5.95074L14.1406 2.02411C14.0608 1.93788 13.9575 1.88712 13.8401 1.88712C13.596 1.88712 13.4082 2.085 13.4082 2.34879C13.4082 2.4756 13.4552 2.59228 13.5303 2.67852L17.2062 6.56459V6.02176L13.5303 9.9078C13.4552 9.98897 13.4082 10.1057 13.4082 10.2376C13.4082 10.5014 13.596 10.6992 13.8401 10.6992C13.9575 10.6992 14.0608 10.6485 14.1453 10.5622L17.8635 6.63561C17.9527 6.53922 17.9996 6.42254 17.9996 6.29064Z" fill="#DDDDDD"/>
</g>
<g clip-path="url(#clip1_2011_32824)">
<path d="M0.000355244 6.1078C0.000355244 6.23463 0.0473237 6.36146 0.136501 6.4477L3.85942 10.3743C3.93923 10.4606 4.04251 10.5113 4.15988 10.5113C4.40401 10.5113 4.5918 10.3134 4.5918 10.0496C4.5918 9.92283 4.54485 9.80616 4.46973 9.71992L0.793767 5.83385V6.37668L4.46973 2.49063C4.54485 2.40946 4.5918 2.29278 4.5918 2.16088C4.5918 1.89707 4.40401 1.69922 4.15988 1.69922C4.04251 1.69922 3.93923 1.74995 3.85473 1.83619L0.136501 5.76283C0.0473237 5.85921 0.000355244 5.9759 0.000355244 6.1078Z" fill="#DDDDDD"/>
</g>
<path d="M11.0684 0.699219L7.21822 11.7684" stroke="#DDDDDD" stroke-linecap="round"/>
<defs>
<clipPath id="clip0_2011_32824">
<rect width="8.99979" height="4.99988" fill="white" transform="matrix(0 -1 1 0 13 10.6992)"/>
</clipPath>
<clipPath id="clip1_2011_32824">
<rect width="8.99979" height="4.99988" fill="white" transform="matrix(0 1 -1 0 5 1.69922)"/>
</clipPath>
</defs>
</svg>
