<svg width="12" height="15" viewBox="0 0 12 15" fill="none" xmlns="http://www.w3.org/2000/svg">
<g clip-path="url(#clip0_2011_32840)">
<path d="M4.01789 11.9463C3.76486 11.9463 3.5885 11.7885 3.57316 11.5202L3.40448 4.81324C3.3968 4.55286 3.5655 4.38716 3.84154 4.38716C4.09457 4.38716 4.27093 4.54496 4.2786 4.81324L4.45495 11.5202C4.46262 11.7806 4.28626 11.9463 4.01789 11.9463ZM5.85815 11.9463C5.59745 11.9463 5.40576 11.7806 5.40576 11.5202V4.81324C5.40576 4.55286 5.59745 4.38716 5.85815 4.38716C6.12652 4.38716 6.31055 4.55286 6.31055 4.81324V11.5202C6.31055 11.7806 6.12652 11.9463 5.85815 11.9463ZM7.69841 11.9463C7.43003 11.9463 7.25367 11.7806 7.26135 11.5202L7.44537 4.81324C7.44537 4.54496 7.6294 4.38716 7.87476 4.38716C8.15083 4.38716 8.31949 4.55286 8.31179 4.81324L8.14314 11.5202C8.12783 11.7885 7.95909 11.9463 7.69841 11.9463ZM3.18211 2.91162H4.27093V1.586C4.27093 1.26249 4.49329 1.04945 4.81533 1.04945H6.89329C7.20767 1.04945 7.43003 1.26249 7.43003 1.586V2.91162H8.52654V1.50709C8.52654 0.576011 7.93609 0 6.96997 0H4.73099C3.77253 0 3.18211 0.576011 3.18211 1.50709V2.91162ZM0.50607 3.47185H11.2102C11.494 3.47185 11.7163 3.23513 11.7163 2.94318C11.7163 2.65123 11.4863 2.41451 11.2102 2.41451H0.50607C0.237699 2.41451 0 2.65123 0 2.94318C0 3.23513 0.237699 3.47185 0.50607 3.47185ZM3.0901 13.848H8.63387C9.54633 13.848 10.1368 13.264 10.1828 12.3171L10.5815 3.3456H1.13482L1.54121 12.3251C1.58722 13.2719 2.1623 13.848 3.0901 13.848Z" fill="#DDDDDD"/>
</g>
<defs>
<clipPath id="clip0_2011_32840">
<rect width="12" height="15" fill="white"/>
</clipPath>
</defs>
</svg>
