<svg width="15" height="13" viewBox="0 0 15 13" fill="none" xmlns="http://www.w3.org/2000/svg">
<path d="M14.6663 4.63164C14.6663 5.33435 14.0937 5.90693 13.391 5.90693C13.1094 5.90693 12.851 5.81724 12.6422 5.66423L9.51662 7.48948C9.52612 7.54749 9.53039 7.60727 9.53039 7.66807C9.53039 8.37078 8.95774 8.94337 8.24637 8.94337C7.54366 8.94337 6.97108 8.37078 6.97108 7.66807C6.97108 7.49389 7.00539 7.32804 7.06797 7.17708L5.89933 6.19297C5.67608 6.39346 5.38049 6.51423 5.05378 6.51423C4.70231 6.51423 4.38684 6.37446 4.15794 6.14687L1.25391 7.82632V6.78495L3.78294 5.32051C3.77952 5.29095 3.77848 5.26073 3.77848 5.23024C3.77848 4.52753 4.34239 3.95495 5.05378 3.95495C5.76518 3.95495 6.32908 4.52753 6.32908 5.23024C6.32908 5.28834 6.32533 5.34552 6.31672 5.40109L7.65763 6.52968C7.83358 6.43637 8.03404 6.38409 8.24637 6.38409C8.56416 6.38409 8.85425 6.49835 9.0775 6.68876L12.1442 4.89981C12.1253 4.81344 12.1156 4.72366 12.1156 4.63164C12.1156 3.92025 12.6796 3.34766 13.391 3.34766C14.0937 3.34766 14.6663 3.92025 14.6663 4.63164Z" fill="#5B5B5B"/>
<path d="M0.00390625 12.2474C0.00390625 12.6031 0.238145 12.8373 0.593841 12.8373H14.0582C14.4052 12.8373 14.6828 12.5597 14.6828 12.2127C14.6828 11.8743 14.4052 11.588 14.0582 11.588H1.47007C1.30523 11.588 1.25318 11.5447 1.25318 11.3799V0.88245C1.25318 0.544105 0.975564 0.257812 0.628544 0.257812C0.290199 0.257812 0.00390625 0.544105 0.00390625 0.88245V12.2474Z" fill="#5B5B5B"/>
</svg>
