<svg width="14" height="11" viewBox="0 0 14 11" fill="none" xmlns="http://www.w3.org/2000/svg">
<g clip-path="url(#clip0_2011_32845)">
<path d="M4.21802 4.1047C4.05588 4.45231 3.96684 4.84057 3.96684 5.25008C3.96684 6.77682 5.20454 8.00821 6.7313 8.00821C7.14016 8.00821 7.52785 7.91988 7.87507 7.75891L9.15941 9.04229C8.4243 9.29924 7.6082 9.45326 6.7313 9.45326C2.79194 9.45326 -0.00390625 6.25533 -0.00390625 5.25008C-0.00390625 4.66698 0.925132 3.35945 2.4704 2.35842L4.21802 4.1047ZM13.4601 5.25008C13.4601 5.81319 12.6025 7.06434 11.145 8.05569L9.31053 6.22268C9.42724 5.92143 9.48945 5.59321 9.48945 5.25008C9.48945 3.72335 8.258 2.49192 6.7313 2.49192C6.38761 2.49192 6.05859 2.55431 5.75644 2.67131L4.48654 1.40238C5.17598 1.17893 5.92997 1.04688 6.7313 1.04688C10.7271 1.04688 13.4601 4.23855 13.4601 5.25008ZM7.06681 6.9513C6.95847 6.97311 6.84621 6.98411 6.7313 6.98411C5.77 6.98411 4.99722 6.21135 4.99722 5.25008C4.99722 5.13559 5.00818 5.02378 5.02983 4.91588L7.06681 6.9513ZM8.46535 5.25008L8.45924 5.37201L6.60797 3.5222C6.64837 3.51747 6.68961 3.51602 6.7313 3.51602C7.69255 3.51602 8.46535 4.28881 8.46535 5.25008Z" fill="#DDDDDD"/>
<path d="M10.5035 9.51524C10.6731 9.68489 10.9433 9.69744 11.1192 9.51524C11.2951 9.32673 11.2825 9.07543 11.1192 8.90578L2.94526 0.744416C2.77562 0.574778 2.49918 0.574778 2.32954 0.744416C2.16619 0.907765 2.16619 1.1905 2.32954 1.35384L10.5035 9.51524Z" fill="#DDDDDD"/>
</g>
<defs>
<clipPath id="clip0_2011_32845">
<rect width="13.6966" height="10.508" fill="white"/>
</clipPath>
</defs>
</svg>
