<svg width="15" height="13" viewBox="0 0 15 13" fill="none" xmlns="http://www.w3.org/2000/svg">
<g clip-path="url(#clip0_1988_65888)">
<path d="M2.02166 12.2818H12.685C14.0407 12.2818 14.7066 11.6158 14.7066 10.2839V2.72054C14.7066 1.38862 14.0407 0.722656 12.685 0.722656H2.02166C0.673889 0.722656 0 1.38862 0 2.72054V10.2839C0 11.6158 0.673889 12.2818 2.02166 12.2818ZM2.03753 11.1322C1.4667 11.1322 1.14165 10.8231 1.14165 10.2285V2.77603C1.14165 2.1735 1.4667 1.87223 2.03753 1.87223H12.6691C13.2399 1.87223 13.565 2.1735 13.565 2.77603V10.2285C13.565 10.8231 13.2399 11.1322 12.6691 11.1322H2.03753Z" fill="white"/>
<path d="M2.73253 5.59069C2.18549 5.92368 2.64532 6.75613 3.24786 6.37558L5.01582 5.26564C5.4043 5.0278 5.38844 4.43319 5.01582 4.19535L3.24786 3.09334C2.64532 2.70486 2.18549 3.53731 2.73253 3.8703L4.15166 4.73446L2.73253 5.59069ZM5.39637 6.32801C5.39637 6.57378 5.59457 6.77991 5.84827 6.77991H8.21086C8.46455 6.77991 8.66272 6.57378 8.66272 6.32801C8.66272 6.07431 8.46455 5.8761 8.21086 5.8761H5.84827C5.59457 5.8761 5.39637 6.07431 5.39637 6.32801Z" fill="white"/>
</g>
<defs>
<clipPath id="clip0_1988_65888">
<rect width="15" height="11.5671" fill="white" transform="translate(0 0.714844)"/>
</clipPath>
</defs>
</svg>
