<svg width="16" height="13" viewBox="0 0 16 13" fill="none" xmlns="http://www.w3.org/2000/svg">
<path d="M7.11029 11.9393H8.30509V0.173758H7.11029V11.9393ZM2.12361 12.1052H13.2835C14.7023 12.1052 15.3992 11.4082 15.3992 10.0143V2.09872C15.3992 0.704784 14.7023 0.0078125 13.2835 0.0078125H2.12361C0.713081 0.0078125 0.0078125 0.704784 0.0078125 2.09872V10.0143C0.0078125 11.4082 0.713081 12.1052 2.12361 12.1052ZM2.14022 10.9021C1.54281 10.9021 1.20262 10.5786 1.20262 9.95629V2.15681C1.20262 1.52622 1.54281 1.21092 2.14022 1.21092H13.2669C13.8643 1.21092 14.2045 1.52622 14.2045 2.15681V9.95629C14.2045 10.5786 13.8643 10.9021 13.2669 10.9021H2.14022Z" fill="#DDDDDD"/>
</svg>
