<svg width="30" height="30" viewBox="0 0 30 30" fill="none" xmlns="http://www.w3.org/2000/svg">
<g clip-path="url(#clip0_4078_6034)">
<g clip-path="url(#clip1_4078_6034)">
<path d="M15.1602 23.3086C15.7565 23.3086 16.0659 23.0742 16.2838 22.4179L17.7626 18.2813H24.5264L26.0052 22.4179C26.2231 23.0742 26.5211 23.3086 27.1172 23.3086C27.7249 23.3086 28.1146 22.9336 28.1146 22.3476C28.1146 22.1484 28.0802 21.961 27.9885 21.7148L22.6119 7.07813C22.3482 6.36328 21.8782 6 21.1445 6C20.4337 6 19.9523 6.35156 19.7 7.06641L14.3233 21.7266C14.2317 21.9726 14.1973 22.1602 14.1973 22.3594C14.1973 22.9453 14.5641 23.3086 15.1602 23.3086ZM18.3243 16.5L21.1101 8.61328H21.1674L23.9532 16.5H18.3243Z" fill="#B5B5B5"/>
<path d="M2.95151 23.3086C3.42154 23.3086 3.73106 23.0626 3.91449 22.4882L4.866 19.6172H9.34843L10.2999 22.4882C10.4834 23.086 10.7929 23.3086 11.2744 23.3086C11.8476 23.3086 12.2373 22.9453 12.2373 22.4179C12.2373 22.1836 12.18 21.961 12.0883 21.7148L8.52301 12.0352C8.25934 11.3203 7.77786 10.9453 7.10147 10.9453C6.43657 10.9453 5.95508 11.2969 5.6914 12.0352L2.1261 21.7148C2.03439 21.9374 2 22.1719 2 22.4179C2 22.9571 2.36685 23.3086 2.95151 23.3086ZM5.37041 18.0937L6.97537 13.207H7.23904L8.84401 18.0937H5.37041Z" fill="#B5B5B5"/>
</g>
</g>
<defs>
<clipPath id="clip0_4078_6034">
<rect width="27" height="18" fill="white" transform="translate(2 6)"/>
</clipPath>
<clipPath id="clip1_4078_6034">
<rect width="26.5391" height="17.3321" fill="white" transform="translate(2 6)"/>
</clipPath>
</defs>
</svg>
