<svg width="30" height="30" viewBox="0 0 30 30" fill="none" xmlns="http://www.w3.org/2000/svg">
<path d="M23.9444 22.2051C23.9444 22.6348 23.5928 22.9863 23.1631 22.9863H9.08203L10.6604 21.4141H23.1631C23.5928 21.4141 23.9444 21.7754 23.9444 22.2051Z" fill="#B5B5B5"/>
<path d="M8.0945 22.0888L18.7586 11.4443L17.0399 9.72551L6.38552 20.37L5.44802 22.5478C5.36013 22.7821 5.60427 23.0556 5.83864 22.9579L8.0945 22.0888ZM19.6082 10.6044L20.5946 9.63762C21.1024 9.13957 21.1317 8.60246 20.6727 8.15324L20.3504 7.82121C19.9012 7.38176 19.3641 7.42082 18.8758 7.9091L17.8797 8.88566L19.6082 10.6044Z" fill="#B5B5B5"/>
</svg>
