<svg width="10" height="15" viewBox="0 0 10 15" fill="none" xmlns="http://www.w3.org/2000/svg">
<g clip-path="url(#clip0_4078_6024)">
<path d="M0.745574 14.4902H6.63561C7.07364 14.4902 7.3905 14.2065 7.3905 13.7467C7.3905 13.3064 7.08296 13.0227 6.64493 13.0227H4.55732L6.82201 1.9675H8.90961C9.34764 1.9675 9.6552 1.68379 9.6552 1.22397C9.6552 0.783718 9.35696 0.5 8.91893 0.5H3.00094C2.56291 0.5 2.26468 0.783718 2.26468 1.22397C2.26468 1.68379 2.57223 1.9675 3.01026 1.9675H5.09787L2.83318 13.0227H0.736254C0.29823 13.0227 0 13.3064 0 13.7467C0 14.2065 0.30755 14.4902 0.745574 14.4902Z" fill="#B5B5B5"/>
</g>
<defs>
<clipPath id="clip0_4078_6024">
<rect width="10" height="14" fill="white" transform="translate(0 0.5)"/>
</clipPath>
</defs>
</svg>
