<svg width="16" height="16" viewBox="0 0 16 16" fill="none" xmlns="http://www.w3.org/2000/svg">
<path d="M7.95551 4.85938L6.96929 5.86767C7.94806 5.94982 8.58581 6.2411 9.06774 6.72658C10.3654 8.03365 10.358 9.88585 9.07518 11.178L6.65044 13.6128C5.36021 14.9124 3.53609 14.9199 2.23844 13.6202C0.940799 12.3058 0.94821 10.4684 2.23844 9.16885L3.6918 7.70502C3.48418 7.23445 3.43228 6.6743 3.51385 6.18882L1.33379 8.3772C-0.438418 10.1697 -0.453248 12.7091 1.34121 14.5165C3.14309 16.3315 5.66423 16.3165 7.43644 14.5314L9.97238 11.9696C11.752 10.1772 11.7669 7.63777 9.96502 5.83032C9.49781 5.35979 8.90464 5.0237 7.95551 4.85938ZM7.77016 11.0136L8.75635 10.0054C7.77752 9.93067 7.13984 9.63194 6.65785 9.14644C5.36021 7.83939 5.36762 5.98717 6.65044 4.69507L9.06774 2.26024C10.3654 0.960678 12.1896 0.953205 13.4872 2.26024C14.7848 3.56728 14.77 5.41207 13.4872 6.70417L12.0338 8.16803C12.2414 8.64603 12.2859 9.19875 12.2118 9.68425L14.3919 7.49586C16.164 5.70336 16.1789 3.17143 14.3844 1.35652C12.5825 -0.458395 10.0614 -0.443458 8.28178 1.34905L5.75321 3.90337C3.97358 5.69588 3.95875 8.23525 5.76062 10.0427C6.22778 10.5132 6.82099 10.8494 7.77016 11.0136Z" fill="#B5B5B5"/>
</svg>
