<svg width="19" height="12" viewBox="0 0 19 12" fill="none" xmlns="http://www.w3.org/2000/svg">
<g clip-path="url(#clip0_4078_6055)">
<path d="M0.109375 4.3192C0.109375 6.54576 1.77929 8.32031 3.91309 8.32031C4.91673 8.32031 5.86976 7.9269 6.56978 7.15681H6.7975C6.30832 8.73884 4.82395 10.0613 2.98535 10.6055C2.71547 10.6892 2.52149 10.7645 2.40341 10.865C2.26847 10.9738 2.201 11.1077 2.201 11.3003C2.201 11.6518 2.46245 11.8945 2.85041 11.8945C3.12873 11.8945 3.32271 11.8443 3.6938 11.7271C4.84925 11.3505 5.90349 10.6892 6.71315 9.84371C7.84331 8.67188 8.54332 7.10658 8.54332 5.24833C8.54332 2.10938 6.53605 0.292969 4.18297 0.292969C1.86364 0.292969 0.109375 2.05078 0.109375 4.3192ZM10.2385 4.3192C10.2385 6.54576 11.9 8.32031 14.0422 8.32031C15.0459 8.32031 15.9905 7.9269 16.699 7.15681H16.9182C16.4375 8.73884 14.9531 10.0613 13.1061 10.6055C12.8362 10.6892 12.6507 10.7645 12.5326 10.865C12.3976 10.9738 12.3217 11.1077 12.3217 11.3003C12.3217 11.6518 12.5916 11.8945 12.988 11.8945C13.2494 11.8945 13.4519 11.8443 13.8145 11.7271C14.9784 11.3505 16.0242 10.6892 16.8255 9.84371C17.9725 8.67188 18.6725 7.10658 18.6725 5.24833C18.6725 2.10938 16.6652 0.292969 14.3121 0.292969C11.9928 0.292969 10.2385 2.05078 10.2385 4.3192Z" fill="#B5B5B5"/>
</g>
<defs>
<clipPath id="clip0_4078_6055">
<rect width="19" height="12" fill="white"/>
</clipPath>
</defs>
</svg>
