<svg width="17" height="16" viewBox="0 0 17 16" fill="none" xmlns="http://www.w3.org/2000/svg">
<g clip-path="url(#clip0_4078_6028)">
<path d="M13.3789 10.7539C13.3789 13.3027 11.2988 14.9727 8.05664 14.9727C5.37109 14.9727 3.33984 13.8008 2.82227 11.9551C2.77344 11.7695 2.74414 11.584 2.74414 11.4082C2.74414 10.9004 3.06641 10.5781 3.59375 10.5781C4.00391 10.5781 4.21875 10.7637 4.39453 11.1836C4.89258 12.5703 6.25 13.4004 8.05664 13.4004C10.0977 13.4004 11.5332 12.375 11.5332 10.9688C11.5332 9.79688 10.6836 9.13281 8.65234 8.64453L6.85547 8.21484C6.57681 8.14928 6.31405 8.07823 6.07057 8H11.9309C12.9276 8.6515 13.3789 9.52857 13.3789 10.7539ZM12.9492 3.50781C12.9883 3.6543 13.0078 3.81055 13.0078 3.95703C13.0078 4.44531 12.6953 4.73828 12.1875 4.73828C11.7969 4.73828 11.5625 4.5625 11.4062 4.19141C10.9277 2.84375 9.72656 2.08203 8.04688 2.08203C6.18164 2.08203 4.83398 3.04883 4.83398 4.41602C4.83398 5.5 5.67383 6.10547 7.65625 6.58398L9.24805 6.96484C9.55704 7.03792 9.84717 7.11545 10.1151 7.19922H4.34285C3.42178 6.55843 2.98828 5.69403 2.98828 4.54297C2.98828 2.17969 5.10742 0.5 8.04688 0.5C10.5566 0.5 12.5098 1.73047 12.9492 3.50781Z" fill="#B5B5B5"/>
<path d="M0.400391 8H15.7227C15.9473 8 16.123 7.82422 16.123 7.59961C16.123 7.375 15.9473 7.19922 15.7227 7.19922H0.400391C0.175781 7.19922 0 7.375 0 7.59961C0 7.82422 0.175781 8 0.400391 8Z" fill="#B5B5B5"/>
</g>
<defs>
<clipPath id="clip0_4078_6028">
<rect width="17" height="15" fill="white" transform="translate(0 0.5)"/>
</clipPath>
</defs>
</svg>
