<svg width="19" height="20" viewBox="0 0 19 20" fill="none" xmlns="http://www.w3.org/2000/svg">
<g clip-path="url(#clip0_4078_6068)">
<path d="M1.38477 16.873C1.90234 16.873 2.15625 16.6777 2.34179 16.1308L3.60156 12.6835H9.36328L10.6231 16.1308C10.8086 16.6777 11.0625 16.873 11.5704 16.873C12.0879 16.873 12.42 16.5605 12.42 16.0722C12.42 15.9062 12.3907 15.75 12.3125 15.5449L7.73242 3.34766C7.50781 2.75196 7.10742 2.44922 6.48242 2.44922C5.87695 2.44922 5.46679 2.74219 5.25195 3.33789L0.671875 15.5546C0.59375 15.7597 0.564453 15.916 0.564453 16.082C0.564453 16.5703 0.876953 16.873 1.38477 16.873ZM4.08007 11.1992L6.45312 4.62696H6.50195L8.875 11.1992H4.08007Z" fill="#B5B5B5"/>
<path d="M17.205 19.3457C17.6445 19.3457 17.9277 19.0625 17.9277 18.6523V11.9727C17.9277 11.4844 17.6249 11.1914 17.1464 11.1914C16.7167 11.1914 16.5019 11.3477 16.2187 11.5527L14.6562 12.6172C14.3828 12.8125 14.2656 12.9785 14.2656 13.1934C14.2656 13.5156 14.5097 13.7598 14.8124 13.7598C15.0078 13.7598 15.1347 13.7012 15.33 13.5645L16.4628 12.8027H16.4921V18.6523C16.4921 19.0625 16.7851 19.3457 17.205 19.3457Z" fill="#B5B5B5"/>
</g>
<defs>
<clipPath id="clip0_4078_6068">
<rect width="18.2898" height="19.457" fill="white"/>
</clipPath>
</defs>
</svg>
