<svg width="16" height="19" viewBox="0 0 16 19" fill="none" xmlns="http://www.w3.org/2000/svg">
<g clip-path="url(#clip0_4078_6061)">
<path d="M1.47266 16.4199C1.99023 16.4199 2.24414 16.2246 2.42968 15.6777L3.68945 12.2304H9.45117L10.7109 15.6777C10.8964 16.2246 11.1503 16.4199 11.6582 16.4199C12.1757 16.4199 12.5078 16.1074 12.5078 15.6191C12.5078 15.4531 12.4785 15.2968 12.4003 15.0918L7.82031 2.89453C7.5957 2.29882 7.19531 1.99609 6.57031 1.99609C5.96484 1.99609 5.55468 2.28906 5.33984 2.88476L0.759766 15.1015C0.681641 15.3066 0.652344 15.4629 0.652344 15.6289C0.652344 16.1172 0.964844 16.4199 1.47266 16.4199ZM4.16796 10.7461L6.54101 4.17382H6.58984L8.96289 10.7461H4.16796Z" fill="#B5B5B5"/>
<path d="M14.4903 8.30468C14.92 8.30468 15.2032 8.02148 15.2032 7.61132V0.931641C15.2032 0.443359 14.9102 0.140625 14.4317 0.140625C14.002 0.140625 13.7872 0.306641 13.504 0.501953L11.9415 1.57617C11.6583 1.76171 11.5508 1.93751 11.5508 2.14258C11.5508 2.47461 11.795 2.71874 12.0977 2.71874C12.293 2.71874 12.4102 2.66016 12.6055 2.52344L13.7481 1.76172H13.7774V7.61132C13.7774 8.02148 14.0704 8.30468 14.4903 8.30468Z" fill="#B5B5B5"/>
</g>
<defs>
<clipPath id="clip0_4078_6061">
<rect width="16" height="18.2949" fill="white"/>
</clipPath>
</defs>
</svg>
