<?xml version="1.0" encoding="UTF-8"?>
<!DOCTYPE svg PUBLIC "-//W3C//DTD SVG 1.1//EN" "http://www.w3.org/Graphics/SVG/1.1/DTD/svg11.dtd">
<svg xmlns="http://www.w3.org/2000/svg" version="1.1" width="12px" height="12px" viewBox="0 0 1159 1195" style="shape-rendering:geometricPrecision; text-rendering:geometricPrecision; image-rendering:optimizeQuality; fill-rule:evenodd; clip-rule:evenodd" xmlns:xlink="http://www.w3.org/1999/xlink">
<g><path style="opacity:0.997" fill="#6d6d6d" d="M 1158.5,969.5 C 1158.5,977.833 1158.5,986.167 1158.5,994.5C 1152.47,1032.23 1136.97,1065.56 1112,1094.5C 1061.36,1154.41 996.859,1187.74 918.5,1194.5C 900.833,1194.5 883.167,1194.5 865.5,1194.5C 796.701,1187.05 731.034,1168.21 668.5,1138C 597.643,1103.77 531.31,1062.77 469.5,1015C 344.582,918.086 236.082,805.586 144,677.5C 97.7893,612.098 60.1226,541.765 31,466.5C 14.4696,421.724 3.96956,375.724 -0.5,328.5C -0.5,310.833 -0.5,293.167 -0.5,275.5C 7.25316,189.812 44.9198,120.646 112.5,68C 144.625,44.4044 180.625,33.7377 220.5,36C 251.541,40.0758 276.375,54.5758 295,79.5C 339.278,142.778 383.945,205.778 429,268.5C 441.764,286.032 450.764,305.365 456,326.5C 459.718,349.962 455.051,371.629 442,391.5C 436.577,399.345 430.911,407.011 425,414.5C 406.032,435.136 386.699,455.469 367,475.5C 358.223,487.852 357.223,500.852 364,514.5C 371.827,530.833 381.16,546.166 392,560.5C 464.987,654.821 549.153,737.654 644.5,809C 654.836,815.837 665.503,822.17 676.5,828C 690.624,834.629 704.291,833.962 717.5,826C 736.528,806.638 755.862,787.638 775.5,769C 787.467,758.042 800.801,749.042 815.5,742C 840.762,731.583 865.762,732.25 890.5,744C 901.325,749.243 911.658,755.243 921.5,762C 988.833,809.667 1056.17,857.333 1123.5,905C 1143.46,922.084 1155.12,943.584 1158.5,969.5 Z"/></g>
</svg>
