<?xml version="1.0" encoding="UTF-8"?>
<!DOCTYPE svg PUBLIC "-//W3C//DTD SVG 1.1//EN" "http://www.w3.org/Graphics/SVG/1.1/DTD/svg11.dtd">
<svg xmlns="http://www.w3.org/2000/svg" version="1.1" width="12px" height="12px" viewBox="0 0 1146 1146" style="shape-rendering:geometricPrecision; text-rendering:geometricPrecision; image-rendering:optimizeQuality; fill-rule:evenodd; clip-rule:evenodd" xmlns:xlink="http://www.w3.org/1999/xlink">
<g><path style="opacity:0.993" fill="#6d6d6d" d="M 275.5,-0.5 C 472.5,-0.5 669.5,-0.5 866.5,-0.5C 902.886,0.959986 938.886,6.12665 974.5,15C 1063.12,41.2869 1116.62,99.7869 1135,190.5C 1140.99,223.388 1144.49,256.388 1145.5,289.5C 1145.5,477.833 1145.5,666.167 1145.5,854.5C 1144.52,889.331 1140.68,923.998 1134,958.5C 1115.08,1046.42 1062.58,1103.26 976.5,1129C 935.988,1139.19 894.988,1144.69 853.5,1145.5C 666.167,1145.5 478.833,1145.5 291.5,1145.5C 247.528,1144.75 204.195,1138.58 161.5,1127C 86.3003,1102.47 37.467,1052.3 15,976.5C 6.12687,940.888 0.960201,904.888 -0.5,868.5C -0.5,670.5 -0.5,472.5 -0.5,274.5C 1.04271,240.178 5.87605,206.178 14,172.5C 36.4878,92.6792 87.3212,40.5125 166.5,16C 202.384,6.61289 238.718,1.11289 275.5,-0.5 Z M 285.5,86.5 C 482.512,86.0186 679.512,86.5186 876.5,88C 912.949,89.779 947.616,98.4457 980.5,114C 1014.75,133.582 1036.58,162.749 1046,201.5C 1052.09,224.788 1055.76,248.455 1057,272.5C 1058.63,462.493 1058.97,652.493 1058,842.5C 1058.47,881.774 1052.8,920.107 1041,957.5C 1024.4,1003.76 992.235,1032.93 944.5,1045C 919.942,1051.7 894.942,1055.7 869.5,1057C 680.507,1058.63 491.507,1058.97 302.5,1058C 267.923,1058.09 233.923,1053.76 200.5,1045C 144.598,1029.43 110.098,993.261 97,936.5C 91.0497,911.514 87.7164,886.181 87,860.5C 86.3333,668.833 86.3333,477.167 87,285.5C 87.7412,251.308 93.4078,217.975 104,185.5C 121.565,138.283 155.065,109.116 204.5,98C 231.294,91.6721 258.294,87.8388 285.5,86.5 Z"/></g>
<g><path style="opacity:0.992" fill="#6d6d6d" d="M 562.5,282.5 C 590.544,279.249 608.71,290.916 617,317.5C 618.477,386.806 618.977,456.139 618.5,525.5C 687.861,525.023 757.194,525.523 826.5,527C 849.324,533.173 860.99,548.173 861.5,572C 860.347,596.148 848.013,610.814 824.5,616C 755.834,616.5 687.167,616.667 618.5,616.5C 618.977,686.194 618.477,755.861 617,825.5C 610.628,848.193 595.628,859.86 572,860.5C 547.431,859.263 532.764,846.596 528,822.5C 527.5,753.834 527.333,685.167 527.5,616.5C 458.499,616.667 389.499,616.5 320.5,616C 291.362,608.251 279.528,589.418 285,559.5C 289.942,542.224 301.109,531.391 318.5,527C 388.142,525.527 457.809,525.027 527.5,525.5C 527.333,456.833 527.5,388.166 528,319.5C 531.488,299.517 542.988,287.184 562.5,282.5 Z"/></g>
</svg>
