<?xml version="1.0" encoding="UTF-8"?>
<!DOCTYPE svg PUBLIC "-//W3C//DTD SVG 1.1//EN" "http://www.w3.org/Graphics/SVG/1.1/DTD/svg11.dtd">
<svg xmlns="http://www.w3.org/2000/svg" version="1.1" width="12px" height="12px" viewBox="0 0 1181 1353" style="shape-rendering:geometricPrecision; text-rendering:geometricPrecision; image-rendering:optimizeQuality; fill-rule:evenodd; clip-rule:evenodd" xmlns:xlink="http://www.w3.org/1999/xlink">
<g><path style="opacity:0.99" fill="#6d6d6d" d="M 1180.5,251.5 C 1180.5,266.5 1180.5,281.5 1180.5,296.5C 1173.02,354.126 1149.85,404.459 1111,447.5C 896.5,662 682,876.5 467.5,1091C 414.634,1134.19 357.634,1140.52 296.5,1110C 239.146,1072.43 216.313,1019.59 228,951.5C 234.222,925.053 246.222,901.72 264,881.5C 412.554,733.279 560.721,584.779 708.5,436C 725.617,420.422 743.95,418.755 763.5,431C 776.085,442.229 780.251,456.062 776,472.5C 774.112,477.945 771.445,482.945 768,487.5C 619.333,636.167 470.667,784.833 322,933.5C 302.709,958.281 300.376,984.614 315,1012.5C 335.162,1042.5 362.662,1052.66 397.5,1043C 406.298,1039.19 414.298,1034.19 421.5,1028C 629.306,819.194 837.473,610.694 1046,402.5C 1076.04,370.746 1094.04,333.079 1100,289.5C 1104.24,218.802 1076.4,164.969 1016.5,128C 970.982,104.422 923.982,101.088 875.5,118C 850.568,127.636 828.234,141.303 808.5,159C 592.333,375.167 376.167,591.333 160,807.5C 121.075,848.68 96.4087,897.346 86,953.5C 75.586,1033.2 95.9193,1103.87 147,1165.5C 190.456,1217.25 245.29,1250.42 311.5,1265C 378.609,1276.51 440.942,1264.18 498.5,1228C 512.064,1219.1 525.064,1209.44 537.5,1199C 700.473,1037.03 863.139,874.694 1025.5,712C 1047.44,695.371 1067.94,696.871 1087,716.5C 1097.24,734.028 1096.9,751.361 1086,768.5C 922.833,931.667 759.667,1094.83 596.5,1258C 536.026,1312.9 465.026,1344.4 383.5,1352.5C 366.5,1352.5 349.5,1352.5 332.5,1352.5C 212.9,1338.64 120.066,1281.64 54,1181.5C 23.1394,1132.08 4.97278,1078.42 -0.5,1020.5C -0.5,1003.17 -0.5,985.833 -0.5,968.5C 7.82144,887.872 38.9881,817.539 93,757.5C 312.139,537.36 531.639,317.527 751.5,98C 787.147,64.6694 828.813,42.0028 876.5,30C 986.626,11.9944 1074.13,48.1611 1139,138.5C 1161.88,172.913 1175.71,210.58 1180.5,251.5 Z"/></g>
</svg>
