<svg width="120" height="93" viewBox="0 0 120 93" fill="none" xmlns="http://www.w3.org/2000/svg">
<path d="M-15 89.5232H119M-15 105.735H119M-15 73.3133H119M-15 57.1032H119M-15 40.8917H119M-15 24.6802H119M-15 8.46875H119M20.3571 121.946V9.06967M3.91712 121.946V9.06967M36.7971 121.946V9.06967M53.2404 121.946L53.2402 9.06967M69.6802 121.946V9.06967M86.1202 121.946V9.06967M102.56 121.946V9.06967M118.997 121.946V9.06967" stroke="url(#paint0_radial_2807_33860)" stroke-width="0.965766" stroke-linecap="round"/>
<g filter="url(#filter0_f_2807_33860)">
<rect x="27" y="26" width="65" height="57" rx="2.41441" fill="#D4B2FF" fill-opacity="0.3"/>
</g>
<g clip-path="url(#clip0_2807_33860)">
<path d="M55.8389 78.1438H55.214C55.1094 77.6047 55.0138 76.9611 54.929 76.2734H29.0951C29.0436 76.8797 29.0011 77.4995 28.9754 78.1438H28.9329C27.647 78.1438 26.6035 79.2309 26.6035 80.5723C26.6035 81.9138 27.647 83.0008 28.9329 83.0008H55.8389C57.1248 83.0008 58.1683 81.9138 58.1683 80.5723C58.1683 79.2309 57.1248 78.1438 55.8389 78.1438Z" fill="url(#paint1_linear_2807_33860)"/>
<path d="M30.8615 54.5482C31.0418 54.8147 31.318 54.9957 31.6274 55.0511C31.9352 55.1065 32.2537 55.0314 32.5099 54.8424L36.738 51.7213C37.2596 51.3356 37.9709 51.3845 38.4411 51.8391C39.592 52.9506 41.2132 53.3633 42.7252 52.9308C43.8883 52.5988 44.8528 51.7981 45.4442 50.7365C45.6656 52.5159 44.8315 55.2693 39.727 58.7342C34.9999 61.9429 32.0277 65.2773 30.4247 69.7967H54.9028C55.1848 67.2029 55.8414 64.328 57.2064 61.3302C60.0589 56.4937 63.2632 47.6984 55.7732 39.5481C49.5221 32.7465 43.9612 33.5584 40.8431 34.9513C39.3266 35.6278 38.6062 37.4216 39.1765 39.0199L35.6793 35.6429C35.4838 35.454 35.1911 35.4224 34.9606 35.5653C34.7316 35.7093 34.6208 35.9939 34.6891 36.2634L35.8431 40.8357C35.4215 41.1986 35.0348 41.6057 34.7345 42.0958L29.316 50.9426C29.0582 51.3655 29.0703 51.9087 29.3478 52.3182L30.8615 54.5482Z" fill="url(#paint2_linear_2807_33860)"/>
<path d="M28.5002 74.6521H55.8383C56.6966 74.6521 57.3913 73.927 57.3913 73.0331C57.3913 72.1391 56.6966 71.4141 55.8383 71.4141H28.5002C27.6419 71.4141 26.9473 72.1391 26.9473 73.0331C26.9474 73.9271 27.6419 74.6521 28.5002 74.6521Z" fill="url(#paint3_linear_2807_33860)"/>
</g>
<path d="M74.1417 36.8908H76.8563C76.8563 36.8908 76.6713 34.8507 76.6713 33.6868C77.8333 33.6868 80.0153 34.0184 80.0153 34.0184V31.0115C80.0153 31.0115 77.8332 31.344 76.6713 31.344C76.6713 30.1811 77.0019 28 77.0019 28H73.9958C73.9958 28 74.3284 30.1811 74.3284 31.344C73.1645 31.344 70.9844 31.0124 70.9844 31.0124V34.0194C70.9844 34.0194 73.1646 33.6868 74.3284 33.6868C74.3284 34.8507 74.1417 36.8908 74.1417 36.8908Z" fill="url(#paint4_linear_2807_33860)"/>
<path d="M69.7867 52.3857H81.2126C81.2126 52.3857 83.2285 46.7699 83.9011 43.8761C84.1309 42.8831 83.2285 41.6641 81.7153 41.6641C80.2039 41.6641 75.4998 41.6641 75.4998 41.6641C75.4998 41.6641 70.7939 41.6641 69.2825 41.6641C67.7693 41.6641 66.8669 42.8831 67.0986 43.8761C67.7691 46.7699 69.7867 52.3857 69.7867 52.3857Z" fill="url(#paint5_linear_2807_33860)"/>
<path d="M83.5835 68.2928C80.6803 63.6737 80.4299 59.0312 80.4299 59.0312H70.5676C70.5676 59.0312 70.3173 63.6737 67.416 68.2928C65.5739 71.2213 62.9715 72.0349 63.1471 75.1408C63.2275 76.5793 64.6099 76.8698 64.6099 76.8698H86.3876C86.3876 76.8698 87.772 76.5794 87.8523 75.1408C88.0261 72.0349 85.4236 71.2213 83.5835 68.2928Z" fill="url(#paint6_linear_2807_33860)"/>
<path d="M81.4494 53.9062H69.549C69.549 54.8077 68.6802 55.4522 67.8134 55.9669C66.9446 56.4825 67.1614 57.5128 67.8134 57.5128H83.185C83.8351 57.5128 84.0519 56.4824 83.185 55.9669C82.3162 55.4522 81.4494 54.8077 81.4494 53.9062Z" fill="url(#paint7_linear_2807_33860)"/>
<path d="M78.9141 38.4102H72.082V40.1486H78.9141V38.4102Z" fill="url(#paint8_linear_2807_33860)"/>
<path d="M64.6098 78.3867L63.418 80.3959V82.9983H87.5813V80.3959L86.3876 78.3867H64.6098Z" fill="url(#paint9_linear_2807_33860)"/>
<defs>
<filter id="filter0_f_2807_33860" x="1.76937" y="0.769369" width="115.461" height="107.461" filterUnits="userSpaceOnUse" color-interpolation-filters="sRGB">
<feFlood flood-opacity="0" result="BackgroundImageFix"/>
<feBlend mode="normal" in="SourceGraphic" in2="BackgroundImageFix" result="shape"/>
<feGaussianBlur stdDeviation="12.6153" result="effect1_foregroundBlur_2807_33860"/>
</filter>
<radialGradient id="paint0_radial_2807_33860" cx="0" cy="0" r="1" gradientUnits="userSpaceOnUse" gradientTransform="translate(71.7411 56.757) rotate(179.641) scale(96.3144 40.742)">
<stop stop-color="#F1F1F1" stop-opacity="0.149599"/>
<stop offset="0.4125" stop-color="#FCFCFC"/>
<stop offset="1" stop-color="#F1F1F1" stop-opacity="0"/>
</radialGradient>
<linearGradient id="paint1_linear_2807_33860" x1="42.3859" y1="76.2734" x2="42.3859" y2="83.0008" gradientUnits="userSpaceOnUse">
<stop stop-color="#9747FF"/>
<stop offset="1" stop-color="#9747FF" stop-opacity="0.4"/>
</linearGradient>
<linearGradient id="paint2_linear_2807_33860" x1="44.7634" y1="34" x2="44.7634" y2="69.7967" gradientUnits="userSpaceOnUse">
<stop stop-color="#9747FF"/>
<stop offset="1" stop-color="#9747FF" stop-opacity="0.4"/>
</linearGradient>
<linearGradient id="paint3_linear_2807_33860" x1="42.1693" y1="71.4141" x2="42.1693" y2="74.6521" gradientUnits="userSpaceOnUse">
<stop stop-color="#9747FF"/>
<stop offset="1" stop-color="#9747FF" stop-opacity="0.4"/>
</linearGradient>
<linearGradient id="paint4_linear_2807_33860" x1="75.4999" y1="28" x2="75.4999" y2="36.8908" gradientUnits="userSpaceOnUse">
<stop stop-color="#9747FF"/>
<stop offset="1" stop-color="#9747FF" stop-opacity="0.5"/>
</linearGradient>
<linearGradient id="paint5_linear_2807_33860" x1="75.4996" y1="41.6641" x2="75.4996" y2="52.3857" gradientUnits="userSpaceOnUse">
<stop stop-color="#9747FF"/>
<stop offset="1" stop-color="#9747FF" stop-opacity="0.5"/>
</linearGradient>
<linearGradient id="paint6_linear_2807_33860" x1="75.4996" y1="59.0312" x2="75.4996" y2="76.8698" gradientUnits="userSpaceOnUse">
<stop stop-color="#9747FF"/>
<stop offset="1" stop-color="#9747FF" stop-opacity="0.5"/>
</linearGradient>
<linearGradient id="paint7_linear_2807_33860" x1="75.4985" y1="53.9062" x2="75.4985" y2="57.5128" gradientUnits="userSpaceOnUse">
<stop stop-color="#9747FF"/>
<stop offset="1" stop-color="#9747FF" stop-opacity="0.5"/>
</linearGradient>
<linearGradient id="paint8_linear_2807_33860" x1="75.498" y1="38.4102" x2="75.498" y2="40.1486" gradientUnits="userSpaceOnUse">
<stop stop-color="#9747FF"/>
<stop offset="1" stop-color="#9747FF" stop-opacity="0.5"/>
</linearGradient>
<linearGradient id="paint9_linear_2807_33860" x1="75.4997" y1="78.3867" x2="75.4997" y2="82.9983" gradientUnits="userSpaceOnUse">
<stop stop-color="#9747FF"/>
<stop offset="1" stop-color="#9747FF" stop-opacity="0.5"/>
</linearGradient>
<clipPath id="clip0_2807_33860">
<rect width="47" height="49" fill="white" transform="translate(20 34)"/>
</clipPath>
</defs>
</svg>
