<svg width="120" height="96" viewBox="0 0 120 96" fill="none" xmlns="http://www.w3.org/2000/svg">
<g filter="url(#filter0_f_4026_33327)">
<rect x="15.0039" y="25.0273" width="91.1842" height="59.6867" rx="2.41441" fill="#D4B2FF" fill-opacity="0.2"/>
</g>
<g filter="url(#filter1_i_4026_33327)">
<path d="M43.8323 31.0033C43.546 31.0176 43.2633 31.0725 43.0022 31.1683L26.8924 37.0767C26.1961 37.3321 25.5732 37.9083 25.2615 38.581C24.9498 39.2531 24.9139 40.102 25.1692 40.7977L35.5324 69.0313C35.7876 69.7271 36.364 70.3545 37.0369 70.6659C37.7097 70.9777 38.5591 71.0137 39.2549 70.7583L55.3651 64.8496C56.0614 64.5944 56.6842 64.0183 56.996 63.3458L57.0006 63.336C57.3085 62.6651 57.3423 61.8214 57.0882 61.1289L46.725 32.8951C46.4711 32.2028 45.899 31.5781 45.2302 31.2652L45.2206 31.2605C44.8841 31.1045 44.5025 31.019 44.1187 31.0031C44.0227 30.9992 43.9277 30.9986 43.8323 31.0033ZM49.8999 33.1182L59.8162 60.1293C60.3458 61.573 60.2783 63.1735 59.6316 64.5683C58.985 65.9632 57.8091 67.0466 56.3652 67.576L52.1031 69.1381L61.4225 69.5697C62.1634 69.6043 62.9618 69.312 63.5101 68.813C64.0581 68.3136 64.4218 67.5448 64.4563 66.8043L65.8542 36.7661C65.8887 36.0259 65.6013 35.2234 65.102 34.6754C64.6025 34.1274 63.8333 33.7642 63.0924 33.7295L49.8999 33.1182ZM68.694 38.2798L67.3542 66.9404C67.2827 68.4762 66.603 69.9267 65.4661 70.962C64.3291 71.9974 62.8234 72.5373 61.2868 72.4659L57.239 72.2765L68.0145 75.8617C68.7181 76.0956 69.5696 76.0335 70.2325 75.7018C70.8957 75.3696 71.4499 74.7265 71.684 74.0231L81.1828 45.4891C81.4169 44.7856 81.3547 43.9348 81.0228 43.2721C80.6904 42.6092 80.0469 42.0503 79.3431 41.8167L68.694 38.2798ZM36.8427 41.1276C40.6416 44.9986 47.4078 43.8815 49.3851 48.1955C51.2296 52.2203 47.1314 55.3373 43.4875 54.1577L46.128 58.9361L43.211 60.0082L41.5122 55.0891C39.8984 58.6011 34.8251 58.7753 33.1004 55.0068C30.9988 50.4154 36.8314 46.593 36.8427 41.1276ZM83.6631 47.216L74.441 74.9399C73.9553 76.3987 72.9087 77.6084 71.5333 78.2969L71.5187 78.3015C70.1466 78.984 68.5567 79.0957 67.1018 78.612L63.9369 77.5595L70.6643 83.3079C71.2281 83.7894 72.0412 84.0499 72.7806 83.992C73.5199 83.934 74.2745 83.5512 74.7563 82.9876L94.3076 60.1198C94.7894 59.5563 95.0501 58.7483 94.992 58.0094C94.9342 57.2705 94.5462 56.5117 93.9824 56.0301L83.6631 47.216Z" fill="url(#paint0_linear_4026_33327)"/>
</g>
<defs>
<filter id="filter0_f_4026_33327" x="-10.2267" y="-0.203287" width="141.645" height="110.149" filterUnits="userSpaceOnUse" color-interpolation-filters="sRGB">
<feFlood flood-opacity="0" result="BackgroundImageFix"/>
<feBlend mode="normal" in="SourceGraphic" in2="BackgroundImageFix" result="shape"/>
<feGaussianBlur stdDeviation="12.6153" result="effect1_foregroundBlur_4026_33327"/>
</filter>
<filter id="filter1_i_4026_33327" x="25" y="31" width="70" height="57" filterUnits="userSpaceOnUse" color-interpolation-filters="sRGB">
<feFlood flood-opacity="0" result="BackgroundImageFix"/>
<feBlend mode="normal" in="SourceGraphic" in2="BackgroundImageFix" result="shape"/>
<feColorMatrix in="SourceAlpha" type="matrix" values="0 0 0 0 0 0 0 0 0 0 0 0 0 0 0 0 0 0 127 0" result="hardAlpha"/>
<feOffset dy="4"/>
<feGaussianBlur stdDeviation="12.3"/>
<feComposite in2="hardAlpha" operator="arithmetic" k2="-1" k3="1"/>
<feColorMatrix type="matrix" values="0 0 0 0 1 0 0 0 0 1 0 0 0 0 1 0 0 0 0.62 0"/>
<feBlend mode="normal" in2="shape" result="effect1_innerShadow_4026_33327"/>
</filter>
<linearGradient id="paint0_linear_4026_33327" x1="60" y1="28.5" x2="60" y2="84" gradientUnits="userSpaceOnUse">
<stop stop-color="#9747FF"/>
<stop offset="0.585" stop-color="#9747FF"/>
<stop offset="1" stop-color="#9747FF" stop-opacity="0.6"/>
</linearGradient>
</defs>
</svg>
